%FSLAX45Y45*%
G04 Gerber Fmt 4.5, Leading zero omitted, Abs format (unit mm)*
G04 Created by KiCad (PCBNEW 4.0.7-e2-6376~58~ubuntu17.04.1) date Mon Oct  2 14:29:24 2017*
%MOMM*%
%LPD*%
G01*
G04 APERTURE LIST*
%ADD10C,0.127000*%
%ADD11C,0.150000*%
%ADD12C,0.200000*%
%ADD13C,0.300000*%
G04 APERTURE END LIST*
D10*
D11*
X6858000Y152400D02*
X6858000Y3403600D01*
X152400Y0D02*
X6705600Y0D01*
X0Y3403600D02*
X0Y152400D01*
X152400Y3556000D02*
X6705600Y3556000D01*
X152400Y3556000D02*
G75*
G03X0Y3403600I0J-152400D01*
G01*
X0Y152400D02*
G75*
G03X152400Y0I152400J0D01*
G01*
X6705600Y0D02*
G75*
G03X6858000Y152400I0J152400D01*
G01*
X6858000Y3403600D02*
G75*
G03X6705600Y3556000I-152400J0D01*
G01*
D12*
X947740Y2687000D02*
X987740Y2647000D01*
X987740Y2687000D02*
X947740Y2647000D01*
X1272860Y1831020D02*
X1312860Y1791020D01*
X1312860Y1831020D02*
X1272860Y1791020D01*
X1326200Y1290000D02*
X1366200Y1250000D01*
X1366200Y1290000D02*
X1326200Y1250000D01*
X1651320Y1828480D02*
X1691320Y1788480D01*
X1691320Y1828480D02*
X1651320Y1788480D01*
X1694500Y2496500D02*
X1734500Y2456500D01*
X1734500Y2496500D02*
X1694500Y2456500D01*
X1727520Y1747200D02*
X1767520Y1707200D01*
X1767520Y1747200D02*
X1727520Y1707200D01*
X1885000Y2750500D02*
X1925000Y2710500D01*
X1925000Y2750500D02*
X1885000Y2710500D01*
X1885000Y1340800D02*
X1925000Y1300800D01*
X1925000Y1340800D02*
X1885000Y1300800D01*
X1900240Y1521140D02*
X1940240Y1481140D01*
X1940240Y1521140D02*
X1900240Y1481140D01*
X1920560Y2171380D02*
X1960560Y2131380D01*
X1960560Y2171380D02*
X1920560Y2131380D01*
X1935800Y2255200D02*
X1975800Y2215200D01*
X1975800Y2255200D02*
X1935800Y2215200D01*
X1951040Y2684460D02*
X1991040Y2644460D01*
X1991040Y2684460D02*
X1951040Y2644460D01*
X2012000Y1086800D02*
X2052000Y1046800D01*
X2052000Y1086800D02*
X2012000Y1046800D01*
X2060260Y2773360D02*
X2100260Y2733360D01*
X2100260Y2773360D02*
X2060260Y2733360D01*
X2172020Y2250120D02*
X2212020Y2210120D01*
X2212020Y2250120D02*
X2172020Y2210120D01*
X2182180Y2420300D02*
X2222180Y2380300D01*
X2222180Y2420300D02*
X2182180Y2380300D01*
X2215200Y1086800D02*
X2255200Y1046800D01*
X2255200Y1086800D02*
X2215200Y1046800D01*
X2243140Y1424620D02*
X2283140Y1384620D01*
X2283140Y1424620D02*
X2243140Y1384620D01*
X2527620Y2140900D02*
X2567620Y2100900D01*
X2567620Y2140900D02*
X2527620Y2100900D01*
X2659700Y1749740D02*
X2699700Y1709740D01*
X2699700Y1749740D02*
X2659700Y1709740D01*
X2687640Y2826700D02*
X2727640Y2786700D01*
X2727640Y2826700D02*
X2687640Y2786700D01*
X2702880Y1582100D02*
X2742880Y1542100D01*
X2742880Y1582100D02*
X2702880Y1542100D01*
X2804480Y1719260D02*
X2844480Y1679260D01*
X2844480Y1719260D02*
X2804480Y1679260D01*
X2901000Y1861500D02*
X2941000Y1821500D01*
X2941000Y1861500D02*
X2901000Y1821500D01*
X2989900Y2941000D02*
X3029900Y2901000D01*
X3029900Y2941000D02*
X2989900Y2901000D01*
X3307400Y1188400D02*
X3347400Y1148400D01*
X3347400Y1188400D02*
X3307400Y1148400D01*
X3487740Y1582100D02*
X3527740Y1542100D01*
X3527740Y1582100D02*
X3487740Y1542100D01*
X4171000Y1988500D02*
X4211000Y1948500D01*
X4211000Y1988500D02*
X4171000Y1948500D01*
X4473260Y1025840D02*
X4513260Y985840D01*
X4513260Y1025840D02*
X4473260Y985840D01*
X4742500Y2369500D02*
X4782500Y2329500D01*
X4782500Y2369500D02*
X4742500Y2329500D01*
X4869500Y2369500D02*
X4909500Y2329500D01*
X4909500Y2369500D02*
X4869500Y2329500D01*
X5187000Y1988500D02*
X5227000Y1948500D01*
X5227000Y1988500D02*
X5187000Y1948500D01*
X5466400Y2610800D02*
X5506400Y2570800D01*
X5506400Y2610800D02*
X5466400Y2570800D01*
X5496880Y1307780D02*
X5536880Y1267780D01*
X5536880Y1307780D02*
X5496880Y1267780D01*
X5501960Y207960D02*
X5541960Y167960D01*
X5541960Y207960D02*
X5501960Y167960D01*
X5504500Y848040D02*
X5544500Y808040D01*
X5544500Y848040D02*
X5504500Y808040D01*
X5507040Y1805620D02*
X5547040Y1765620D01*
X5547040Y1805620D02*
X5507040Y1765620D01*
X6139500Y1988500D02*
X6179500Y1948500D01*
X6179500Y1988500D02*
X6139500Y1948500D01*
X6393500Y3004500D02*
X6433500Y2964500D01*
X6433500Y3004500D02*
X6393500Y2964500D01*
X431000Y3238500D02*
G75*
G03X431000Y3238500I-50000J0D01*
G01*
X431000Y2984500D02*
G75*
G03X431000Y2984500I-50000J0D01*
G01*
X431000Y2730500D02*
G75*
G03X431000Y2730500I-50000J0D01*
G01*
X431000Y2095500D02*
G75*
G03X431000Y2095500I-50000J0D01*
G01*
X431000Y1841500D02*
G75*
G03X431000Y1841500I-50000J0D01*
G01*
X431000Y1206500D02*
G75*
G03X431000Y1206500I-50000J0D01*
G01*
X431000Y952500D02*
G75*
G03X431000Y952500I-50000J0D01*
G01*
X431000Y698500D02*
G75*
G03X431000Y698500I-50000J0D01*
G01*
X431000Y444500D02*
G75*
G03X431000Y444500I-50000J0D01*
G01*
X1066000Y508000D02*
G75*
G03X1066000Y508000I-50000J0D01*
G01*
X1320000Y508000D02*
G75*
G03X1320000Y508000I-50000J0D01*
G01*
X1574000Y508000D02*
G75*
G03X1574000Y508000I-50000J0D01*
G01*
X2272500Y508000D02*
G75*
G03X2272500Y508000I-50000J0D01*
G01*
X2526500Y508000D02*
G75*
G03X2526500Y508000I-50000J0D01*
G01*
X2780500Y508000D02*
G75*
G03X2780500Y508000I-50000J0D01*
G01*
X2907500Y3175000D02*
G75*
G03X2907500Y3175000I-50000J0D01*
G01*
X3161500Y3175000D02*
G75*
G03X3161500Y3175000I-50000J0D01*
G01*
X3415500Y3175000D02*
G75*
G03X3415500Y3175000I-50000J0D01*
G01*
X3479000Y508000D02*
G75*
G03X3479000Y508000I-50000J0D01*
G01*
X3669500Y3175000D02*
G75*
G03X3669500Y3175000I-50000J0D01*
G01*
X3733000Y508000D02*
G75*
G03X3733000Y508000I-50000J0D01*
G01*
X3987000Y508000D02*
G75*
G03X3987000Y508000I-50000J0D01*
G01*
X6527000Y1778000D02*
G75*
G03X6527000Y1778000I-50000J0D01*
G01*
X6527000Y1524000D02*
G75*
G03X6527000Y1524000I-50000J0D01*
G01*
X6527000Y1270000D02*
G75*
G03X6527000Y1270000I-50000J0D01*
G01*
X6527000Y1016000D02*
G75*
G03X6527000Y1016000I-50000J0D01*
G01*
X6527000Y508000D02*
G75*
G03X6527000Y508000I-50000J0D01*
G01*
X6527000Y254000D02*
G75*
G03X6527000Y254000I-50000J0D01*
G01*
D13*
X263929Y-473214D02*
X263929Y-173214D01*
X335357Y-173214D01*
X378214Y-187500D01*
X406786Y-216071D01*
X421071Y-244643D01*
X435357Y-301786D01*
X435357Y-344643D01*
X421071Y-401786D01*
X406786Y-430357D01*
X378214Y-458929D01*
X335357Y-473214D01*
X263929Y-473214D01*
X563929Y-473214D02*
X563929Y-273214D01*
X563929Y-330357D02*
X578214Y-301786D01*
X592500Y-287500D01*
X621071Y-273214D01*
X649643Y-273214D01*
X749643Y-473214D02*
X749643Y-273214D01*
X749643Y-173214D02*
X735357Y-187500D01*
X749643Y-201786D01*
X763928Y-187500D01*
X749643Y-173214D01*
X749643Y-201786D01*
X935357Y-473214D02*
X906786Y-458929D01*
X892500Y-430357D01*
X892500Y-173214D01*
X1092500Y-473214D02*
X1063929Y-458929D01*
X1049643Y-430357D01*
X1049643Y-173214D01*
X1435357Y-473214D02*
X1435357Y-173214D01*
X1535357Y-387500D01*
X1635357Y-173214D01*
X1635357Y-473214D01*
X1906786Y-473214D02*
X1906786Y-316072D01*
X1892500Y-287500D01*
X1863928Y-273214D01*
X1806786Y-273214D01*
X1778214Y-287500D01*
X1906786Y-458929D02*
X1878214Y-473214D01*
X1806786Y-473214D01*
X1778214Y-458929D01*
X1763928Y-430357D01*
X1763928Y-401786D01*
X1778214Y-373214D01*
X1806786Y-358929D01*
X1878214Y-358929D01*
X1906786Y-344643D01*
X2049643Y-273214D02*
X2049643Y-573214D01*
X2049643Y-287500D02*
X2078214Y-273214D01*
X2135357Y-273214D01*
X2163929Y-287500D01*
X2178214Y-301786D01*
X2192500Y-330357D01*
X2192500Y-416071D01*
X2178214Y-444643D01*
X2163929Y-458929D01*
X2135357Y-473214D01*
X2078214Y-473214D01*
X2049643Y-458929D01*
X2321071Y-444643D02*
X2335357Y-458929D01*
X2321071Y-473214D01*
X2306786Y-458929D01*
X2321071Y-444643D01*
X2321071Y-473214D01*
X2321071Y-287500D02*
X2335357Y-301786D01*
X2321071Y-316072D01*
X2306786Y-301786D01*
X2321071Y-287500D01*
X2321071Y-316072D01*
X-47500Y-947500D02*
X-7500Y-987500D01*
X-7500Y-947500D02*
X-47500Y-987500D01*
X321071Y-803214D02*
X349643Y-803214D01*
X378214Y-817500D01*
X392500Y-831786D01*
X406786Y-860357D01*
X421071Y-917500D01*
X421071Y-988929D01*
X406786Y-1046071D01*
X392500Y-1074643D01*
X378214Y-1088929D01*
X349643Y-1103214D01*
X321071Y-1103214D01*
X292500Y-1088929D01*
X278214Y-1074643D01*
X263929Y-1046071D01*
X249643Y-988929D01*
X249643Y-917500D01*
X263929Y-860357D01*
X278214Y-831786D01*
X292500Y-817500D01*
X321071Y-803214D01*
X549643Y-1074643D02*
X563929Y-1088929D01*
X549643Y-1103214D01*
X535357Y-1088929D01*
X549643Y-1074643D01*
X549643Y-1103214D01*
X821071Y-903214D02*
X821071Y-1103214D01*
X749643Y-788929D02*
X678214Y-1003214D01*
X863928Y-1003214D01*
X1035357Y-803214D02*
X1063929Y-803214D01*
X1092500Y-817500D01*
X1106786Y-831786D01*
X1121071Y-860357D01*
X1135357Y-917500D01*
X1135357Y-988929D01*
X1121071Y-1046071D01*
X1106786Y-1074643D01*
X1092500Y-1088929D01*
X1063929Y-1103214D01*
X1035357Y-1103214D01*
X1006786Y-1088929D01*
X992500Y-1074643D01*
X978214Y-1046071D01*
X963928Y-988929D01*
X963928Y-917500D01*
X978214Y-860357D01*
X992500Y-831786D01*
X1006786Y-817500D01*
X1035357Y-803214D01*
X1263929Y-1103214D02*
X1263929Y-903214D01*
X1263929Y-931786D02*
X1278214Y-917500D01*
X1306786Y-903214D01*
X1349643Y-903214D01*
X1378214Y-917500D01*
X1392500Y-946071D01*
X1392500Y-1103214D01*
X1392500Y-946071D02*
X1406786Y-917500D01*
X1435357Y-903214D01*
X1478214Y-903214D01*
X1506786Y-917500D01*
X1521071Y-946071D01*
X1521071Y-1103214D01*
X1663928Y-1103214D02*
X1663928Y-903214D01*
X1663928Y-931786D02*
X1678214Y-917500D01*
X1706786Y-903214D01*
X1749643Y-903214D01*
X1778214Y-917500D01*
X1792500Y-946071D01*
X1792500Y-1103214D01*
X1792500Y-946071D02*
X1806786Y-917500D01*
X1835357Y-903214D01*
X1878214Y-903214D01*
X1906786Y-917500D01*
X1921071Y-946071D01*
X1921071Y-1103214D01*
X2506786Y-788929D02*
X2249643Y-1174643D01*
X2892500Y-803214D02*
X2921071Y-803214D01*
X2949643Y-817500D01*
X2963928Y-831786D01*
X2978214Y-860357D01*
X2992500Y-917500D01*
X2992500Y-988929D01*
X2978214Y-1046071D01*
X2963928Y-1074643D01*
X2949643Y-1088929D01*
X2921071Y-1103214D01*
X2892500Y-1103214D01*
X2863928Y-1088929D01*
X2849643Y-1074643D01*
X2835357Y-1046071D01*
X2821071Y-988929D01*
X2821071Y-917500D01*
X2835357Y-860357D01*
X2849643Y-831786D01*
X2863928Y-817500D01*
X2892500Y-803214D01*
X3121071Y-1074643D02*
X3135357Y-1088929D01*
X3121071Y-1103214D01*
X3106786Y-1088929D01*
X3121071Y-1074643D01*
X3121071Y-1103214D01*
X3321071Y-803214D02*
X3349643Y-803214D01*
X3378214Y-817500D01*
X3392500Y-831786D01*
X3406785Y-860357D01*
X3421071Y-917500D01*
X3421071Y-988929D01*
X3406785Y-1046071D01*
X3392500Y-1074643D01*
X3378214Y-1088929D01*
X3349643Y-1103214D01*
X3321071Y-1103214D01*
X3292500Y-1088929D01*
X3278214Y-1074643D01*
X3263928Y-1046071D01*
X3249643Y-988929D01*
X3249643Y-917500D01*
X3263928Y-860357D01*
X3278214Y-831786D01*
X3292500Y-817500D01*
X3321071Y-803214D01*
X3706785Y-1103214D02*
X3535357Y-1103214D01*
X3621071Y-1103214D02*
X3621071Y-803214D01*
X3592500Y-846071D01*
X3563928Y-874643D01*
X3535357Y-888929D01*
X3963928Y-803214D02*
X3906785Y-803214D01*
X3878214Y-817500D01*
X3863928Y-831786D01*
X3835357Y-874643D01*
X3821071Y-931786D01*
X3821071Y-1046071D01*
X3835357Y-1074643D01*
X3849643Y-1088929D01*
X3878214Y-1103214D01*
X3935357Y-1103214D01*
X3963928Y-1088929D01*
X3978214Y-1074643D01*
X3992500Y-1046071D01*
X3992500Y-974643D01*
X3978214Y-946071D01*
X3963928Y-931786D01*
X3935357Y-917500D01*
X3878214Y-917500D01*
X3849643Y-931786D01*
X3835357Y-946071D01*
X3821071Y-974643D01*
X4106786Y-803214D02*
X4106786Y-860357D01*
X4221071Y-803214D02*
X4221071Y-860357D01*
X4663928Y-1217500D02*
X4649643Y-1203214D01*
X4621071Y-1160357D01*
X4606786Y-1131786D01*
X4592500Y-1088929D01*
X4578214Y-1017500D01*
X4578214Y-960357D01*
X4592500Y-888929D01*
X4606786Y-846071D01*
X4621071Y-817500D01*
X4649643Y-774643D01*
X4663928Y-760357D01*
X4749643Y-803214D02*
X4935357Y-803214D01*
X4835357Y-917500D01*
X4878214Y-917500D01*
X4906786Y-931786D01*
X4921071Y-946071D01*
X4935357Y-974643D01*
X4935357Y-1046071D01*
X4921071Y-1074643D01*
X4906786Y-1088929D01*
X4878214Y-1103214D01*
X4792500Y-1103214D01*
X4763928Y-1088929D01*
X4749643Y-1074643D01*
X5078214Y-1103214D02*
X5135357Y-1103214D01*
X5163928Y-1088929D01*
X5178214Y-1074643D01*
X5206786Y-1031786D01*
X5221071Y-974643D01*
X5221071Y-860357D01*
X5206786Y-831786D01*
X5192500Y-817500D01*
X5163928Y-803214D01*
X5106786Y-803214D01*
X5078214Y-817500D01*
X5063928Y-831786D01*
X5049643Y-860357D01*
X5049643Y-931786D01*
X5063928Y-960357D01*
X5078214Y-974643D01*
X5106786Y-988929D01*
X5163928Y-988929D01*
X5192500Y-974643D01*
X5206786Y-960357D01*
X5221071Y-931786D01*
X5578214Y-1103214D02*
X5578214Y-803214D01*
X5706785Y-1103214D02*
X5706785Y-946071D01*
X5692500Y-917500D01*
X5663928Y-903214D01*
X5621071Y-903214D01*
X5592500Y-917500D01*
X5578214Y-931786D01*
X5892500Y-1103214D02*
X5863928Y-1088929D01*
X5849643Y-1074643D01*
X5835357Y-1046071D01*
X5835357Y-960357D01*
X5849643Y-931786D01*
X5863928Y-917500D01*
X5892500Y-903214D01*
X5935357Y-903214D01*
X5963928Y-917500D01*
X5978214Y-931786D01*
X5992500Y-960357D01*
X5992500Y-1046071D01*
X5978214Y-1074643D01*
X5963928Y-1088929D01*
X5935357Y-1103214D01*
X5892500Y-1103214D01*
X6163928Y-1103214D02*
X6135357Y-1088929D01*
X6121071Y-1060357D01*
X6121071Y-803214D01*
X6392500Y-1088929D02*
X6363928Y-1103214D01*
X6306786Y-1103214D01*
X6278214Y-1088929D01*
X6263928Y-1060357D01*
X6263928Y-946071D01*
X6278214Y-917500D01*
X6306786Y-903214D01*
X6363928Y-903214D01*
X6392500Y-917500D01*
X6406786Y-946071D01*
X6406786Y-974643D01*
X6263928Y-1003214D01*
X6521071Y-1088929D02*
X6549643Y-1103214D01*
X6606786Y-1103214D01*
X6635357Y-1088929D01*
X6649643Y-1060357D01*
X6649643Y-1046071D01*
X6635357Y-1017500D01*
X6606786Y-1003214D01*
X6563928Y-1003214D01*
X6535357Y-988929D01*
X6521071Y-960357D01*
X6521071Y-946071D01*
X6535357Y-917500D01*
X6563928Y-903214D01*
X6606786Y-903214D01*
X6635357Y-917500D01*
X6749643Y-1217500D02*
X6763928Y-1203214D01*
X6792500Y-1160357D01*
X6806786Y-1131786D01*
X6821071Y-1088929D01*
X6835357Y-1017500D01*
X6835357Y-960357D01*
X6821071Y-888929D01*
X6806786Y-846071D01*
X6792500Y-817500D01*
X6763928Y-774643D01*
X6749643Y-760357D01*
X-7500Y-1363500D02*
G75*
G03X-7500Y-1363500I-50000J0D01*
G01*
X421071Y-1499214D02*
X249643Y-1499214D01*
X335357Y-1499214D02*
X335357Y-1199214D01*
X306786Y-1242072D01*
X278214Y-1270643D01*
X249643Y-1284929D01*
X549643Y-1470643D02*
X563929Y-1484929D01*
X549643Y-1499214D01*
X535357Y-1484929D01*
X549643Y-1470643D01*
X549643Y-1499214D01*
X749643Y-1199214D02*
X778214Y-1199214D01*
X806786Y-1213500D01*
X821071Y-1227786D01*
X835357Y-1256357D01*
X849643Y-1313500D01*
X849643Y-1384929D01*
X835357Y-1442071D01*
X821071Y-1470643D01*
X806786Y-1484929D01*
X778214Y-1499214D01*
X749643Y-1499214D01*
X721071Y-1484929D01*
X706786Y-1470643D01*
X692500Y-1442071D01*
X678214Y-1384929D01*
X678214Y-1313500D01*
X692500Y-1256357D01*
X706786Y-1227786D01*
X721071Y-1213500D01*
X749643Y-1199214D01*
X1035357Y-1199214D02*
X1063929Y-1199214D01*
X1092500Y-1213500D01*
X1106786Y-1227786D01*
X1121071Y-1256357D01*
X1135357Y-1313500D01*
X1135357Y-1384929D01*
X1121071Y-1442071D01*
X1106786Y-1470643D01*
X1092500Y-1484929D01*
X1063929Y-1499214D01*
X1035357Y-1499214D01*
X1006786Y-1484929D01*
X992500Y-1470643D01*
X978214Y-1442071D01*
X963928Y-1384929D01*
X963928Y-1313500D01*
X978214Y-1256357D01*
X992500Y-1227786D01*
X1006786Y-1213500D01*
X1035357Y-1199214D01*
X1263929Y-1499214D02*
X1263929Y-1299214D01*
X1263929Y-1327786D02*
X1278214Y-1313500D01*
X1306786Y-1299214D01*
X1349643Y-1299214D01*
X1378214Y-1313500D01*
X1392500Y-1342072D01*
X1392500Y-1499214D01*
X1392500Y-1342072D02*
X1406786Y-1313500D01*
X1435357Y-1299214D01*
X1478214Y-1299214D01*
X1506786Y-1313500D01*
X1521071Y-1342072D01*
X1521071Y-1499214D01*
X1663928Y-1499214D02*
X1663928Y-1299214D01*
X1663928Y-1327786D02*
X1678214Y-1313500D01*
X1706786Y-1299214D01*
X1749643Y-1299214D01*
X1778214Y-1313500D01*
X1792500Y-1342072D01*
X1792500Y-1499214D01*
X1792500Y-1342072D02*
X1806786Y-1313500D01*
X1835357Y-1299214D01*
X1878214Y-1299214D01*
X1906786Y-1313500D01*
X1921071Y-1342072D01*
X1921071Y-1499214D01*
X2506786Y-1184929D02*
X2249643Y-1570643D01*
X2892500Y-1199214D02*
X2921071Y-1199214D01*
X2949643Y-1213500D01*
X2963928Y-1227786D01*
X2978214Y-1256357D01*
X2992500Y-1313500D01*
X2992500Y-1384929D01*
X2978214Y-1442071D01*
X2963928Y-1470643D01*
X2949643Y-1484929D01*
X2921071Y-1499214D01*
X2892500Y-1499214D01*
X2863928Y-1484929D01*
X2849643Y-1470643D01*
X2835357Y-1442071D01*
X2821071Y-1384929D01*
X2821071Y-1313500D01*
X2835357Y-1256357D01*
X2849643Y-1227786D01*
X2863928Y-1213500D01*
X2892500Y-1199214D01*
X3121071Y-1470643D02*
X3135357Y-1484929D01*
X3121071Y-1499214D01*
X3106786Y-1484929D01*
X3121071Y-1470643D01*
X3121071Y-1499214D01*
X3321071Y-1199214D02*
X3349643Y-1199214D01*
X3378214Y-1213500D01*
X3392500Y-1227786D01*
X3406785Y-1256357D01*
X3421071Y-1313500D01*
X3421071Y-1384929D01*
X3406785Y-1442071D01*
X3392500Y-1470643D01*
X3378214Y-1484929D01*
X3349643Y-1499214D01*
X3321071Y-1499214D01*
X3292500Y-1484929D01*
X3278214Y-1470643D01*
X3263928Y-1442071D01*
X3249643Y-1384929D01*
X3249643Y-1313500D01*
X3263928Y-1256357D01*
X3278214Y-1227786D01*
X3292500Y-1213500D01*
X3321071Y-1199214D01*
X3521071Y-1199214D02*
X3706785Y-1199214D01*
X3606785Y-1313500D01*
X3649643Y-1313500D01*
X3678214Y-1327786D01*
X3692500Y-1342072D01*
X3706785Y-1370643D01*
X3706785Y-1442071D01*
X3692500Y-1470643D01*
X3678214Y-1484929D01*
X3649643Y-1499214D01*
X3563928Y-1499214D01*
X3535357Y-1484929D01*
X3521071Y-1470643D01*
X3849643Y-1499214D02*
X3906785Y-1499214D01*
X3935357Y-1484929D01*
X3949643Y-1470643D01*
X3978214Y-1427786D01*
X3992500Y-1370643D01*
X3992500Y-1256357D01*
X3978214Y-1227786D01*
X3963928Y-1213500D01*
X3935357Y-1199214D01*
X3878214Y-1199214D01*
X3849643Y-1213500D01*
X3835357Y-1227786D01*
X3821071Y-1256357D01*
X3821071Y-1327786D01*
X3835357Y-1356357D01*
X3849643Y-1370643D01*
X3878214Y-1384929D01*
X3935357Y-1384929D01*
X3963928Y-1370643D01*
X3978214Y-1356357D01*
X3992500Y-1327786D01*
X4106786Y-1199214D02*
X4106786Y-1256357D01*
X4221071Y-1199214D02*
X4221071Y-1256357D01*
X4663928Y-1613500D02*
X4649643Y-1599214D01*
X4621071Y-1556357D01*
X4606786Y-1527786D01*
X4592500Y-1484929D01*
X4578214Y-1413500D01*
X4578214Y-1356357D01*
X4592500Y-1284929D01*
X4606786Y-1242072D01*
X4621071Y-1213500D01*
X4649643Y-1170643D01*
X4663928Y-1156357D01*
X4763928Y-1227786D02*
X4778214Y-1213500D01*
X4806786Y-1199214D01*
X4878214Y-1199214D01*
X4906786Y-1213500D01*
X4921071Y-1227786D01*
X4935357Y-1256357D01*
X4935357Y-1284929D01*
X4921071Y-1327786D01*
X4749643Y-1499214D01*
X4935357Y-1499214D01*
X5106786Y-1327786D02*
X5078214Y-1313500D01*
X5063928Y-1299214D01*
X5049643Y-1270643D01*
X5049643Y-1256357D01*
X5063928Y-1227786D01*
X5078214Y-1213500D01*
X5106786Y-1199214D01*
X5163928Y-1199214D01*
X5192500Y-1213500D01*
X5206786Y-1227786D01*
X5221071Y-1256357D01*
X5221071Y-1270643D01*
X5206786Y-1299214D01*
X5192500Y-1313500D01*
X5163928Y-1327786D01*
X5106786Y-1327786D01*
X5078214Y-1342072D01*
X5063928Y-1356357D01*
X5049643Y-1384929D01*
X5049643Y-1442071D01*
X5063928Y-1470643D01*
X5078214Y-1484929D01*
X5106786Y-1499214D01*
X5163928Y-1499214D01*
X5192500Y-1484929D01*
X5206786Y-1470643D01*
X5221071Y-1442071D01*
X5221071Y-1384929D01*
X5206786Y-1356357D01*
X5192500Y-1342072D01*
X5163928Y-1327786D01*
X5578214Y-1499214D02*
X5578214Y-1199214D01*
X5706785Y-1499214D02*
X5706785Y-1342072D01*
X5692500Y-1313500D01*
X5663928Y-1299214D01*
X5621071Y-1299214D01*
X5592500Y-1313500D01*
X5578214Y-1327786D01*
X5892500Y-1499214D02*
X5863928Y-1484929D01*
X5849643Y-1470643D01*
X5835357Y-1442071D01*
X5835357Y-1356357D01*
X5849643Y-1327786D01*
X5863928Y-1313500D01*
X5892500Y-1299214D01*
X5935357Y-1299214D01*
X5963928Y-1313500D01*
X5978214Y-1327786D01*
X5992500Y-1356357D01*
X5992500Y-1442071D01*
X5978214Y-1470643D01*
X5963928Y-1484929D01*
X5935357Y-1499214D01*
X5892500Y-1499214D01*
X6163928Y-1499214D02*
X6135357Y-1484929D01*
X6121071Y-1456357D01*
X6121071Y-1199214D01*
X6392500Y-1484929D02*
X6363928Y-1499214D01*
X6306786Y-1499214D01*
X6278214Y-1484929D01*
X6263928Y-1456357D01*
X6263928Y-1342072D01*
X6278214Y-1313500D01*
X6306786Y-1299214D01*
X6363928Y-1299214D01*
X6392500Y-1313500D01*
X6406786Y-1342072D01*
X6406786Y-1370643D01*
X6263928Y-1399214D01*
X6521071Y-1484929D02*
X6549643Y-1499214D01*
X6606786Y-1499214D01*
X6635357Y-1484929D01*
X6649643Y-1456357D01*
X6649643Y-1442071D01*
X6635357Y-1413500D01*
X6606786Y-1399214D01*
X6563928Y-1399214D01*
X6535357Y-1384929D01*
X6521071Y-1356357D01*
X6521071Y-1342072D01*
X6535357Y-1313500D01*
X6563928Y-1299214D01*
X6606786Y-1299214D01*
X6635357Y-1313500D01*
X6749643Y-1613500D02*
X6763928Y-1599214D01*
X6792500Y-1556357D01*
X6806786Y-1527786D01*
X6821071Y-1484929D01*
X6835357Y-1413500D01*
X6835357Y-1356357D01*
X6821071Y-1284929D01*
X6806786Y-1242072D01*
X6792500Y-1213500D01*
X6763928Y-1170643D01*
X6749643Y-1156357D01*
M02*
