M48
;DRILL file {KiCad 4.0.7-e2-6376~58~ubuntu17.04.1} date Mon Oct  2 14:29:23 2017
;FORMAT={-:-/ absolute / metric / decimal}
FMAT,2
METRIC,TZ
T1C0.400
T2C1.000
%
G90
G05
M71
T1
X9.677Y26.67
X12.929Y18.11
X13.462Y12.7
X16.713Y18.085
X17.145Y24.765
X17.475Y17.272
X19.05Y27.305
X19.05Y13.208
X19.202Y15.011
X19.406Y21.514
X19.558Y22.352
X19.71Y26.645
X20.32Y10.668
X20.803Y27.534
X21.92Y22.301
X22.022Y24.003
X22.352Y10.668
X22.631Y14.046
X25.476Y21.209
X26.797Y17.297
X27.076Y28.067
X27.229Y15.621
X28.245Y16.993
X29.21Y18.415
X30.099Y29.21
X33.274Y11.684
X35.077Y15.621
X41.91Y19.685
X44.933Y10.058
X47.625Y23.495
X48.895Y23.495
X52.07Y19.685
X54.864Y25.908
X55.169Y12.878
X55.22Y1.88
X55.245Y8.28
X55.27Y17.856
X61.595Y19.685
X64.135Y29.845
T2
X3.81Y32.385
X3.81Y29.845
X3.81Y27.305
X3.81Y20.955
X3.81Y18.415
X3.81Y12.065
X3.81Y9.525
X3.81Y6.985
X3.81Y4.445
X10.16Y5.08
X12.7Y5.08
X15.24Y5.08
X22.225Y5.08
X24.765Y5.08
X27.305Y5.08
X28.575Y31.75
X31.115Y31.75
X33.655Y31.75
X34.29Y5.08
X36.195Y31.75
X36.83Y5.08
X39.37Y5.08
X64.77Y17.78
X64.77Y15.24
X64.77Y12.7
X64.77Y10.16
X64.77Y5.08
X64.77Y2.54
T0
M30
