%TF.GenerationSoftware,KiCad,Pcbnew,4.0.7-e2-6376~58~ubuntu17.04.1*%
%TF.CreationDate,2017-10-02T14:32:41+02:00*%
%TF.ProjectId,motion_led_pcb,6D6F74696F6E5F6C65645F7063622E6B,rev?*%
%TF.FileFunction,Soldermask,Top*%
%FSLAX46Y46*%
G04 Gerber Fmt 4.6, Leading zero omitted, Abs format (unit mm)*
G04 Created by KiCad (PCBNEW 4.0.7-e2-6376~58~ubuntu17.04.1) date Mon Oct  2 14:32:41 2017*
%MOMM*%
%LPD*%
G01*
G04 APERTURE LIST*
%ADD10C,0.100000*%
%ADD11C,0.010000*%
%ADD12R,2.000000X2.400000*%
%ADD13R,2.400000X2.000000*%
%ADD14R,2.900000X4.400000*%
%ADD15R,2.100000X2.400000*%
%ADD16R,2.100000X2.100000*%
%ADD17O,2.100000X2.100000*%
%ADD18R,1.700000X1.900000*%
%ADD19R,2.200000X2.200000*%
%ADD20O,2.200000X2.200000*%
%ADD21R,2.400000X2.100000*%
%ADD22R,4.200000X2.400000*%
%ADD23R,1.900000X2.400000*%
G04 APERTURE END LIST*
D10*
D11*
G36*
X46253400Y6138747D02*
X46253400Y6684059D01*
X46454787Y6485279D01*
X46817691Y6155571D01*
X47091815Y5941151D01*
X47195400Y5862703D01*
X47315529Y5768144D01*
X47439202Y5668050D01*
X47553419Y5572998D01*
X47645181Y5493566D01*
X47672760Y5468468D01*
X47760212Y5387036D01*
X47851356Y5456994D01*
X48040604Y5592436D01*
X48180050Y5679978D01*
X48262286Y5734848D01*
X48341612Y5796124D01*
X48347607Y5801273D01*
X48430581Y5870222D01*
X48533137Y5950747D01*
X48643288Y6033942D01*
X48749047Y6110902D01*
X48838425Y6172719D01*
X48895547Y6208376D01*
X48948596Y6243457D01*
X49027062Y6301986D01*
X49118252Y6373820D01*
X49209472Y6448815D01*
X49288032Y6516828D01*
X49327020Y6553200D01*
X49353081Y6577089D01*
X49400406Y6619363D01*
X49409570Y6627477D01*
X49479200Y6689055D01*
X49479200Y5562600D01*
X49400923Y5562600D01*
X49324395Y5545837D01*
X49219149Y5498607D01*
X49093239Y5425493D01*
X48954716Y5331081D01*
X48840533Y5243542D01*
X48748313Y5172268D01*
X48657269Y5106947D01*
X48584535Y5059777D01*
X48573833Y5053671D01*
X48507434Y5013629D01*
X48459284Y4978342D01*
X48450500Y4969699D01*
X48411816Y4935138D01*
X48355250Y4894915D01*
X48307093Y4857226D01*
X48285487Y4826715D01*
X48285400Y4825414D01*
X48310091Y4816538D01*
X48381381Y4809418D01*
X48495092Y4804264D01*
X48647044Y4801283D01*
X48781961Y4800600D01*
X48961263Y4801284D01*
X49097270Y4803695D01*
X49197475Y4808375D01*
X49269369Y4815863D01*
X49320443Y4826698D01*
X49358188Y4841421D01*
X49359811Y4842244D01*
X49419491Y4877717D01*
X49457618Y4909223D01*
X49459761Y4912094D01*
X49465323Y4896597D01*
X49470262Y4837247D01*
X49474312Y4740986D01*
X49477207Y4614759D01*
X49478682Y4465511D01*
X49478811Y4413794D01*
X49479200Y3887289D01*
X49409350Y3916968D01*
X49350758Y3945141D01*
X49315370Y3967224D01*
X49286142Y3971057D01*
X49210781Y3974657D01*
X49093951Y3977959D01*
X48940317Y3980896D01*
X48754546Y3983399D01*
X48541302Y3985404D01*
X48305251Y3986842D01*
X48051059Y3987647D01*
X47879290Y3987799D01*
X47575311Y3987741D01*
X47317912Y3987470D01*
X47102874Y3986846D01*
X46925978Y3985726D01*
X46783004Y3983969D01*
X46669733Y3981433D01*
X46581945Y3977976D01*
X46515421Y3973457D01*
X46465941Y3967733D01*
X46429286Y3960662D01*
X46401237Y3952104D01*
X46377574Y3941916D01*
X46367699Y3936999D01*
X46305869Y3906244D01*
X46266660Y3888190D01*
X46260729Y3886199D01*
X46258507Y3910335D01*
X46256556Y3977688D01*
X46254984Y4080672D01*
X46253901Y4211706D01*
X46253415Y4363205D01*
X46253400Y4396917D01*
X46253664Y4570060D01*
X46254831Y4698629D01*
X46257464Y4788846D01*
X46262123Y4846937D01*
X46269372Y4879124D01*
X46279772Y4891632D01*
X46293885Y4890686D01*
X46297850Y4889164D01*
X46386673Y4855805D01*
X46475181Y4831739D01*
X46574141Y4815580D01*
X46694321Y4805942D01*
X46846488Y4801440D01*
X46986088Y4800600D01*
X47405904Y4800599D01*
X47332900Y4876799D01*
X47282557Y4924413D01*
X47245278Y4950994D01*
X47238483Y4953000D01*
X47212550Y4968137D01*
X47159128Y5007628D01*
X47089145Y5062588D01*
X47013529Y5124132D01*
X46943209Y5183377D01*
X46889114Y5231439D01*
X46863000Y5258239D01*
X46835734Y5280561D01*
X46779630Y5318936D01*
X46736000Y5346802D01*
X46648298Y5405005D01*
X46561698Y5467951D01*
X46533362Y5490299D01*
X46466736Y5535013D01*
X46405643Y5560408D01*
X46389390Y5562600D01*
X46345677Y5563122D01*
X46312502Y5568791D01*
X46288412Y5585762D01*
X46271955Y5620189D01*
X46261677Y5678226D01*
X46256127Y5766028D01*
X46253851Y5889750D01*
X46253396Y6055545D01*
X46253400Y6138747D01*
X46253400Y6138747D01*
G37*
X46253400Y6138747D02*
X46253400Y6684059D01*
X46454787Y6485279D01*
X46817691Y6155571D01*
X47091815Y5941151D01*
X47195400Y5862703D01*
X47315529Y5768144D01*
X47439202Y5668050D01*
X47553419Y5572998D01*
X47645181Y5493566D01*
X47672760Y5468468D01*
X47760212Y5387036D01*
X47851356Y5456994D01*
X48040604Y5592436D01*
X48180050Y5679978D01*
X48262286Y5734848D01*
X48341612Y5796124D01*
X48347607Y5801273D01*
X48430581Y5870222D01*
X48533137Y5950747D01*
X48643288Y6033942D01*
X48749047Y6110902D01*
X48838425Y6172719D01*
X48895547Y6208376D01*
X48948596Y6243457D01*
X49027062Y6301986D01*
X49118252Y6373820D01*
X49209472Y6448815D01*
X49288032Y6516828D01*
X49327020Y6553200D01*
X49353081Y6577089D01*
X49400406Y6619363D01*
X49409570Y6627477D01*
X49479200Y6689055D01*
X49479200Y5562600D01*
X49400923Y5562600D01*
X49324395Y5545837D01*
X49219149Y5498607D01*
X49093239Y5425493D01*
X48954716Y5331081D01*
X48840533Y5243542D01*
X48748313Y5172268D01*
X48657269Y5106947D01*
X48584535Y5059777D01*
X48573833Y5053671D01*
X48507434Y5013629D01*
X48459284Y4978342D01*
X48450500Y4969699D01*
X48411816Y4935138D01*
X48355250Y4894915D01*
X48307093Y4857226D01*
X48285487Y4826715D01*
X48285400Y4825414D01*
X48310091Y4816538D01*
X48381381Y4809418D01*
X48495092Y4804264D01*
X48647044Y4801283D01*
X48781961Y4800600D01*
X48961263Y4801284D01*
X49097270Y4803695D01*
X49197475Y4808375D01*
X49269369Y4815863D01*
X49320443Y4826698D01*
X49358188Y4841421D01*
X49359811Y4842244D01*
X49419491Y4877717D01*
X49457618Y4909223D01*
X49459761Y4912094D01*
X49465323Y4896597D01*
X49470262Y4837247D01*
X49474312Y4740986D01*
X49477207Y4614759D01*
X49478682Y4465511D01*
X49478811Y4413794D01*
X49479200Y3887289D01*
X49409350Y3916968D01*
X49350758Y3945141D01*
X49315370Y3967224D01*
X49286142Y3971057D01*
X49210781Y3974657D01*
X49093951Y3977959D01*
X48940317Y3980896D01*
X48754546Y3983399D01*
X48541302Y3985404D01*
X48305251Y3986842D01*
X48051059Y3987647D01*
X47879290Y3987799D01*
X47575311Y3987741D01*
X47317912Y3987470D01*
X47102874Y3986846D01*
X46925978Y3985726D01*
X46783004Y3983969D01*
X46669733Y3981433D01*
X46581945Y3977976D01*
X46515421Y3973457D01*
X46465941Y3967733D01*
X46429286Y3960662D01*
X46401237Y3952104D01*
X46377574Y3941916D01*
X46367699Y3936999D01*
X46305869Y3906244D01*
X46266660Y3888190D01*
X46260729Y3886199D01*
X46258507Y3910335D01*
X46256556Y3977688D01*
X46254984Y4080672D01*
X46253901Y4211706D01*
X46253415Y4363205D01*
X46253400Y4396917D01*
X46253664Y4570060D01*
X46254831Y4698629D01*
X46257464Y4788846D01*
X46262123Y4846937D01*
X46269372Y4879124D01*
X46279772Y4891632D01*
X46293885Y4890686D01*
X46297850Y4889164D01*
X46386673Y4855805D01*
X46475181Y4831739D01*
X46574141Y4815580D01*
X46694321Y4805942D01*
X46846488Y4801440D01*
X46986088Y4800600D01*
X47405904Y4800599D01*
X47332900Y4876799D01*
X47282557Y4924413D01*
X47245278Y4950994D01*
X47238483Y4953000D01*
X47212550Y4968137D01*
X47159128Y5007628D01*
X47089145Y5062588D01*
X47013529Y5124132D01*
X46943209Y5183377D01*
X46889114Y5231439D01*
X46863000Y5258239D01*
X46835734Y5280561D01*
X46779630Y5318936D01*
X46736000Y5346802D01*
X46648298Y5405005D01*
X46561698Y5467951D01*
X46533362Y5490299D01*
X46466736Y5535013D01*
X46405643Y5560408D01*
X46389390Y5562600D01*
X46345677Y5563122D01*
X46312502Y5568791D01*
X46288412Y5585762D01*
X46271955Y5620189D01*
X46261677Y5678226D01*
X46256127Y5766028D01*
X46253851Y5889750D01*
X46253396Y6055545D01*
X46253400Y6138747D01*
G36*
X48217045Y7721600D02*
X48488528Y7721821D01*
X48713618Y7722583D01*
X48896721Y7724026D01*
X49042240Y7726294D01*
X49154583Y7729531D01*
X49238155Y7733878D01*
X49297359Y7739480D01*
X49336603Y7746478D01*
X49360292Y7755016D01*
X49366395Y7758892D01*
X49403943Y7785178D01*
X49432085Y7795891D01*
X49452174Y7785710D01*
X49465563Y7749312D01*
X49473605Y7681376D01*
X49477653Y7576578D01*
X49479060Y7429598D01*
X49479200Y7315200D01*
X49478515Y7164918D01*
X49476608Y7033727D01*
X49473702Y6929427D01*
X49470017Y6859819D01*
X49465776Y6832705D01*
X49465488Y6832600D01*
X49436454Y6843155D01*
X49379509Y6869726D01*
X49352200Y6883400D01*
X49324760Y6896266D01*
X49294394Y6906759D01*
X49255920Y6915120D01*
X49204155Y6921591D01*
X49133918Y6926411D01*
X49040027Y6929822D01*
X48917301Y6932065D01*
X48760559Y6933381D01*
X48564617Y6934010D01*
X48324296Y6934195D01*
X48259750Y6934200D01*
X48002269Y6933947D01*
X47790749Y6933071D01*
X47620351Y6931396D01*
X47486238Y6928748D01*
X47383571Y6924950D01*
X47307513Y6919827D01*
X47253226Y6913203D01*
X47215872Y6904903D01*
X47191938Y6895447D01*
X47117000Y6856695D01*
X47117000Y7721600D01*
X48217045Y7721600D01*
X48217045Y7721600D01*
G37*
X48217045Y7721600D02*
X48488528Y7721821D01*
X48713618Y7722583D01*
X48896721Y7724026D01*
X49042240Y7726294D01*
X49154583Y7729531D01*
X49238155Y7733878D01*
X49297359Y7739480D01*
X49336603Y7746478D01*
X49360292Y7755016D01*
X49366395Y7758892D01*
X49403943Y7785178D01*
X49432085Y7795891D01*
X49452174Y7785710D01*
X49465563Y7749312D01*
X49473605Y7681376D01*
X49477653Y7576578D01*
X49479060Y7429598D01*
X49479200Y7315200D01*
X49478515Y7164918D01*
X49476608Y7033727D01*
X49473702Y6929427D01*
X49470017Y6859819D01*
X49465776Y6832705D01*
X49465488Y6832600D01*
X49436454Y6843155D01*
X49379509Y6869726D01*
X49352200Y6883400D01*
X49324760Y6896266D01*
X49294394Y6906759D01*
X49255920Y6915120D01*
X49204155Y6921591D01*
X49133918Y6926411D01*
X49040027Y6929822D01*
X48917301Y6932065D01*
X48760559Y6933381D01*
X48564617Y6934010D01*
X48324296Y6934195D01*
X48259750Y6934200D01*
X48002269Y6933947D01*
X47790749Y6933071D01*
X47620351Y6931396D01*
X47486238Y6928748D01*
X47383571Y6924950D01*
X47307513Y6919827D01*
X47253226Y6913203D01*
X47215872Y6904903D01*
X47191938Y6895447D01*
X47117000Y6856695D01*
X47117000Y7721600D01*
X48217045Y7721600D01*
G36*
X45350960Y7480941D02*
X45417395Y7598545D01*
X45520045Y7692023D01*
X45606124Y7735812D01*
X45744614Y7766422D01*
X45882591Y7757321D01*
X46004084Y7709973D01*
X46022850Y7697588D01*
X46110408Y7607149D01*
X46170553Y7488271D01*
X46200418Y7355333D01*
X46197134Y7222713D01*
X46157832Y7104790D01*
X46145244Y7084006D01*
X46066394Y7001737D01*
X45957770Y6933914D01*
X45840295Y6891747D01*
X45770799Y6883400D01*
X45661575Y6902674D01*
X45547110Y6953190D01*
X45448158Y7023982D01*
X45399295Y7079642D01*
X45338876Y7211861D01*
X45323776Y7348837D01*
X45350960Y7480941D01*
X45350960Y7480941D01*
G37*
X45350960Y7480941D02*
X45417395Y7598545D01*
X45520045Y7692023D01*
X45606124Y7735812D01*
X45744614Y7766422D01*
X45882591Y7757321D01*
X46004084Y7709973D01*
X46022850Y7697588D01*
X46110408Y7607149D01*
X46170553Y7488271D01*
X46200418Y7355333D01*
X46197134Y7222713D01*
X46157832Y7104790D01*
X46145244Y7084006D01*
X46066394Y7001737D01*
X45957770Y6933914D01*
X45840295Y6891747D01*
X45770799Y6883400D01*
X45661575Y6902674D01*
X45547110Y6953190D01*
X45448158Y7023982D01*
X45399295Y7079642D01*
X45338876Y7211861D01*
X45323776Y7348837D01*
X45350960Y7480941D01*
D12*
X15240000Y23590000D03*
X15240000Y19590000D03*
D13*
X24860000Y29210000D03*
X20860000Y29210000D03*
D12*
X30480000Y19590000D03*
X30480000Y23590000D03*
X15240000Y11970000D03*
X15240000Y15970000D03*
D13*
X20860000Y13970000D03*
X24860000Y13970000D03*
D14*
X61595000Y23305000D03*
X61595000Y31305000D03*
D13*
X52165000Y21590000D03*
X48165000Y21590000D03*
D14*
X39370000Y19495000D03*
X39370000Y27495000D03*
D13*
X57245000Y1905000D03*
X53245000Y1905000D03*
X57245000Y17780000D03*
X53245000Y17780000D03*
X57245000Y8255000D03*
X53245000Y8255000D03*
D15*
X43180000Y10065000D03*
X43180000Y14065000D03*
D16*
X3810000Y12065000D03*
D17*
X3810000Y9525000D03*
X3810000Y6985000D03*
X3810000Y4445000D03*
D16*
X36195000Y31750000D03*
D17*
X33655000Y31750000D03*
X31115000Y31750000D03*
X28575000Y31750000D03*
D16*
X3810000Y32385000D03*
D17*
X3810000Y29845000D03*
X3810000Y27305000D03*
D16*
X64770000Y17780000D03*
D17*
X64770000Y15240000D03*
X64770000Y12700000D03*
X64770000Y10160000D03*
D18*
X17780000Y15320000D03*
X17780000Y12620000D03*
D19*
X39370000Y5080000D03*
D20*
X36830000Y5080000D03*
X34290000Y5080000D03*
D19*
X27305000Y5080000D03*
D20*
X24765000Y5080000D03*
X22225000Y5080000D03*
D19*
X15240000Y5080000D03*
D20*
X12700000Y5080000D03*
X10160000Y5080000D03*
D15*
X11430000Y19590000D03*
X11430000Y23590000D03*
X15240000Y27845000D03*
X15240000Y31845000D03*
D16*
X3810000Y20955000D03*
D17*
X3810000Y18415000D03*
D15*
X11430000Y15970000D03*
X11430000Y11970000D03*
D21*
X57245000Y14605000D03*
X53245000Y14605000D03*
X57245000Y11430000D03*
X53245000Y11430000D03*
X34830000Y13970000D03*
X38830000Y13970000D03*
X53245000Y5080000D03*
X57245000Y5080000D03*
D10*
G36*
X17468311Y19627779D02*
X17008692Y20087398D01*
X18210773Y21289479D01*
X18670392Y20829860D01*
X17468311Y19627779D01*
X17468311Y19627779D01*
G37*
G36*
X17821864Y19274226D02*
X17362245Y19733845D01*
X18564326Y20935926D01*
X19023945Y20476307D01*
X17821864Y19274226D01*
X17821864Y19274226D01*
G37*
G36*
X18175418Y18920672D02*
X17715799Y19380291D01*
X18917880Y20582372D01*
X19377499Y20122753D01*
X18175418Y18920672D01*
X18175418Y18920672D01*
G37*
G36*
X18528971Y18567119D02*
X18069352Y19026738D01*
X19271433Y20228819D01*
X19731052Y19769200D01*
X18528971Y18567119D01*
X18528971Y18567119D01*
G37*
G36*
X18882524Y18213566D02*
X18422905Y18673185D01*
X19624986Y19875266D01*
X20084605Y19415647D01*
X18882524Y18213566D01*
X18882524Y18213566D01*
G37*
G36*
X19236078Y17860012D02*
X18776459Y18319631D01*
X19978540Y19521712D01*
X20438159Y19062093D01*
X19236078Y17860012D01*
X19236078Y17860012D01*
G37*
G36*
X19589631Y17506459D02*
X19130012Y17966078D01*
X20332093Y19168159D01*
X20791712Y18708540D01*
X19589631Y17506459D01*
X19589631Y17506459D01*
G37*
G36*
X19943185Y17152905D02*
X19483566Y17612524D01*
X20685647Y18814605D01*
X21145266Y18354986D01*
X19943185Y17152905D01*
X19943185Y17152905D01*
G37*
G36*
X20296738Y16799352D02*
X19837119Y17258971D01*
X21039200Y18461052D01*
X21498819Y18001433D01*
X20296738Y16799352D01*
X20296738Y16799352D01*
G37*
G36*
X20650291Y16445799D02*
X20190672Y16905418D01*
X21392753Y18107499D01*
X21852372Y17647880D01*
X20650291Y16445799D01*
X20650291Y16445799D01*
G37*
G36*
X21003845Y16092245D02*
X20544226Y16551864D01*
X21746307Y17753945D01*
X22205926Y17294326D01*
X21003845Y16092245D01*
X21003845Y16092245D01*
G37*
G36*
X21357398Y15738692D02*
X20897779Y16198311D01*
X22099860Y17400392D01*
X22559479Y16940773D01*
X21357398Y15738692D01*
X21357398Y15738692D01*
G37*
G36*
X24822221Y16198311D02*
X24362602Y15738692D01*
X23160521Y16940773D01*
X23620140Y17400392D01*
X24822221Y16198311D01*
X24822221Y16198311D01*
G37*
G36*
X25175774Y16551864D02*
X24716155Y16092245D01*
X23514074Y17294326D01*
X23973693Y17753945D01*
X25175774Y16551864D01*
X25175774Y16551864D01*
G37*
G36*
X25529328Y16905418D02*
X25069709Y16445799D01*
X23867628Y17647880D01*
X24327247Y18107499D01*
X25529328Y16905418D01*
X25529328Y16905418D01*
G37*
G36*
X25882881Y17258971D02*
X25423262Y16799352D01*
X24221181Y18001433D01*
X24680800Y18461052D01*
X25882881Y17258971D01*
X25882881Y17258971D01*
G37*
G36*
X26236434Y17612524D02*
X25776815Y17152905D01*
X24574734Y18354986D01*
X25034353Y18814605D01*
X26236434Y17612524D01*
X26236434Y17612524D01*
G37*
G36*
X26589988Y17966078D02*
X26130369Y17506459D01*
X24928288Y18708540D01*
X25387907Y19168159D01*
X26589988Y17966078D01*
X26589988Y17966078D01*
G37*
G36*
X26943541Y18319631D02*
X26483922Y17860012D01*
X25281841Y19062093D01*
X25741460Y19521712D01*
X26943541Y18319631D01*
X26943541Y18319631D01*
G37*
G36*
X27297095Y18673185D02*
X26837476Y18213566D01*
X25635395Y19415647D01*
X26095014Y19875266D01*
X27297095Y18673185D01*
X27297095Y18673185D01*
G37*
G36*
X27650648Y19026738D02*
X27191029Y18567119D01*
X25988948Y19769200D01*
X26448567Y20228819D01*
X27650648Y19026738D01*
X27650648Y19026738D01*
G37*
G36*
X28004201Y19380291D02*
X27544582Y18920672D01*
X26342501Y20122753D01*
X26802120Y20582372D01*
X28004201Y19380291D01*
X28004201Y19380291D01*
G37*
G36*
X28357755Y19733845D02*
X27898136Y19274226D01*
X26696055Y20476307D01*
X27155674Y20935926D01*
X28357755Y19733845D01*
X28357755Y19733845D01*
G37*
G36*
X28711308Y20087398D02*
X28251689Y19627779D01*
X27049608Y20829860D01*
X27509227Y21289479D01*
X28711308Y20087398D01*
X28711308Y20087398D01*
G37*
G36*
X27509227Y21890521D02*
X27049608Y22350140D01*
X28251689Y23552221D01*
X28711308Y23092602D01*
X27509227Y21890521D01*
X27509227Y21890521D01*
G37*
G36*
X27155674Y22244074D02*
X26696055Y22703693D01*
X27898136Y23905774D01*
X28357755Y23446155D01*
X27155674Y22244074D01*
X27155674Y22244074D01*
G37*
G36*
X26802120Y22597628D02*
X26342501Y23057247D01*
X27544582Y24259328D01*
X28004201Y23799709D01*
X26802120Y22597628D01*
X26802120Y22597628D01*
G37*
G36*
X26448567Y22951181D02*
X25988948Y23410800D01*
X27191029Y24612881D01*
X27650648Y24153262D01*
X26448567Y22951181D01*
X26448567Y22951181D01*
G37*
G36*
X26095014Y23304734D02*
X25635395Y23764353D01*
X26837476Y24966434D01*
X27297095Y24506815D01*
X26095014Y23304734D01*
X26095014Y23304734D01*
G37*
G36*
X25741460Y23658288D02*
X25281841Y24117907D01*
X26483922Y25319988D01*
X26943541Y24860369D01*
X25741460Y23658288D01*
X25741460Y23658288D01*
G37*
G36*
X25387907Y24011841D02*
X24928288Y24471460D01*
X26130369Y25673541D01*
X26589988Y25213922D01*
X25387907Y24011841D01*
X25387907Y24011841D01*
G37*
G36*
X25034353Y24365395D02*
X24574734Y24825014D01*
X25776815Y26027095D01*
X26236434Y25567476D01*
X25034353Y24365395D01*
X25034353Y24365395D01*
G37*
G36*
X24680800Y24718948D02*
X24221181Y25178567D01*
X25423262Y26380648D01*
X25882881Y25921029D01*
X24680800Y24718948D01*
X24680800Y24718948D01*
G37*
G36*
X24327247Y25072501D02*
X23867628Y25532120D01*
X25069709Y26734201D01*
X25529328Y26274582D01*
X24327247Y25072501D01*
X24327247Y25072501D01*
G37*
G36*
X23973693Y25426055D02*
X23514074Y25885674D01*
X24716155Y27087755D01*
X25175774Y26628136D01*
X23973693Y25426055D01*
X23973693Y25426055D01*
G37*
G36*
X23620140Y25779608D02*
X23160521Y26239227D01*
X24362602Y27441308D01*
X24822221Y26981689D01*
X23620140Y25779608D01*
X23620140Y25779608D01*
G37*
G36*
X22559479Y26239227D02*
X22099860Y25779608D01*
X20897779Y26981689D01*
X21357398Y27441308D01*
X22559479Y26239227D01*
X22559479Y26239227D01*
G37*
G36*
X22205926Y25885674D02*
X21746307Y25426055D01*
X20544226Y26628136D01*
X21003845Y27087755D01*
X22205926Y25885674D01*
X22205926Y25885674D01*
G37*
G36*
X21852372Y25532120D02*
X21392753Y25072501D01*
X20190672Y26274582D01*
X20650291Y26734201D01*
X21852372Y25532120D01*
X21852372Y25532120D01*
G37*
G36*
X21498819Y25178567D02*
X21039200Y24718948D01*
X19837119Y25921029D01*
X20296738Y26380648D01*
X21498819Y25178567D01*
X21498819Y25178567D01*
G37*
G36*
X21145266Y24825014D02*
X20685647Y24365395D01*
X19483566Y25567476D01*
X19943185Y26027095D01*
X21145266Y24825014D01*
X21145266Y24825014D01*
G37*
G36*
X20791712Y24471460D02*
X20332093Y24011841D01*
X19130012Y25213922D01*
X19589631Y25673541D01*
X20791712Y24471460D01*
X20791712Y24471460D01*
G37*
G36*
X20438159Y24117907D02*
X19978540Y23658288D01*
X18776459Y24860369D01*
X19236078Y25319988D01*
X20438159Y24117907D01*
X20438159Y24117907D01*
G37*
G36*
X20084605Y23764353D02*
X19624986Y23304734D01*
X18422905Y24506815D01*
X18882524Y24966434D01*
X20084605Y23764353D01*
X20084605Y23764353D01*
G37*
G36*
X19731052Y23410800D02*
X19271433Y22951181D01*
X18069352Y24153262D01*
X18528971Y24612881D01*
X19731052Y23410800D01*
X19731052Y23410800D01*
G37*
G36*
X19377499Y23057247D02*
X18917880Y22597628D01*
X17715799Y23799709D01*
X18175418Y24259328D01*
X19377499Y23057247D01*
X19377499Y23057247D01*
G37*
G36*
X19023945Y22703693D02*
X18564326Y22244074D01*
X17362245Y23446155D01*
X17821864Y23905774D01*
X19023945Y22703693D01*
X19023945Y22703693D01*
G37*
G36*
X18670392Y22350140D02*
X18210773Y21890521D01*
X17008692Y23092602D01*
X17468311Y23552221D01*
X18670392Y22350140D01*
X18670392Y22350140D01*
G37*
D22*
X50165000Y31725000D03*
D23*
X50165000Y25425000D03*
X52465000Y25425000D03*
X47865000Y25425000D03*
D16*
X64770000Y5080000D03*
D17*
X64770000Y2540000D03*
D12*
X11430000Y27845000D03*
X11430000Y31845000D03*
D13*
X27845000Y13970000D03*
X31845000Y13970000D03*
M02*
