%TF.GenerationSoftware,KiCad,Pcbnew,4.0.7-e2-6376~58~ubuntu17.04.1*%
%TF.CreationDate,2017-10-02T14:32:41+02:00*%
%TF.ProjectId,motion_led_pcb,6D6F74696F6E5F6C65645F7063622E6B,rev?*%
%TF.FileFunction,Legend,Top*%
%FSLAX46Y46*%
G04 Gerber Fmt 4.6, Leading zero omitted, Abs format (unit mm)*
G04 Created by KiCad (PCBNEW 4.0.7-e2-6376~58~ubuntu17.04.1) date Mon Oct  2 14:32:41 2017*
%MOMM*%
%LPD*%
G01*
G04 APERTURE LIST*
%ADD10C,0.100000*%
%ADD11C,0.150000*%
%ADD12C,0.200000*%
%ADD13C,0.300000*%
%ADD14C,0.120000*%
%ADD15C,0.010000*%
G04 APERTURE END LIST*
D10*
X34950571Y29902095D02*
X35217238Y29102095D01*
X35483905Y29902095D01*
X36207714Y29102095D02*
X35941047Y29483048D01*
X35750571Y29102095D02*
X35750571Y29902095D01*
X36055333Y29902095D01*
X36131524Y29864000D01*
X36169619Y29825905D01*
X36207714Y29749714D01*
X36207714Y29635429D01*
X36169619Y29559238D01*
X36131524Y29521143D01*
X36055333Y29483048D01*
X35750571Y29483048D01*
X36550571Y29521143D02*
X36817238Y29521143D01*
X36931524Y29102095D02*
X36550571Y29102095D01*
X36550571Y29902095D01*
X36931524Y29902095D01*
X37541048Y29521143D02*
X37274381Y29521143D01*
X37274381Y29102095D02*
X37274381Y29902095D01*
X37655334Y29902095D01*
D11*
X33973238Y25355048D02*
X34025619Y25512191D01*
X34025619Y25774095D01*
X33973238Y25878857D01*
X33920857Y25931238D01*
X33816095Y25983619D01*
X33711333Y25983619D01*
X33606571Y25931238D01*
X33554190Y25878857D01*
X33501810Y25774095D01*
X33449429Y25564572D01*
X33397048Y25459810D01*
X33344667Y25407429D01*
X33239905Y25355048D01*
X33135143Y25355048D01*
X33030381Y25407429D01*
X32978000Y25459810D01*
X32925619Y25564572D01*
X32925619Y25826476D01*
X32978000Y25983619D01*
X32925619Y26350286D02*
X34025619Y26612191D01*
X33239905Y26821714D01*
X34025619Y27031238D01*
X32925619Y27293143D01*
X34025619Y27712191D02*
X32925619Y27712191D01*
X32925619Y27974096D01*
X32978000Y28131238D01*
X33082762Y28236000D01*
X33187524Y28288381D01*
X33397048Y28340762D01*
X33554190Y28340762D01*
X33763714Y28288381D01*
X33868476Y28236000D01*
X33973238Y28131238D01*
X34025619Y27974096D01*
X34025619Y27712191D01*
X34025619Y28812191D02*
X32925619Y28812191D01*
X32925619Y29545525D02*
X32925619Y29755048D01*
X32978000Y29859810D01*
X33082762Y29964572D01*
X33292286Y30016953D01*
X33658952Y30016953D01*
X33868476Y29964572D01*
X33973238Y29859810D01*
X34025619Y29755048D01*
X34025619Y29545525D01*
X33973238Y29440763D01*
X33868476Y29336001D01*
X33658952Y29283620D01*
X33292286Y29283620D01*
X33082762Y29336001D01*
X32978000Y29440763D01*
X32925619Y29545525D01*
X31687238Y25197905D02*
X31739619Y25355048D01*
X31739619Y25616952D01*
X31687238Y25721714D01*
X31634857Y25774095D01*
X31530095Y25826476D01*
X31425333Y25826476D01*
X31320571Y25774095D01*
X31268190Y25721714D01*
X31215810Y25616952D01*
X31163429Y25407429D01*
X31111048Y25302667D01*
X31058667Y25250286D01*
X30953905Y25197905D01*
X30849143Y25197905D01*
X30744381Y25250286D01*
X30692000Y25302667D01*
X30639619Y25407429D01*
X30639619Y25669333D01*
X30692000Y25826476D01*
X30639619Y26193143D02*
X31739619Y26455048D01*
X30953905Y26664571D01*
X31739619Y26874095D01*
X30639619Y27136000D01*
X31634857Y28183619D02*
X31687238Y28131238D01*
X31739619Y27974095D01*
X31739619Y27869333D01*
X31687238Y27712191D01*
X31582476Y27607429D01*
X31477714Y27555048D01*
X31268190Y27502667D01*
X31111048Y27502667D01*
X30901524Y27555048D01*
X30796762Y27607429D01*
X30692000Y27712191D01*
X30639619Y27869333D01*
X30639619Y27974095D01*
X30692000Y28131238D01*
X30744381Y28183619D01*
X31739619Y29178857D02*
X31739619Y28655048D01*
X30639619Y28655048D01*
X31739619Y29545524D02*
X30639619Y29545524D01*
X31739619Y30174095D02*
X31111048Y29702667D01*
X30639619Y30174095D02*
X31268190Y29545524D01*
X30511143Y33590762D02*
X30668286Y33538381D01*
X30930190Y33538381D01*
X31034952Y33590762D01*
X31087333Y33643143D01*
X31139714Y33747905D01*
X31139714Y33852667D01*
X31087333Y33957429D01*
X31034952Y34009810D01*
X30930190Y34062190D01*
X30720667Y34114571D01*
X30615905Y34166952D01*
X30563524Y34219333D01*
X30511143Y34324095D01*
X30511143Y34428857D01*
X30563524Y34533619D01*
X30615905Y34586000D01*
X30720667Y34638381D01*
X30982571Y34638381D01*
X31139714Y34586000D01*
X31506381Y34638381D02*
X31768286Y33538381D01*
X31977809Y34324095D01*
X32187333Y33538381D01*
X32449238Y34638381D01*
X32868286Y33538381D02*
X32868286Y34638381D01*
X33130191Y34638381D01*
X33287333Y34586000D01*
X33392095Y34481238D01*
X33444476Y34376476D01*
X33496857Y34166952D01*
X33496857Y34009810D01*
X33444476Y33800286D01*
X33392095Y33695524D01*
X33287333Y33590762D01*
X33130191Y33538381D01*
X32868286Y33538381D01*
X27898000Y27609905D02*
X27845619Y27505143D01*
X27845619Y27348000D01*
X27898000Y27190858D01*
X28002762Y27086096D01*
X28107524Y27033715D01*
X28317048Y26981334D01*
X28474190Y26981334D01*
X28683714Y27033715D01*
X28788476Y27086096D01*
X28893238Y27190858D01*
X28945619Y27348000D01*
X28945619Y27452762D01*
X28893238Y27609905D01*
X28840857Y27662286D01*
X28474190Y27662286D01*
X28474190Y27452762D01*
X28945619Y28133715D02*
X27845619Y28133715D01*
X28945619Y28762286D01*
X27845619Y28762286D01*
X28945619Y29286096D02*
X27845619Y29286096D01*
X27845619Y29548001D01*
X27898000Y29705143D01*
X28002762Y29809905D01*
X28107524Y29862286D01*
X28317048Y29914667D01*
X28474190Y29914667D01*
X28683714Y29862286D01*
X28788476Y29809905D01*
X28893238Y29705143D01*
X28945619Y29548001D01*
X28945619Y29286096D01*
X6428571Y4650571D02*
X6585714Y4598190D01*
X6638095Y4545810D01*
X6690476Y4441048D01*
X6690476Y4283905D01*
X6638095Y4179143D01*
X6585714Y4126762D01*
X6480952Y4074381D01*
X6061905Y4074381D01*
X6061905Y5174381D01*
X6428571Y5174381D01*
X6533333Y5122000D01*
X6585714Y5069619D01*
X6638095Y4964857D01*
X6638095Y4860095D01*
X6585714Y4755333D01*
X6533333Y4702952D01*
X6428571Y4650571D01*
X6061905Y4650571D01*
X6638095Y7408000D02*
X6533333Y7460381D01*
X6376190Y7460381D01*
X6219048Y7408000D01*
X6114286Y7303238D01*
X6061905Y7198476D01*
X6009524Y6988952D01*
X6009524Y6831810D01*
X6061905Y6622286D01*
X6114286Y6517524D01*
X6219048Y6412762D01*
X6376190Y6360381D01*
X6480952Y6360381D01*
X6638095Y6412762D01*
X6690476Y6465143D01*
X6690476Y6831810D01*
X6480952Y6831810D01*
X6690476Y8900381D02*
X6323810Y9424190D01*
X6061905Y8900381D02*
X6061905Y10000381D01*
X6480952Y10000381D01*
X6585714Y9948000D01*
X6638095Y9895619D01*
X6690476Y9790857D01*
X6690476Y9633714D01*
X6638095Y9528952D01*
X6585714Y9476571D01*
X6480952Y9424190D01*
X6061905Y9424190D01*
X6177048Y11440381D02*
X5548477Y11440381D01*
X5862763Y11440381D02*
X5862763Y12540381D01*
X5758001Y12383238D01*
X5653239Y12278476D01*
X5548477Y12226095D01*
X6596096Y12435619D02*
X6648477Y12488000D01*
X6753239Y12540381D01*
X7015143Y12540381D01*
X7119905Y12488000D01*
X7172286Y12435619D01*
X7224667Y12330857D01*
X7224667Y12226095D01*
X7172286Y12068952D01*
X6543715Y11440381D01*
X7224667Y11440381D01*
X7538953Y12540381D02*
X7905620Y11440381D01*
X8272286Y12540381D01*
X6177048Y31760381D02*
X5548477Y31760381D01*
X5862763Y31760381D02*
X5862763Y32860381D01*
X5758001Y32703238D01*
X5653239Y32598476D01*
X5548477Y32546095D01*
X6596096Y32755619D02*
X6648477Y32808000D01*
X6753239Y32860381D01*
X7015143Y32860381D01*
X7119905Y32808000D01*
X7172286Y32755619D01*
X7224667Y32650857D01*
X7224667Y32546095D01*
X7172286Y32388952D01*
X6543715Y31760381D01*
X7224667Y31760381D01*
X7538953Y32860381D02*
X7905620Y31760381D01*
X8272286Y32860381D01*
X6281810Y29220381D02*
X6281810Y30320381D01*
X7015144Y30320381D02*
X7224667Y30320381D01*
X7329429Y30268000D01*
X7434191Y30163238D01*
X7486572Y29953714D01*
X7486572Y29587048D01*
X7434191Y29377524D01*
X7329429Y29272762D01*
X7224667Y29220381D01*
X7015144Y29220381D01*
X6910382Y29272762D01*
X6805620Y29377524D01*
X6753239Y29587048D01*
X6753239Y29953714D01*
X6805620Y30163238D01*
X6910382Y30268000D01*
X7015144Y30320381D01*
X6019905Y27728000D02*
X5915143Y27780381D01*
X5758000Y27780381D01*
X5600858Y27728000D01*
X5496096Y27623238D01*
X5443715Y27518476D01*
X5391334Y27308952D01*
X5391334Y27151810D01*
X5443715Y26942286D01*
X5496096Y26837524D01*
X5600858Y26732762D01*
X5758000Y26680381D01*
X5862762Y26680381D01*
X6019905Y26732762D01*
X6072286Y26785143D01*
X6072286Y27151810D01*
X5862762Y27151810D01*
X6543715Y26680381D02*
X6543715Y27780381D01*
X7172286Y26680381D01*
X7172286Y27780381D01*
X7696096Y26680381D02*
X7696096Y27780381D01*
X7958001Y27780381D01*
X8115143Y27728000D01*
X8219905Y27623238D01*
X8272286Y27518476D01*
X8324667Y27308952D01*
X8324667Y27151810D01*
X8272286Y26942286D01*
X8219905Y26837524D01*
X8115143Y26732762D01*
X7958001Y26680381D01*
X7696096Y26680381D01*
X60794953Y2207429D02*
X61633048Y2207429D01*
X60794953Y5001429D02*
X61633048Y5001429D01*
X61214000Y4582381D02*
X61214000Y5420476D01*
X60271143Y9714762D02*
X60428286Y9662381D01*
X60690190Y9662381D01*
X60794952Y9714762D01*
X60847333Y9767143D01*
X60899714Y9871905D01*
X60899714Y9976667D01*
X60847333Y10081429D01*
X60794952Y10133810D01*
X60690190Y10186190D01*
X60480667Y10238571D01*
X60375905Y10290952D01*
X60323524Y10343333D01*
X60271143Y10448095D01*
X60271143Y10552857D01*
X60323524Y10657619D01*
X60375905Y10710000D01*
X60480667Y10762381D01*
X60742571Y10762381D01*
X60899714Y10710000D01*
X61266381Y10762381D02*
X61528286Y9662381D01*
X61737809Y10448095D01*
X61947333Y9662381D01*
X62209238Y10762381D01*
X61292571Y12778571D02*
X61449714Y12726190D01*
X61502095Y12673810D01*
X61554476Y12569048D01*
X61554476Y12411905D01*
X61502095Y12307143D01*
X61449714Y12254762D01*
X61344952Y12202381D01*
X60925905Y12202381D01*
X60925905Y13302381D01*
X61292571Y13302381D01*
X61397333Y13250000D01*
X61449714Y13197619D01*
X61502095Y13092857D01*
X61502095Y12988095D01*
X61449714Y12883333D01*
X61397333Y12830952D01*
X61292571Y12778571D01*
X60925905Y12778571D01*
X60952096Y15056667D02*
X61475905Y15056667D01*
X60847334Y14742381D02*
X61214001Y15842381D01*
X61580667Y14742381D01*
X60375905Y18330000D02*
X60271143Y18382381D01*
X60114000Y18382381D01*
X59956858Y18330000D01*
X59852096Y18225238D01*
X59799715Y18120476D01*
X59747334Y17910952D01*
X59747334Y17753810D01*
X59799715Y17544286D01*
X59852096Y17439524D01*
X59956858Y17334762D01*
X60114000Y17282381D01*
X60218762Y17282381D01*
X60375905Y17334762D01*
X60428286Y17387143D01*
X60428286Y17753810D01*
X60218762Y17753810D01*
X60899715Y17282381D02*
X60899715Y18382381D01*
X61528286Y17282381D01*
X61528286Y18382381D01*
X62052096Y17282381D02*
X62052096Y18382381D01*
X62314001Y18382381D01*
X62471143Y18330000D01*
X62575905Y18225238D01*
X62628286Y18120476D01*
X62680667Y17910952D01*
X62680667Y17753810D01*
X62628286Y17544286D01*
X62575905Y17439524D01*
X62471143Y17334762D01*
X62314001Y17282381D01*
X62052096Y17282381D01*
D12*
X20828000Y8636000D02*
X23876000Y8636000D01*
X20828000Y10922000D02*
X23876000Y10922000D01*
X39878000Y8636000D02*
X36068000Y8636000D01*
X36068000Y10922000D02*
X39878000Y10922000D01*
X39878000Y8636000D02*
X39878000Y10922000D01*
X23622000Y8636000D02*
X36068000Y8636000D01*
X20828000Y10922000D02*
X20828000Y8636000D01*
X36068000Y10922000D02*
X23622000Y10922000D01*
D13*
X22110087Y9100429D02*
X21610087Y9814714D01*
X21252944Y9100429D02*
X21252944Y10600429D01*
X21824372Y10600429D01*
X21967230Y10529000D01*
X22038658Y10457571D01*
X22110087Y10314714D01*
X22110087Y10100429D01*
X22038658Y9957571D01*
X21967230Y9886143D01*
X21824372Y9814714D01*
X21252944Y9814714D01*
X23324372Y9171857D02*
X23181515Y9100429D01*
X22895801Y9100429D01*
X22752944Y9171857D01*
X22681515Y9314714D01*
X22681515Y9886143D01*
X22752944Y10029000D01*
X22895801Y10100429D01*
X23181515Y10100429D01*
X23324372Y10029000D01*
X23395801Y9886143D01*
X23395801Y9743286D01*
X22681515Y9600429D01*
X23824372Y10100429D02*
X24395801Y10100429D01*
X24038658Y10600429D02*
X24038658Y9314714D01*
X24110086Y9171857D01*
X24252944Y9100429D01*
X24395801Y9100429D01*
X24895801Y9100429D02*
X24895801Y10100429D01*
X24895801Y10600429D02*
X24824372Y10529000D01*
X24895801Y10457571D01*
X24967229Y10529000D01*
X24895801Y10600429D01*
X24895801Y10457571D01*
X25610087Y10100429D02*
X25610087Y9100429D01*
X25610087Y9957571D02*
X25681515Y10029000D01*
X25824373Y10100429D01*
X26038658Y10100429D01*
X26181515Y10029000D01*
X26252944Y9886143D01*
X26252944Y9100429D01*
X27610087Y9100429D02*
X27610087Y9886143D01*
X27538658Y10029000D01*
X27395801Y10100429D01*
X27110087Y10100429D01*
X26967230Y10029000D01*
X27610087Y9171857D02*
X27467230Y9100429D01*
X27110087Y9100429D01*
X26967230Y9171857D01*
X26895801Y9314714D01*
X26895801Y9457571D01*
X26967230Y9600429D01*
X27110087Y9671857D01*
X27467230Y9671857D01*
X27610087Y9743286D01*
X29181516Y9243286D02*
X29110087Y9171857D01*
X28895801Y9100429D01*
X28752944Y9100429D01*
X28538659Y9171857D01*
X28395801Y9314714D01*
X28324373Y9457571D01*
X28252944Y9743286D01*
X28252944Y9957571D01*
X28324373Y10243286D01*
X28395801Y10386143D01*
X28538659Y10529000D01*
X28752944Y10600429D01*
X28895801Y10600429D01*
X29110087Y10529000D01*
X29181516Y10457571D01*
X30467230Y9100429D02*
X30467230Y9886143D01*
X30395801Y10029000D01*
X30252944Y10100429D01*
X29967230Y10100429D01*
X29824373Y10029000D01*
X30467230Y9171857D02*
X30324373Y9100429D01*
X29967230Y9100429D01*
X29824373Y9171857D01*
X29752944Y9314714D01*
X29752944Y9457571D01*
X29824373Y9600429D01*
X29967230Y9671857D01*
X30324373Y9671857D01*
X30467230Y9743286D01*
X31181516Y9100429D02*
X31181516Y10100429D01*
X31181516Y9814714D02*
X31252944Y9957571D01*
X31324373Y10029000D01*
X31467230Y10100429D01*
X31610087Y10100429D01*
X32681515Y9171857D02*
X32538658Y9100429D01*
X32252944Y9100429D01*
X32110087Y9171857D01*
X32038658Y9314714D01*
X32038658Y9886143D01*
X32110087Y10029000D01*
X32252944Y10100429D01*
X32538658Y10100429D01*
X32681515Y10029000D01*
X32752944Y9886143D01*
X32752944Y9743286D01*
X32038658Y9600429D01*
X34395801Y10100429D02*
X34752944Y9100429D01*
X35110086Y10100429D01*
X36467229Y9100429D02*
X35610086Y9100429D01*
X36038658Y9100429D02*
X36038658Y10600429D01*
X35895801Y10386143D01*
X35752943Y10243286D01*
X35610086Y10171857D01*
X37110086Y9243286D02*
X37181514Y9171857D01*
X37110086Y9100429D01*
X37038657Y9171857D01*
X37110086Y9243286D01*
X37110086Y9100429D01*
X38110086Y10600429D02*
X38252943Y10600429D01*
X38395800Y10529000D01*
X38467229Y10457571D01*
X38538658Y10314714D01*
X38610086Y10029000D01*
X38610086Y9671857D01*
X38538658Y9386143D01*
X38467229Y9243286D01*
X38395800Y9171857D01*
X38252943Y9100429D01*
X38110086Y9100429D01*
X37967229Y9171857D01*
X37895800Y9243286D01*
X37824372Y9386143D01*
X37752943Y9671857D01*
X37752943Y10029000D01*
X37824372Y10314714D01*
X37895800Y10457571D01*
X37967229Y10529000D01*
X38110086Y10600429D01*
D14*
X16260000Y20590000D02*
X16260000Y22590000D01*
X14220000Y22590000D02*
X14220000Y20590000D01*
X21860000Y28190000D02*
X23860000Y28190000D01*
X23860000Y30230000D02*
X21860000Y30230000D01*
X29460000Y22590000D02*
X29460000Y20590000D01*
X31500000Y20590000D02*
X31500000Y22590000D01*
X14220000Y14970000D02*
X14220000Y12970000D01*
X16260000Y12970000D02*
X16260000Y14970000D01*
X23860000Y14990000D02*
X21860000Y14990000D01*
X21860000Y12950000D02*
X23860000Y12950000D01*
X57145000Y22095000D02*
X60035000Y22095000D01*
X66045000Y22095000D02*
X63155000Y22095000D01*
X66805000Y32515000D02*
X63155000Y32515000D01*
X56385000Y32515000D02*
X60035000Y32515000D01*
X66805000Y32515000D02*
X66805000Y22855000D01*
X66805000Y22855000D02*
X66045000Y22095000D01*
X57145000Y22095000D02*
X56385000Y22855000D01*
X56385000Y22855000D02*
X56385000Y32515000D01*
X49165000Y20570000D02*
X51165000Y20570000D01*
X51165000Y22610000D02*
X49165000Y22610000D01*
X34920000Y18285000D02*
X37810000Y18285000D01*
X43820000Y18285000D02*
X40930000Y18285000D01*
X44580000Y28705000D02*
X40930000Y28705000D01*
X34160000Y28705000D02*
X37810000Y28705000D01*
X44580000Y28705000D02*
X44580000Y19045000D01*
X44580000Y19045000D02*
X43820000Y18285000D01*
X34920000Y18285000D02*
X34160000Y19045000D01*
X34160000Y19045000D02*
X34160000Y28705000D01*
X54245000Y885000D02*
X56245000Y885000D01*
X56245000Y2925000D02*
X54245000Y2925000D01*
X54245000Y16760000D02*
X56245000Y16760000D01*
X56245000Y18800000D02*
X54245000Y18800000D01*
X54245000Y7235000D02*
X56245000Y7235000D01*
X56245000Y9275000D02*
X54245000Y9275000D01*
X42230000Y8965000D02*
X44130000Y8965000D01*
X44130000Y8965000D02*
X44130000Y13665000D01*
X42230000Y8965000D02*
X42230000Y13665000D01*
X2480000Y3115000D02*
X5140000Y3115000D01*
X2480000Y10795000D02*
X2480000Y3115000D01*
X5140000Y10795000D02*
X5140000Y3115000D01*
X2480000Y10795000D02*
X5140000Y10795000D01*
X2480000Y12065000D02*
X2480000Y13395000D01*
X2480000Y13395000D02*
X3810000Y13395000D01*
X27245000Y33080000D02*
X27245000Y30420000D01*
X34925000Y33080000D02*
X27245000Y33080000D01*
X34925000Y30420000D02*
X27245000Y30420000D01*
X34925000Y33080000D02*
X34925000Y30420000D01*
X36195000Y33080000D02*
X37525000Y33080000D01*
X37525000Y33080000D02*
X37525000Y31750000D01*
X2480000Y25975000D02*
X5140000Y25975000D01*
X2480000Y31115000D02*
X2480000Y25975000D01*
X5140000Y31115000D02*
X5140000Y25975000D01*
X2480000Y31115000D02*
X5140000Y31115000D01*
X2480000Y32385000D02*
X2480000Y33715000D01*
X2480000Y33715000D02*
X3810000Y33715000D01*
X63440000Y8830000D02*
X66100000Y8830000D01*
X63440000Y16510000D02*
X63440000Y8830000D01*
X66100000Y16510000D02*
X66100000Y8830000D01*
X63440000Y16510000D02*
X66100000Y16510000D01*
X63440000Y17780000D02*
X63440000Y19110000D01*
X63440000Y19110000D02*
X64770000Y19110000D01*
X16900000Y13370000D02*
X16900000Y14570000D01*
X18660000Y14570000D02*
X18660000Y13370000D01*
X41950000Y2460000D02*
X31710000Y2460000D01*
X41950000Y7101000D02*
X31710000Y7101000D01*
X41950000Y2460000D02*
X41950000Y7101000D01*
X31710000Y2460000D02*
X31710000Y7101000D01*
X41950000Y3970000D02*
X31710000Y3970000D01*
X38680000Y2460000D02*
X38680000Y3970000D01*
X34979000Y2460000D02*
X34979000Y3970000D01*
X29885000Y2460000D02*
X19645000Y2460000D01*
X29885000Y7101000D02*
X19645000Y7101000D01*
X29885000Y2460000D02*
X29885000Y7101000D01*
X19645000Y2460000D02*
X19645000Y7101000D01*
X29885000Y3970000D02*
X19645000Y3970000D01*
X26615000Y2460000D02*
X26615000Y3970000D01*
X22914000Y2460000D02*
X22914000Y3970000D01*
X17820000Y2460000D02*
X7580000Y2460000D01*
X17820000Y7101000D02*
X7580000Y7101000D01*
X17820000Y2460000D02*
X17820000Y7101000D01*
X7580000Y2460000D02*
X7580000Y7101000D01*
X17820000Y3970000D02*
X7580000Y3970000D01*
X14550000Y2460000D02*
X14550000Y3970000D01*
X10849000Y2460000D02*
X10849000Y3970000D01*
X12500000Y22590000D02*
X12500000Y20590000D01*
X10360000Y20590000D02*
X10360000Y22590000D01*
X16310000Y30845000D02*
X16310000Y28845000D01*
X14170000Y28845000D02*
X14170000Y30845000D01*
X2480000Y17085000D02*
X5140000Y17085000D01*
X2480000Y19685000D02*
X2480000Y17085000D01*
X5140000Y19685000D02*
X5140000Y17085000D01*
X2480000Y19685000D02*
X5140000Y19685000D01*
X2480000Y20955000D02*
X2480000Y22285000D01*
X2480000Y22285000D02*
X3810000Y22285000D01*
X10360000Y12970000D02*
X10360000Y14970000D01*
X12500000Y14970000D02*
X12500000Y12970000D01*
X54245000Y15675000D02*
X56245000Y15675000D01*
X56245000Y13535000D02*
X54245000Y13535000D01*
X54245000Y12500000D02*
X56245000Y12500000D01*
X56245000Y10360000D02*
X54245000Y10360000D01*
X37830000Y12900000D02*
X35830000Y12900000D01*
X35830000Y15040000D02*
X37830000Y15040000D01*
X56245000Y4010000D02*
X54245000Y4010000D01*
X54245000Y6150000D02*
X56245000Y6150000D01*
D11*
X17733476Y21590000D02*
X18051674Y21271802D01*
X22860000Y26716524D02*
X23231231Y26345293D01*
X27986524Y21590000D02*
X27615293Y21961231D01*
X22860000Y16463476D02*
X22488769Y16834707D01*
X17733476Y21590000D02*
X18104707Y21961231D01*
X22860000Y16463476D02*
X23231231Y16834707D01*
X27986524Y21590000D02*
X27615293Y21218769D01*
X22860000Y26716524D02*
X22488769Y26345293D01*
X18051674Y21271802D02*
X17079402Y20299530D01*
D14*
X53575000Y30485000D02*
X52315000Y30485000D01*
X46755000Y30485000D02*
X48015000Y30485000D01*
X53575000Y26725000D02*
X53575000Y30485000D01*
X46755000Y24475000D02*
X46755000Y30485000D01*
X63440000Y1210000D02*
X66100000Y1210000D01*
X63440000Y3810000D02*
X63440000Y1210000D01*
X66100000Y3810000D02*
X66100000Y1210000D01*
X63440000Y3810000D02*
X66100000Y3810000D01*
X63440000Y5080000D02*
X63440000Y6410000D01*
X63440000Y6410000D02*
X64770000Y6410000D01*
X10410000Y30845000D02*
X10410000Y28845000D01*
X12450000Y28845000D02*
X12450000Y30845000D01*
X30845000Y14990000D02*
X28845000Y14990000D01*
X28845000Y12950000D02*
X30845000Y12950000D01*
D15*
G36*
X45667699Y7976363D02*
X45674976Y7998155D01*
X45691420Y8016586D01*
X45720197Y8031935D01*
X45764474Y8044481D01*
X45827418Y8054505D01*
X45912194Y8062283D01*
X46021971Y8068096D01*
X46159914Y8072223D01*
X46329191Y8074943D01*
X46532968Y8076535D01*
X46774411Y8077277D01*
X47056687Y8077450D01*
X47382964Y8077332D01*
X47756407Y8077203D01*
X47815500Y8077200D01*
X48190884Y8077122D01*
X48518711Y8076849D01*
X48802221Y8076318D01*
X49044658Y8075469D01*
X49249261Y8074240D01*
X49419274Y8072569D01*
X49557939Y8070395D01*
X49668496Y8067657D01*
X49754188Y8064292D01*
X49818257Y8060241D01*
X49863944Y8055441D01*
X49894492Y8049831D01*
X49913141Y8043349D01*
X49921885Y8037285D01*
X49928992Y8026209D01*
X49935213Y8006001D01*
X49940606Y7973490D01*
X49945229Y7925503D01*
X49949140Y7858867D01*
X49952396Y7770410D01*
X49955056Y7656960D01*
X49957175Y7515344D01*
X49958813Y7342390D01*
X49960028Y7134924D01*
X49960876Y6889776D01*
X49961415Y6603771D01*
X49961703Y6273739D01*
X49961798Y5896505D01*
X49961800Y5841999D01*
X49961726Y5458176D01*
X49961467Y5121980D01*
X49960965Y4830239D01*
X49960162Y4579781D01*
X49959000Y4367432D01*
X49957422Y4190021D01*
X49955371Y4044375D01*
X49952787Y3927322D01*
X49949615Y3835688D01*
X49945795Y3766303D01*
X49941271Y3715992D01*
X49935985Y3681584D01*
X49929879Y3659907D01*
X49922895Y3647787D01*
X49921885Y3646714D01*
X49910627Y3639465D01*
X49890152Y3633138D01*
X49857219Y3627672D01*
X49808586Y3623006D01*
X49741011Y3619078D01*
X49651252Y3615826D01*
X49536068Y3613190D01*
X49392217Y3611107D01*
X49216456Y3609517D01*
X49005544Y3608358D01*
X48756239Y3607568D01*
X48465300Y3607086D01*
X48129484Y3606851D01*
X47815500Y3606800D01*
X47440115Y3606877D01*
X47112288Y3607150D01*
X46828778Y3607681D01*
X46586341Y3608530D01*
X46381738Y3609759D01*
X46260729Y3610948D01*
X46260729Y3886199D01*
X46285638Y3896637D01*
X46339844Y3922944D01*
X46367699Y3936999D01*
X46390774Y3947932D01*
X46416420Y3957174D01*
X46448859Y3964867D01*
X46492308Y3971152D01*
X46550988Y3976172D01*
X46629117Y3980068D01*
X46730917Y3982983D01*
X46860605Y3985057D01*
X47022401Y3986434D01*
X47220525Y3987254D01*
X47459197Y3987659D01*
X47742635Y3987791D01*
X47879290Y3987799D01*
X48142726Y3987439D01*
X48391037Y3986402D01*
X48619556Y3984756D01*
X48823618Y3982568D01*
X48998558Y3979903D01*
X49139711Y3976830D01*
X49242410Y3973415D01*
X49301991Y3969724D01*
X49315370Y3967224D01*
X49355136Y3942800D01*
X49409350Y3916968D01*
X49479200Y3887289D01*
X49478811Y4413794D01*
X49477849Y4568967D01*
X49475381Y4703350D01*
X49471674Y4809999D01*
X49466992Y4881970D01*
X49461600Y4912319D01*
X49459761Y4912094D01*
X49425826Y4882145D01*
X49367626Y4846332D01*
X49359811Y4842244D01*
X49322521Y4827318D01*
X49272267Y4816307D01*
X49201556Y4808669D01*
X49102898Y4803866D01*
X48968800Y4801356D01*
X48791772Y4800601D01*
X48781961Y4800600D01*
X48604347Y4801833D01*
X48461876Y4805396D01*
X48358727Y4811078D01*
X48299078Y4818672D01*
X48285400Y4825414D01*
X48304770Y4854914D01*
X48351744Y4892641D01*
X48355250Y4894915D01*
X48412268Y4935493D01*
X48450500Y4969699D01*
X48487632Y5000147D01*
X48549966Y5040083D01*
X48573833Y5053671D01*
X48640930Y5095820D01*
X48729720Y5158527D01*
X48823064Y5229592D01*
X48840533Y5243542D01*
X48983344Y5351661D01*
X49119967Y5442138D01*
X49242349Y5510389D01*
X49342440Y5551831D01*
X49400923Y5562600D01*
X49479200Y5562600D01*
X49479200Y6689055D01*
X49465488Y6676929D01*
X49465488Y6832600D01*
X49469757Y6856699D01*
X49473485Y6923796D01*
X49476448Y7026089D01*
X49478426Y7155778D01*
X49479196Y7305061D01*
X49479200Y7315200D01*
X49478408Y7491967D01*
X49475806Y7623101D01*
X49471056Y7713747D01*
X49463818Y7769050D01*
X49453752Y7794156D01*
X49447450Y7796992D01*
X49403554Y7782038D01*
X49366395Y7758892D01*
X49347692Y7749698D01*
X49315195Y7742102D01*
X49264498Y7735959D01*
X49191196Y7731127D01*
X49090883Y7727464D01*
X48959154Y7724826D01*
X48791604Y7723070D01*
X48583827Y7722053D01*
X48331418Y7721633D01*
X48217045Y7721600D01*
X47117000Y7721600D01*
X47117000Y6856695D01*
X47191938Y6895447D01*
X47217815Y6905478D01*
X47256092Y6913667D01*
X47311607Y6920192D01*
X47389197Y6925226D01*
X47493700Y6928947D01*
X47629954Y6931529D01*
X47802797Y6933148D01*
X48017067Y6933979D01*
X48259750Y6934200D01*
X48511440Y6934086D01*
X48717511Y6933585D01*
X48883147Y6932455D01*
X49013527Y6930455D01*
X49113835Y6927345D01*
X49189251Y6922883D01*
X49244957Y6916829D01*
X49286135Y6908941D01*
X49317967Y6898979D01*
X49345635Y6886701D01*
X49352200Y6883400D01*
X49415636Y6852490D01*
X49458110Y6834480D01*
X49465488Y6832600D01*
X49465488Y6676929D01*
X49409570Y6627477D01*
X49360266Y6583555D01*
X49329290Y6555373D01*
X49327020Y6553200D01*
X49263905Y6495445D01*
X49179689Y6423963D01*
X49087065Y6348897D01*
X48998725Y6280391D01*
X48927361Y6228588D01*
X48895547Y6208376D01*
X48831584Y6168155D01*
X48740299Y6104662D01*
X48633680Y6026804D01*
X48523715Y5943487D01*
X48422390Y5863617D01*
X48347607Y5801273D01*
X48270548Y5740829D01*
X48186943Y5684159D01*
X48180050Y5679978D01*
X47981936Y5552637D01*
X47851356Y5456994D01*
X47760212Y5387036D01*
X47672760Y5468468D01*
X47593661Y5538660D01*
X47486892Y5628715D01*
X47365451Y5728057D01*
X47242339Y5826107D01*
X47130555Y5912289D01*
X47091815Y5941151D01*
X46711892Y6245941D01*
X46454787Y6485279D01*
X46253400Y6684059D01*
X46253400Y6138747D01*
X46253523Y5953550D01*
X46254861Y5812998D01*
X46258867Y5710937D01*
X46266993Y5641212D01*
X46280691Y5597669D01*
X46301416Y5574153D01*
X46330618Y5564511D01*
X46369751Y5562586D01*
X46389390Y5562600D01*
X46442842Y5547012D01*
X46510121Y5507941D01*
X46533362Y5490299D01*
X46610668Y5431652D01*
X46701586Y5368890D01*
X46736000Y5346802D01*
X46802764Y5303552D01*
X46849931Y5269912D01*
X46863000Y5258239D01*
X46892339Y5228445D01*
X46948018Y5179245D01*
X47019108Y5119522D01*
X47094681Y5058162D01*
X47163808Y5004047D01*
X47215561Y4966063D01*
X47238483Y4953000D01*
X47267974Y4936182D01*
X47315717Y4894146D01*
X47332900Y4876799D01*
X47405904Y4800599D01*
X46986088Y4800600D01*
X46803302Y4802193D01*
X46660476Y4807895D01*
X46546840Y4819093D01*
X46451629Y4837172D01*
X46364075Y4863518D01*
X46297850Y4889164D01*
X46282771Y4892394D01*
X46271538Y4883649D01*
X46263591Y4856705D01*
X46258367Y4805338D01*
X46255303Y4723324D01*
X46253838Y4604439D01*
X46253410Y4442460D01*
X46253400Y4396917D01*
X46253746Y4242083D01*
X46254712Y4106122D01*
X46256190Y3996617D01*
X46258071Y3921151D01*
X46260245Y3887308D01*
X46260729Y3886199D01*
X46260729Y3610948D01*
X46211725Y3611430D01*
X46073060Y3613604D01*
X45962503Y3616342D01*
X45876811Y3619707D01*
X45812742Y3623758D01*
X45767055Y3628558D01*
X45736507Y3634168D01*
X45717858Y3640650D01*
X45709114Y3646714D01*
X45700934Y3659178D01*
X45693938Y3681437D01*
X45688034Y3717191D01*
X45683133Y3770141D01*
X45679144Y3843988D01*
X45675978Y3942431D01*
X45673544Y4069173D01*
X45671752Y4227913D01*
X45670511Y4422353D01*
X45669733Y4656193D01*
X45669326Y4933135D01*
X45669200Y5256878D01*
X45669200Y6883400D01*
X45765418Y6883400D01*
X45881335Y6903479D01*
X46000000Y6956525D01*
X46100991Y7031754D01*
X46145244Y7084006D01*
X46192370Y7197546D01*
X46202636Y7328500D01*
X46178918Y7462628D01*
X46124089Y7585690D01*
X46041023Y7683448D01*
X46021147Y7698800D01*
X45920428Y7745806D01*
X45804877Y7767439D01*
X45669199Y7778690D01*
X45669200Y7888030D01*
X45667977Y7921580D01*
X45666421Y7950931D01*
X45667699Y7976363D01*
X45667699Y7976363D01*
G37*
X45667699Y7976363D02*
X45674976Y7998155D01*
X45691420Y8016586D01*
X45720197Y8031935D01*
X45764474Y8044481D01*
X45827418Y8054505D01*
X45912194Y8062283D01*
X46021971Y8068096D01*
X46159914Y8072223D01*
X46329191Y8074943D01*
X46532968Y8076535D01*
X46774411Y8077277D01*
X47056687Y8077450D01*
X47382964Y8077332D01*
X47756407Y8077203D01*
X47815500Y8077200D01*
X48190884Y8077122D01*
X48518711Y8076849D01*
X48802221Y8076318D01*
X49044658Y8075469D01*
X49249261Y8074240D01*
X49419274Y8072569D01*
X49557939Y8070395D01*
X49668496Y8067657D01*
X49754188Y8064292D01*
X49818257Y8060241D01*
X49863944Y8055441D01*
X49894492Y8049831D01*
X49913141Y8043349D01*
X49921885Y8037285D01*
X49928992Y8026209D01*
X49935213Y8006001D01*
X49940606Y7973490D01*
X49945229Y7925503D01*
X49949140Y7858867D01*
X49952396Y7770410D01*
X49955056Y7656960D01*
X49957175Y7515344D01*
X49958813Y7342390D01*
X49960028Y7134924D01*
X49960876Y6889776D01*
X49961415Y6603771D01*
X49961703Y6273739D01*
X49961798Y5896505D01*
X49961800Y5841999D01*
X49961726Y5458176D01*
X49961467Y5121980D01*
X49960965Y4830239D01*
X49960162Y4579781D01*
X49959000Y4367432D01*
X49957422Y4190021D01*
X49955371Y4044375D01*
X49952787Y3927322D01*
X49949615Y3835688D01*
X49945795Y3766303D01*
X49941271Y3715992D01*
X49935985Y3681584D01*
X49929879Y3659907D01*
X49922895Y3647787D01*
X49921885Y3646714D01*
X49910627Y3639465D01*
X49890152Y3633138D01*
X49857219Y3627672D01*
X49808586Y3623006D01*
X49741011Y3619078D01*
X49651252Y3615826D01*
X49536068Y3613190D01*
X49392217Y3611107D01*
X49216456Y3609517D01*
X49005544Y3608358D01*
X48756239Y3607568D01*
X48465300Y3607086D01*
X48129484Y3606851D01*
X47815500Y3606800D01*
X47440115Y3606877D01*
X47112288Y3607150D01*
X46828778Y3607681D01*
X46586341Y3608530D01*
X46381738Y3609759D01*
X46260729Y3610948D01*
X46260729Y3886199D01*
X46285638Y3896637D01*
X46339844Y3922944D01*
X46367699Y3936999D01*
X46390774Y3947932D01*
X46416420Y3957174D01*
X46448859Y3964867D01*
X46492308Y3971152D01*
X46550988Y3976172D01*
X46629117Y3980068D01*
X46730917Y3982983D01*
X46860605Y3985057D01*
X47022401Y3986434D01*
X47220525Y3987254D01*
X47459197Y3987659D01*
X47742635Y3987791D01*
X47879290Y3987799D01*
X48142726Y3987439D01*
X48391037Y3986402D01*
X48619556Y3984756D01*
X48823618Y3982568D01*
X48998558Y3979903D01*
X49139711Y3976830D01*
X49242410Y3973415D01*
X49301991Y3969724D01*
X49315370Y3967224D01*
X49355136Y3942800D01*
X49409350Y3916968D01*
X49479200Y3887289D01*
X49478811Y4413794D01*
X49477849Y4568967D01*
X49475381Y4703350D01*
X49471674Y4809999D01*
X49466992Y4881970D01*
X49461600Y4912319D01*
X49459761Y4912094D01*
X49425826Y4882145D01*
X49367626Y4846332D01*
X49359811Y4842244D01*
X49322521Y4827318D01*
X49272267Y4816307D01*
X49201556Y4808669D01*
X49102898Y4803866D01*
X48968800Y4801356D01*
X48791772Y4800601D01*
X48781961Y4800600D01*
X48604347Y4801833D01*
X48461876Y4805396D01*
X48358727Y4811078D01*
X48299078Y4818672D01*
X48285400Y4825414D01*
X48304770Y4854914D01*
X48351744Y4892641D01*
X48355250Y4894915D01*
X48412268Y4935493D01*
X48450500Y4969699D01*
X48487632Y5000147D01*
X48549966Y5040083D01*
X48573833Y5053671D01*
X48640930Y5095820D01*
X48729720Y5158527D01*
X48823064Y5229592D01*
X48840533Y5243542D01*
X48983344Y5351661D01*
X49119967Y5442138D01*
X49242349Y5510389D01*
X49342440Y5551831D01*
X49400923Y5562600D01*
X49479200Y5562600D01*
X49479200Y6689055D01*
X49465488Y6676929D01*
X49465488Y6832600D01*
X49469757Y6856699D01*
X49473485Y6923796D01*
X49476448Y7026089D01*
X49478426Y7155778D01*
X49479196Y7305061D01*
X49479200Y7315200D01*
X49478408Y7491967D01*
X49475806Y7623101D01*
X49471056Y7713747D01*
X49463818Y7769050D01*
X49453752Y7794156D01*
X49447450Y7796992D01*
X49403554Y7782038D01*
X49366395Y7758892D01*
X49347692Y7749698D01*
X49315195Y7742102D01*
X49264498Y7735959D01*
X49191196Y7731127D01*
X49090883Y7727464D01*
X48959154Y7724826D01*
X48791604Y7723070D01*
X48583827Y7722053D01*
X48331418Y7721633D01*
X48217045Y7721600D01*
X47117000Y7721600D01*
X47117000Y6856695D01*
X47191938Y6895447D01*
X47217815Y6905478D01*
X47256092Y6913667D01*
X47311607Y6920192D01*
X47389197Y6925226D01*
X47493700Y6928947D01*
X47629954Y6931529D01*
X47802797Y6933148D01*
X48017067Y6933979D01*
X48259750Y6934200D01*
X48511440Y6934086D01*
X48717511Y6933585D01*
X48883147Y6932455D01*
X49013527Y6930455D01*
X49113835Y6927345D01*
X49189251Y6922883D01*
X49244957Y6916829D01*
X49286135Y6908941D01*
X49317967Y6898979D01*
X49345635Y6886701D01*
X49352200Y6883400D01*
X49415636Y6852490D01*
X49458110Y6834480D01*
X49465488Y6832600D01*
X49465488Y6676929D01*
X49409570Y6627477D01*
X49360266Y6583555D01*
X49329290Y6555373D01*
X49327020Y6553200D01*
X49263905Y6495445D01*
X49179689Y6423963D01*
X49087065Y6348897D01*
X48998725Y6280391D01*
X48927361Y6228588D01*
X48895547Y6208376D01*
X48831584Y6168155D01*
X48740299Y6104662D01*
X48633680Y6026804D01*
X48523715Y5943487D01*
X48422390Y5863617D01*
X48347607Y5801273D01*
X48270548Y5740829D01*
X48186943Y5684159D01*
X48180050Y5679978D01*
X47981936Y5552637D01*
X47851356Y5456994D01*
X47760212Y5387036D01*
X47672760Y5468468D01*
X47593661Y5538660D01*
X47486892Y5628715D01*
X47365451Y5728057D01*
X47242339Y5826107D01*
X47130555Y5912289D01*
X47091815Y5941151D01*
X46711892Y6245941D01*
X46454787Y6485279D01*
X46253400Y6684059D01*
X46253400Y6138747D01*
X46253523Y5953550D01*
X46254861Y5812998D01*
X46258867Y5710937D01*
X46266993Y5641212D01*
X46280691Y5597669D01*
X46301416Y5574153D01*
X46330618Y5564511D01*
X46369751Y5562586D01*
X46389390Y5562600D01*
X46442842Y5547012D01*
X46510121Y5507941D01*
X46533362Y5490299D01*
X46610668Y5431652D01*
X46701586Y5368890D01*
X46736000Y5346802D01*
X46802764Y5303552D01*
X46849931Y5269912D01*
X46863000Y5258239D01*
X46892339Y5228445D01*
X46948018Y5179245D01*
X47019108Y5119522D01*
X47094681Y5058162D01*
X47163808Y5004047D01*
X47215561Y4966063D01*
X47238483Y4953000D01*
X47267974Y4936182D01*
X47315717Y4894146D01*
X47332900Y4876799D01*
X47405904Y4800599D01*
X46986088Y4800600D01*
X46803302Y4802193D01*
X46660476Y4807895D01*
X46546840Y4819093D01*
X46451629Y4837172D01*
X46364075Y4863518D01*
X46297850Y4889164D01*
X46282771Y4892394D01*
X46271538Y4883649D01*
X46263591Y4856705D01*
X46258367Y4805338D01*
X46255303Y4723324D01*
X46253838Y4604439D01*
X46253410Y4442460D01*
X46253400Y4396917D01*
X46253746Y4242083D01*
X46254712Y4106122D01*
X46256190Y3996617D01*
X46258071Y3921151D01*
X46260245Y3887308D01*
X46260729Y3886199D01*
X46260729Y3610948D01*
X46211725Y3611430D01*
X46073060Y3613604D01*
X45962503Y3616342D01*
X45876811Y3619707D01*
X45812742Y3623758D01*
X45767055Y3628558D01*
X45736507Y3634168D01*
X45717858Y3640650D01*
X45709114Y3646714D01*
X45700934Y3659178D01*
X45693938Y3681437D01*
X45688034Y3717191D01*
X45683133Y3770141D01*
X45679144Y3843988D01*
X45675978Y3942431D01*
X45673544Y4069173D01*
X45671752Y4227913D01*
X45670511Y4422353D01*
X45669733Y4656193D01*
X45669326Y4933135D01*
X45669200Y5256878D01*
X45669200Y6883400D01*
X45765418Y6883400D01*
X45881335Y6903479D01*
X46000000Y6956525D01*
X46100991Y7031754D01*
X46145244Y7084006D01*
X46192370Y7197546D01*
X46202636Y7328500D01*
X46178918Y7462628D01*
X46124089Y7585690D01*
X46041023Y7683448D01*
X46021147Y7698800D01*
X45920428Y7745806D01*
X45804877Y7767439D01*
X45669199Y7778690D01*
X45669200Y7888030D01*
X45667977Y7921580D01*
X45666421Y7950931D01*
X45667699Y7976363D01*
G36*
X46231341Y10069676D02*
X46241143Y10110911D01*
X46263829Y10181879D01*
X46299963Y10277173D01*
X46344187Y10384521D01*
X46391147Y10491653D01*
X46435487Y10586298D01*
X46471851Y10656185D01*
X46492598Y10687064D01*
X46515582Y10677374D01*
X46570508Y10645036D01*
X46647651Y10596464D01*
X46737288Y10538074D01*
X46829695Y10476281D01*
X46915151Y10417502D01*
X46983930Y10368152D01*
X47025159Y10335677D01*
X47022624Y10307236D01*
X46992335Y10255081D01*
X46958312Y10211407D01*
X46866226Y10066298D01*
X46820559Y9901487D01*
X46819284Y9743098D01*
X46859902Y9572398D01*
X46943127Y9428259D01*
X47067925Y9311245D01*
X47233260Y9221919D01*
X47438097Y9160843D01*
X47681401Y9128581D01*
X47955200Y9125426D01*
X48202826Y9146867D01*
X48408741Y9191984D01*
X48577105Y9262630D01*
X48712080Y9360657D01*
X48817826Y9487917D01*
X48836151Y9517579D01*
X48876415Y9594773D01*
X48897876Y9666238D01*
X48905676Y9754027D01*
X48906009Y9817100D01*
X48890354Y9976817D01*
X48842392Y10115547D01*
X48755613Y10249625D01*
X48713663Y10299846D01*
X48669162Y10354092D01*
X48645225Y10390414D01*
X48643969Y10398055D01*
X48677288Y10420216D01*
X48741333Y10459498D01*
X48826348Y10510230D01*
X48922575Y10566743D01*
X49020257Y10623366D01*
X49109636Y10674431D01*
X49180956Y10714265D01*
X49224460Y10737201D01*
X49233180Y10740453D01*
X49246554Y10715218D01*
X49277253Y10657344D01*
X49318786Y10579062D01*
X49321230Y10574457D01*
X49401612Y10412147D01*
X49456928Y10269212D01*
X49491986Y10127272D01*
X49511593Y9967947D01*
X49519340Y9817100D01*
X49520569Y9624285D01*
X49511113Y9472250D01*
X49495565Y9381436D01*
X49410718Y9149201D01*
X49281718Y8936159D01*
X49112906Y8746366D01*
X48908623Y8583878D01*
X48673209Y8452752D01*
X48411005Y8357044D01*
X48394632Y8352548D01*
X48208026Y8316250D01*
X47993920Y8297345D01*
X47770257Y8295823D01*
X47554982Y8311669D01*
X47366040Y8344872D01*
X47334044Y8353297D01*
X47060435Y8455061D01*
X46814468Y8597732D01*
X46599653Y8778804D01*
X46419495Y8995770D01*
X46405082Y9017000D01*
X46312504Y9194644D01*
X46246748Y9402698D01*
X46209907Y9627198D01*
X46204073Y9854178D01*
X46231341Y10069676D01*
X46231341Y10069676D01*
G37*
X46231341Y10069676D02*
X46241143Y10110911D01*
X46263829Y10181879D01*
X46299963Y10277173D01*
X46344187Y10384521D01*
X46391147Y10491653D01*
X46435487Y10586298D01*
X46471851Y10656185D01*
X46492598Y10687064D01*
X46515582Y10677374D01*
X46570508Y10645036D01*
X46647651Y10596464D01*
X46737288Y10538074D01*
X46829695Y10476281D01*
X46915151Y10417502D01*
X46983930Y10368152D01*
X47025159Y10335677D01*
X47022624Y10307236D01*
X46992335Y10255081D01*
X46958312Y10211407D01*
X46866226Y10066298D01*
X46820559Y9901487D01*
X46819284Y9743098D01*
X46859902Y9572398D01*
X46943127Y9428259D01*
X47067925Y9311245D01*
X47233260Y9221919D01*
X47438097Y9160843D01*
X47681401Y9128581D01*
X47955200Y9125426D01*
X48202826Y9146867D01*
X48408741Y9191984D01*
X48577105Y9262630D01*
X48712080Y9360657D01*
X48817826Y9487917D01*
X48836151Y9517579D01*
X48876415Y9594773D01*
X48897876Y9666238D01*
X48905676Y9754027D01*
X48906009Y9817100D01*
X48890354Y9976817D01*
X48842392Y10115547D01*
X48755613Y10249625D01*
X48713663Y10299846D01*
X48669162Y10354092D01*
X48645225Y10390414D01*
X48643969Y10398055D01*
X48677288Y10420216D01*
X48741333Y10459498D01*
X48826348Y10510230D01*
X48922575Y10566743D01*
X49020257Y10623366D01*
X49109636Y10674431D01*
X49180956Y10714265D01*
X49224460Y10737201D01*
X49233180Y10740453D01*
X49246554Y10715218D01*
X49277253Y10657344D01*
X49318786Y10579062D01*
X49321230Y10574457D01*
X49401612Y10412147D01*
X49456928Y10269212D01*
X49491986Y10127272D01*
X49511593Y9967947D01*
X49519340Y9817100D01*
X49520569Y9624285D01*
X49511113Y9472250D01*
X49495565Y9381436D01*
X49410718Y9149201D01*
X49281718Y8936159D01*
X49112906Y8746366D01*
X48908623Y8583878D01*
X48673209Y8452752D01*
X48411005Y8357044D01*
X48394632Y8352548D01*
X48208026Y8316250D01*
X47993920Y8297345D01*
X47770257Y8295823D01*
X47554982Y8311669D01*
X47366040Y8344872D01*
X47334044Y8353297D01*
X47060435Y8455061D01*
X46814468Y8597732D01*
X46599653Y8778804D01*
X46419495Y8995770D01*
X46405082Y9017000D01*
X46312504Y9194644D01*
X46246748Y9402698D01*
X46209907Y9627198D01*
X46204073Y9854178D01*
X46231341Y10069676D01*
G36*
X47077359Y12152620D02*
X47117264Y12328576D01*
X47161895Y12447513D01*
X47217778Y12540098D01*
X47291360Y12622779D01*
X47346188Y12675917D01*
X47397829Y12719396D01*
X47451992Y12754291D01*
X47514387Y12781676D01*
X47590723Y12802624D01*
X47686710Y12818209D01*
X47808058Y12829504D01*
X47960475Y12837585D01*
X48149670Y12843523D01*
X48381355Y12848394D01*
X48502477Y12850549D01*
X48734434Y12854807D01*
X48921051Y12858930D01*
X49067785Y12863276D01*
X49180095Y12868203D01*
X49263437Y12874068D01*
X49323269Y12881231D01*
X49365049Y12890049D01*
X49394234Y12900880D01*
X49410527Y12910135D01*
X49479200Y12955171D01*
X49479200Y12144418D01*
X49325698Y12128500D01*
X49393483Y12029102D01*
X49472254Y11872946D01*
X49518178Y11692092D01*
X49529137Y11502295D01*
X49503011Y11319309D01*
X49493436Y11285834D01*
X49411112Y11099429D01*
X49293585Y10948520D01*
X49144321Y10835652D01*
X48966786Y10763375D01*
X48764443Y10734235D01*
X48742600Y10733788D01*
X48713545Y10734452D01*
X48713545Y11462707D01*
X48802884Y11466963D01*
X48833502Y11477090D01*
X48914089Y11539779D01*
X48968481Y11634723D01*
X48992352Y11748327D01*
X48981378Y11866996D01*
X48969508Y11904596D01*
X48927968Y11991783D01*
X48875366Y12047424D01*
X48800280Y12077894D01*
X48691289Y12089566D01*
X48636572Y12090400D01*
X48437800Y12090400D01*
X48437800Y11924484D01*
X48452824Y11760747D01*
X48495733Y11622128D01*
X48556555Y11526676D01*
X48623298Y11484069D01*
X48713545Y11462707D01*
X48713545Y10734452D01*
X48628273Y10736403D01*
X48540974Y10750051D01*
X48457311Y10779550D01*
X48407215Y10802882D01*
X48250636Y10907223D01*
X48124758Y11051604D01*
X48029878Y11235369D01*
X47966291Y11457862D01*
X47934295Y11718426D01*
X47930241Y11858794D01*
X47929800Y12097088D01*
X47826228Y12083196D01*
X47712960Y12047262D01*
X47634507Y11975344D01*
X47591163Y11868724D01*
X47583223Y11728687D01*
X47610980Y11556516D01*
X47665144Y11379509D01*
X47692413Y11295051D01*
X47707373Y11230058D01*
X47706908Y11198195D01*
X47706589Y11197862D01*
X47674872Y11180276D01*
X47608912Y11150180D01*
X47521745Y11112902D01*
X47426404Y11073773D01*
X47335925Y11038122D01*
X47263340Y11011280D01*
X47221685Y10998575D01*
X47218302Y10998200D01*
X47199617Y11019990D01*
X47193200Y11063447D01*
X47187037Y11115031D01*
X47170424Y11201850D01*
X47146175Y11310103D01*
X47127173Y11387297D01*
X47076360Y11653096D01*
X47059718Y11911776D01*
X47077359Y12152620D01*
X47077359Y12152620D01*
G37*
X47077359Y12152620D02*
X47117264Y12328576D01*
X47161895Y12447513D01*
X47217778Y12540098D01*
X47291360Y12622779D01*
X47346188Y12675917D01*
X47397829Y12719396D01*
X47451992Y12754291D01*
X47514387Y12781676D01*
X47590723Y12802624D01*
X47686710Y12818209D01*
X47808058Y12829504D01*
X47960475Y12837585D01*
X48149670Y12843523D01*
X48381355Y12848394D01*
X48502477Y12850549D01*
X48734434Y12854807D01*
X48921051Y12858930D01*
X49067785Y12863276D01*
X49180095Y12868203D01*
X49263437Y12874068D01*
X49323269Y12881231D01*
X49365049Y12890049D01*
X49394234Y12900880D01*
X49410527Y12910135D01*
X49479200Y12955171D01*
X49479200Y12144418D01*
X49325698Y12128500D01*
X49393483Y12029102D01*
X49472254Y11872946D01*
X49518178Y11692092D01*
X49529137Y11502295D01*
X49503011Y11319309D01*
X49493436Y11285834D01*
X49411112Y11099429D01*
X49293585Y10948520D01*
X49144321Y10835652D01*
X48966786Y10763375D01*
X48764443Y10734235D01*
X48742600Y10733788D01*
X48713545Y10734452D01*
X48713545Y11462707D01*
X48802884Y11466963D01*
X48833502Y11477090D01*
X48914089Y11539779D01*
X48968481Y11634723D01*
X48992352Y11748327D01*
X48981378Y11866996D01*
X48969508Y11904596D01*
X48927968Y11991783D01*
X48875366Y12047424D01*
X48800280Y12077894D01*
X48691289Y12089566D01*
X48636572Y12090400D01*
X48437800Y12090400D01*
X48437800Y11924484D01*
X48452824Y11760747D01*
X48495733Y11622128D01*
X48556555Y11526676D01*
X48623298Y11484069D01*
X48713545Y11462707D01*
X48713545Y10734452D01*
X48628273Y10736403D01*
X48540974Y10750051D01*
X48457311Y10779550D01*
X48407215Y10802882D01*
X48250636Y10907223D01*
X48124758Y11051604D01*
X48029878Y11235369D01*
X47966291Y11457862D01*
X47934295Y11718426D01*
X47930241Y11858794D01*
X47929800Y12097088D01*
X47826228Y12083196D01*
X47712960Y12047262D01*
X47634507Y11975344D01*
X47591163Y11868724D01*
X47583223Y11728687D01*
X47610980Y11556516D01*
X47665144Y11379509D01*
X47692413Y11295051D01*
X47707373Y11230058D01*
X47706908Y11198195D01*
X47706589Y11197862D01*
X47674872Y11180276D01*
X47608912Y11150180D01*
X47521745Y11112902D01*
X47426404Y11073773D01*
X47335925Y11038122D01*
X47263340Y11011280D01*
X47221685Y10998575D01*
X47218302Y10998200D01*
X47199617Y11019990D01*
X47193200Y11063447D01*
X47187037Y11115031D01*
X47170424Y11201850D01*
X47146175Y11310103D01*
X47127173Y11387297D01*
X47076360Y11653096D01*
X47059718Y11911776D01*
X47077359Y12152620D01*
G36*
X47682150Y15372464D02*
X48012052Y15374006D01*
X48294981Y15375566D01*
X48534761Y15377261D01*
X48735219Y15379208D01*
X48900181Y15381523D01*
X49033472Y15384322D01*
X49138918Y15387724D01*
X49220345Y15391844D01*
X49281580Y15396799D01*
X49326447Y15402707D01*
X49358774Y15409683D01*
X49382385Y15417845D01*
X49396650Y15424802D01*
X49479200Y15469904D01*
X49479200Y14655800D01*
X49403000Y14655800D01*
X49349452Y14652441D01*
X49326804Y14644351D01*
X49326800Y14644227D01*
X49339784Y14618109D01*
X49372537Y14565726D01*
X49390421Y14538903D01*
X49457647Y14406603D01*
X49504589Y14246937D01*
X49528338Y14078022D01*
X49525984Y13917977D01*
X49506247Y13817600D01*
X49424939Y13633538D01*
X49303200Y13468410D01*
X49150510Y13333517D01*
X49048694Y13272155D01*
X48891029Y13204731D01*
X48724951Y13160855D01*
X48536403Y13137714D01*
X48349913Y13132241D01*
X48336200Y13133002D01*
X48336200Y13933136D01*
X48511895Y13937634D01*
X48645414Y13951249D01*
X48744949Y13976477D01*
X48818691Y14015812D01*
X48874831Y14071751D01*
X48897170Y14104016D01*
X48935164Y14210421D01*
X48932176Y14336144D01*
X48888728Y14471203D01*
X48876773Y14495499D01*
X48826557Y14592300D01*
X48277487Y14599142D01*
X47728416Y14605985D01*
X47684454Y14538891D01*
X47657707Y14475360D01*
X47637044Y14385668D01*
X47630065Y14327633D01*
X47626970Y14239255D01*
X47637095Y14180291D01*
X47665683Y14129985D01*
X47686568Y14103927D01*
X47760167Y14036583D01*
X47855737Y13987664D01*
X47980234Y13955341D01*
X48140611Y13937787D01*
X48336200Y13933136D01*
X48336200Y13133002D01*
X48053965Y13148675D01*
X47794134Y13196542D01*
X47571509Y13275171D01*
X47387180Y13383889D01*
X47242237Y13522025D01*
X47137768Y13688906D01*
X47074864Y13883860D01*
X47067835Y13923170D01*
X47059575Y14038703D01*
X47066429Y14166063D01*
X47085852Y14292661D01*
X47115299Y14405912D01*
X47152225Y14493228D01*
X47192815Y14541262D01*
X47217282Y14562127D01*
X47212192Y14578170D01*
X47173657Y14589925D01*
X47097788Y14597924D01*
X46980701Y14602702D01*
X46818506Y14604793D01*
X46728670Y14605000D01*
X46554573Y14604477D01*
X46423217Y14602469D01*
X46326550Y14598311D01*
X46256519Y14591343D01*
X46205073Y14580901D01*
X46164158Y14566322D01*
X46144470Y14556938D01*
X46050200Y14508876D01*
X46050200Y15365228D01*
X47682150Y15372464D01*
X47682150Y15372464D01*
G37*
X47682150Y15372464D02*
X48012052Y15374006D01*
X48294981Y15375566D01*
X48534761Y15377261D01*
X48735219Y15379208D01*
X48900181Y15381523D01*
X49033472Y15384322D01*
X49138918Y15387724D01*
X49220345Y15391844D01*
X49281580Y15396799D01*
X49326447Y15402707D01*
X49358774Y15409683D01*
X49382385Y15417845D01*
X49396650Y15424802D01*
X49479200Y15469904D01*
X49479200Y14655800D01*
X49403000Y14655800D01*
X49349452Y14652441D01*
X49326804Y14644351D01*
X49326800Y14644227D01*
X49339784Y14618109D01*
X49372537Y14565726D01*
X49390421Y14538903D01*
X49457647Y14406603D01*
X49504589Y14246937D01*
X49528338Y14078022D01*
X49525984Y13917977D01*
X49506247Y13817600D01*
X49424939Y13633538D01*
X49303200Y13468410D01*
X49150510Y13333517D01*
X49048694Y13272155D01*
X48891029Y13204731D01*
X48724951Y13160855D01*
X48536403Y13137714D01*
X48349913Y13132241D01*
X48336200Y13133002D01*
X48336200Y13933136D01*
X48511895Y13937634D01*
X48645414Y13951249D01*
X48744949Y13976477D01*
X48818691Y14015812D01*
X48874831Y14071751D01*
X48897170Y14104016D01*
X48935164Y14210421D01*
X48932176Y14336144D01*
X48888728Y14471203D01*
X48876773Y14495499D01*
X48826557Y14592300D01*
X48277487Y14599142D01*
X47728416Y14605985D01*
X47684454Y14538891D01*
X47657707Y14475360D01*
X47637044Y14385668D01*
X47630065Y14327633D01*
X47626970Y14239255D01*
X47637095Y14180291D01*
X47665683Y14129985D01*
X47686568Y14103927D01*
X47760167Y14036583D01*
X47855737Y13987664D01*
X47980234Y13955341D01*
X48140611Y13937787D01*
X48336200Y13933136D01*
X48336200Y13133002D01*
X48053965Y13148675D01*
X47794134Y13196542D01*
X47571509Y13275171D01*
X47387180Y13383889D01*
X47242237Y13522025D01*
X47137768Y13688906D01*
X47074864Y13883860D01*
X47067835Y13923170D01*
X47059575Y14038703D01*
X47066429Y14166063D01*
X47085852Y14292661D01*
X47115299Y14405912D01*
X47152225Y14493228D01*
X47192815Y14541262D01*
X47217282Y14562127D01*
X47212192Y14578170D01*
X47173657Y14589925D01*
X47097788Y14597924D01*
X46980701Y14602702D01*
X46818506Y14604793D01*
X46728670Y14605000D01*
X46554573Y14604477D01*
X46423217Y14602469D01*
X46326550Y14598311D01*
X46256519Y14591343D01*
X46205073Y14580901D01*
X46164158Y14566322D01*
X46144470Y14556938D01*
X46050200Y14508876D01*
X46050200Y15365228D01*
X47682150Y15372464D01*
D11*
X15073334Y25042857D02*
X15025715Y24995238D01*
X14882858Y24947619D01*
X14787620Y24947619D01*
X14644762Y24995238D01*
X14549524Y25090476D01*
X14501905Y25185714D01*
X14454286Y25376190D01*
X14454286Y25519048D01*
X14501905Y25709524D01*
X14549524Y25804762D01*
X14644762Y25900000D01*
X14787620Y25947619D01*
X14882858Y25947619D01*
X15025715Y25900000D01*
X15073334Y25852381D01*
X15454286Y25852381D02*
X15501905Y25900000D01*
X15597143Y25947619D01*
X15835239Y25947619D01*
X15930477Y25900000D01*
X15978096Y25852381D01*
X16025715Y25757143D01*
X16025715Y25661905D01*
X15978096Y25519048D01*
X15406667Y24947619D01*
X16025715Y24947619D01*
X22693334Y27102857D02*
X22645715Y27055238D01*
X22502858Y27007619D01*
X22407620Y27007619D01*
X22264762Y27055238D01*
X22169524Y27150476D01*
X22121905Y27245714D01*
X22074286Y27436190D01*
X22074286Y27579048D01*
X22121905Y27769524D01*
X22169524Y27864762D01*
X22264762Y27960000D01*
X22407620Y28007619D01*
X22502858Y28007619D01*
X22645715Y27960000D01*
X22693334Y27912381D01*
X23026667Y28007619D02*
X23645715Y28007619D01*
X23312381Y27626667D01*
X23455239Y27626667D01*
X23550477Y27579048D01*
X23598096Y27531429D01*
X23645715Y27436190D01*
X23645715Y27198095D01*
X23598096Y27102857D01*
X23550477Y27055238D01*
X23455239Y27007619D01*
X23169524Y27007619D01*
X23074286Y27055238D01*
X23026667Y27102857D01*
X29087143Y21423334D02*
X29134762Y21375715D01*
X29182381Y21232858D01*
X29182381Y21137620D01*
X29134762Y20994762D01*
X29039524Y20899524D01*
X28944286Y20851905D01*
X28753810Y20804286D01*
X28610952Y20804286D01*
X28420476Y20851905D01*
X28325238Y20899524D01*
X28230000Y20994762D01*
X28182381Y21137620D01*
X28182381Y21232858D01*
X28230000Y21375715D01*
X28277619Y21423334D01*
X28515714Y22280477D02*
X29182381Y22280477D01*
X28134762Y22042381D02*
X28849048Y21804286D01*
X28849048Y22423334D01*
X15073334Y17422857D02*
X15025715Y17375238D01*
X14882858Y17327619D01*
X14787620Y17327619D01*
X14644762Y17375238D01*
X14549524Y17470476D01*
X14501905Y17565714D01*
X14454286Y17756190D01*
X14454286Y17899048D01*
X14501905Y18089524D01*
X14549524Y18184762D01*
X14644762Y18280000D01*
X14787620Y18327619D01*
X14882858Y18327619D01*
X15025715Y18280000D01*
X15073334Y18232381D01*
X15978096Y18327619D02*
X15501905Y18327619D01*
X15454286Y17851429D01*
X15501905Y17899048D01*
X15597143Y17946667D01*
X15835239Y17946667D01*
X15930477Y17899048D01*
X15978096Y17851429D01*
X16025715Y17756190D01*
X16025715Y17518095D01*
X15978096Y17422857D01*
X15930477Y17375238D01*
X15835239Y17327619D01*
X15597143Y17327619D01*
X15501905Y17375238D01*
X15454286Y17422857D01*
X22693334Y15362857D02*
X22645715Y15315238D01*
X22502858Y15267619D01*
X22407620Y15267619D01*
X22264762Y15315238D01*
X22169524Y15410476D01*
X22121905Y15505714D01*
X22074286Y15696190D01*
X22074286Y15839048D01*
X22121905Y16029524D01*
X22169524Y16124762D01*
X22264762Y16220000D01*
X22407620Y16267619D01*
X22502858Y16267619D01*
X22645715Y16220000D01*
X22693334Y16172381D01*
X23550477Y16267619D02*
X23360000Y16267619D01*
X23264762Y16220000D01*
X23217143Y16172381D01*
X23121905Y16029524D01*
X23074286Y15839048D01*
X23074286Y15458095D01*
X23121905Y15362857D01*
X23169524Y15315238D01*
X23264762Y15267619D01*
X23455239Y15267619D01*
X23550477Y15315238D01*
X23598096Y15362857D01*
X23645715Y15458095D01*
X23645715Y15696190D01*
X23598096Y15791429D01*
X23550477Y15839048D01*
X23455239Y15886667D01*
X23264762Y15886667D01*
X23169524Y15839048D01*
X23121905Y15791429D01*
X23074286Y15696190D01*
X58761334Y33932857D02*
X58713715Y33885238D01*
X58570858Y33837619D01*
X58475620Y33837619D01*
X58332762Y33885238D01*
X58237524Y33980476D01*
X58189905Y34075714D01*
X58142286Y34266190D01*
X58142286Y34409048D01*
X58189905Y34599524D01*
X58237524Y34694762D01*
X58332762Y34790000D01*
X58475620Y34837619D01*
X58570858Y34837619D01*
X58713715Y34790000D01*
X58761334Y34742381D01*
X59332762Y34409048D02*
X59237524Y34456667D01*
X59189905Y34504286D01*
X59142286Y34599524D01*
X59142286Y34647143D01*
X59189905Y34742381D01*
X59237524Y34790000D01*
X59332762Y34837619D01*
X59523239Y34837619D01*
X59618477Y34790000D01*
X59666096Y34742381D01*
X59713715Y34647143D01*
X59713715Y34599524D01*
X59666096Y34504286D01*
X59618477Y34456667D01*
X59523239Y34409048D01*
X59332762Y34409048D01*
X59237524Y34361429D01*
X59189905Y34313810D01*
X59142286Y34218571D01*
X59142286Y34028095D01*
X59189905Y33932857D01*
X59237524Y33885238D01*
X59332762Y33837619D01*
X59523239Y33837619D01*
X59618477Y33885238D01*
X59666096Y33932857D01*
X59713715Y34028095D01*
X59713715Y34218571D01*
X59666096Y34313810D01*
X59618477Y34361429D01*
X59523239Y34409048D01*
X66636429Y21144048D02*
X66636429Y21905953D01*
X67017381Y21525001D02*
X66255476Y21525001D01*
X49998334Y19482857D02*
X49950715Y19435238D01*
X49807858Y19387619D01*
X49712620Y19387619D01*
X49569762Y19435238D01*
X49474524Y19530476D01*
X49426905Y19625714D01*
X49379286Y19816190D01*
X49379286Y19959048D01*
X49426905Y20149524D01*
X49474524Y20244762D01*
X49569762Y20340000D01*
X49712620Y20387619D01*
X49807858Y20387619D01*
X49950715Y20340000D01*
X49998334Y20292381D01*
X50474524Y19387619D02*
X50665000Y19387619D01*
X50760239Y19435238D01*
X50807858Y19482857D01*
X50903096Y19625714D01*
X50950715Y19816190D01*
X50950715Y20197143D01*
X50903096Y20292381D01*
X50855477Y20340000D01*
X50760239Y20387619D01*
X50569762Y20387619D01*
X50474524Y20340000D01*
X50426905Y20292381D01*
X50379286Y20197143D01*
X50379286Y19959048D01*
X50426905Y19863810D01*
X50474524Y19816190D01*
X50569762Y19768571D01*
X50760239Y19768571D01*
X50855477Y19816190D01*
X50903096Y19863810D01*
X50950715Y19959048D01*
X41775143Y30122857D02*
X41727524Y30075238D01*
X41584667Y30027619D01*
X41489429Y30027619D01*
X41346571Y30075238D01*
X41251333Y30170476D01*
X41203714Y30265714D01*
X41156095Y30456190D01*
X41156095Y30599048D01*
X41203714Y30789524D01*
X41251333Y30884762D01*
X41346571Y30980000D01*
X41489429Y31027619D01*
X41584667Y31027619D01*
X41727524Y30980000D01*
X41775143Y30932381D01*
X42727524Y30027619D02*
X42156095Y30027619D01*
X42441809Y30027619D02*
X42441809Y31027619D01*
X42346571Y30884762D01*
X42251333Y30789524D01*
X42156095Y30741905D01*
X43346571Y31027619D02*
X43441810Y31027619D01*
X43537048Y30980000D01*
X43584667Y30932381D01*
X43632286Y30837143D01*
X43679905Y30646667D01*
X43679905Y30408571D01*
X43632286Y30218095D01*
X43584667Y30122857D01*
X43537048Y30075238D01*
X43441810Y30027619D01*
X43346571Y30027619D01*
X43251333Y30075238D01*
X43203714Y30122857D01*
X43156095Y30218095D01*
X43108476Y30408571D01*
X43108476Y30646667D01*
X43156095Y30837143D01*
X43203714Y30932381D01*
X43251333Y30980000D01*
X43346571Y31027619D01*
X44411429Y17334048D02*
X44411429Y18095953D01*
X44792381Y17715001D02*
X44030476Y17715001D01*
X54475143Y2944857D02*
X54427524Y2897238D01*
X54284667Y2849619D01*
X54189429Y2849619D01*
X54046571Y2897238D01*
X53951333Y2992476D01*
X53903714Y3087714D01*
X53856095Y3278190D01*
X53856095Y3421048D01*
X53903714Y3611524D01*
X53951333Y3706762D01*
X54046571Y3802000D01*
X54189429Y3849619D01*
X54284667Y3849619D01*
X54427524Y3802000D01*
X54475143Y3754381D01*
X55427524Y2849619D02*
X54856095Y2849619D01*
X55141809Y2849619D02*
X55141809Y3849619D01*
X55046571Y3706762D01*
X54951333Y3611524D01*
X54856095Y3563905D01*
X56379905Y2849619D02*
X55808476Y2849619D01*
X56094190Y2849619D02*
X56094190Y3849619D01*
X55998952Y3706762D01*
X55903714Y3611524D01*
X55808476Y3563905D01*
X54475143Y19200857D02*
X54427524Y19153238D01*
X54284667Y19105619D01*
X54189429Y19105619D01*
X54046571Y19153238D01*
X53951333Y19248476D01*
X53903714Y19343714D01*
X53856095Y19534190D01*
X53856095Y19677048D01*
X53903714Y19867524D01*
X53951333Y19962762D01*
X54046571Y20058000D01*
X54189429Y20105619D01*
X54284667Y20105619D01*
X54427524Y20058000D01*
X54475143Y20010381D01*
X55427524Y19105619D02*
X54856095Y19105619D01*
X55141809Y19105619D02*
X55141809Y20105619D01*
X55046571Y19962762D01*
X54951333Y19867524D01*
X54856095Y19819905D01*
X55808476Y20010381D02*
X55856095Y20058000D01*
X55951333Y20105619D01*
X56189429Y20105619D01*
X56284667Y20058000D01*
X56332286Y20010381D01*
X56379905Y19915143D01*
X56379905Y19819905D01*
X56332286Y19677048D01*
X55760857Y19105619D01*
X56379905Y19105619D01*
X54475143Y9294857D02*
X54427524Y9247238D01*
X54284667Y9199619D01*
X54189429Y9199619D01*
X54046571Y9247238D01*
X53951333Y9342476D01*
X53903714Y9437714D01*
X53856095Y9628190D01*
X53856095Y9771048D01*
X53903714Y9961524D01*
X53951333Y10056762D01*
X54046571Y10152000D01*
X54189429Y10199619D01*
X54284667Y10199619D01*
X54427524Y10152000D01*
X54475143Y10104381D01*
X55427524Y9199619D02*
X54856095Y9199619D01*
X55141809Y9199619D02*
X55141809Y10199619D01*
X55046571Y10056762D01*
X54951333Y9961524D01*
X54856095Y9913905D01*
X55760857Y10199619D02*
X56379905Y10199619D01*
X56046571Y9818667D01*
X56189429Y9818667D01*
X56284667Y9771048D01*
X56332286Y9723429D01*
X56379905Y9628190D01*
X56379905Y9390095D01*
X56332286Y9294857D01*
X56284667Y9247238D01*
X56189429Y9199619D01*
X55903714Y9199619D01*
X55808476Y9247238D01*
X55760857Y9294857D01*
X42513334Y15549619D02*
X42037143Y15549619D01*
X42037143Y16549619D01*
X42846667Y15549619D02*
X42846667Y16549619D01*
X43084762Y16549619D01*
X43227620Y16502000D01*
X43322858Y16406762D01*
X43370477Y16311524D01*
X43418096Y16121048D01*
X43418096Y15978190D01*
X43370477Y15787714D01*
X43322858Y15692476D01*
X43227620Y15597238D01*
X43084762Y15549619D01*
X42846667Y15549619D01*
X44370477Y15549619D02*
X43799048Y15549619D01*
X44084762Y15549619D02*
X44084762Y16549619D01*
X43989524Y16406762D01*
X43894286Y16311524D01*
X43799048Y16263905D01*
X3476667Y14942619D02*
X3476667Y14228333D01*
X3429047Y14085476D01*
X3333809Y13990238D01*
X3190952Y13942619D01*
X3095714Y13942619D01*
X4476667Y13942619D02*
X3905238Y13942619D01*
X4190952Y13942619D02*
X4190952Y14942619D01*
X4095714Y14799762D01*
X4000476Y14704524D01*
X3905238Y14656905D01*
X38274667Y32297619D02*
X38274667Y31583333D01*
X38227047Y31440476D01*
X38131809Y31345238D01*
X37988952Y31297619D01*
X37893714Y31297619D01*
X38703238Y32202381D02*
X38750857Y32250000D01*
X38846095Y32297619D01*
X39084191Y32297619D01*
X39179429Y32250000D01*
X39227048Y32202381D01*
X39274667Y32107143D01*
X39274667Y32011905D01*
X39227048Y31869048D01*
X38655619Y31297619D01*
X39274667Y31297619D01*
X3476667Y35262619D02*
X3476667Y34548333D01*
X3429047Y34405476D01*
X3333809Y34310238D01*
X3190952Y34262619D01*
X3095714Y34262619D01*
X3857619Y35262619D02*
X4476667Y35262619D01*
X4143333Y34881667D01*
X4286191Y34881667D01*
X4381429Y34834048D01*
X4429048Y34786429D01*
X4476667Y34691190D01*
X4476667Y34453095D01*
X4429048Y34357857D01*
X4381429Y34310238D01*
X4286191Y34262619D01*
X4000476Y34262619D01*
X3905238Y34310238D01*
X3857619Y34357857D01*
X64436667Y20657619D02*
X64436667Y19943333D01*
X64389047Y19800476D01*
X64293809Y19705238D01*
X64150952Y19657619D01*
X64055714Y19657619D01*
X65341429Y20324286D02*
X65341429Y19657619D01*
X65103333Y20705238D02*
X64865238Y19990952D01*
X65484286Y19990952D01*
X17613334Y16565619D02*
X17137143Y16565619D01*
X17137143Y17565619D01*
X18470477Y16565619D02*
X17899048Y16565619D01*
X18184762Y16565619D02*
X18184762Y17565619D01*
X18089524Y17422762D01*
X17994286Y17327524D01*
X17899048Y17279905D01*
X36734762Y912381D02*
X36639524Y960000D01*
X36544286Y1055238D01*
X36401429Y1198095D01*
X36306190Y1245714D01*
X36210952Y1245714D01*
X36258571Y1007619D02*
X36163333Y1055238D01*
X36068095Y1150476D01*
X36020476Y1340952D01*
X36020476Y1674286D01*
X36068095Y1864762D01*
X36163333Y1960000D01*
X36258571Y2007619D01*
X36449048Y2007619D01*
X36544286Y1960000D01*
X36639524Y1864762D01*
X36687143Y1674286D01*
X36687143Y1340952D01*
X36639524Y1150476D01*
X36544286Y1055238D01*
X36449048Y1007619D01*
X36258571Y1007619D01*
X37639524Y1007619D02*
X37068095Y1007619D01*
X37353809Y1007619D02*
X37353809Y2007619D01*
X37258571Y1864762D01*
X37163333Y1769524D01*
X37068095Y1721905D01*
X24669762Y912381D02*
X24574524Y960000D01*
X24479286Y1055238D01*
X24336429Y1198095D01*
X24241190Y1245714D01*
X24145952Y1245714D01*
X24193571Y1007619D02*
X24098333Y1055238D01*
X24003095Y1150476D01*
X23955476Y1340952D01*
X23955476Y1674286D01*
X24003095Y1864762D01*
X24098333Y1960000D01*
X24193571Y2007619D01*
X24384048Y2007619D01*
X24479286Y1960000D01*
X24574524Y1864762D01*
X24622143Y1674286D01*
X24622143Y1340952D01*
X24574524Y1150476D01*
X24479286Y1055238D01*
X24384048Y1007619D01*
X24193571Y1007619D01*
X25003095Y1912381D02*
X25050714Y1960000D01*
X25145952Y2007619D01*
X25384048Y2007619D01*
X25479286Y1960000D01*
X25526905Y1912381D01*
X25574524Y1817143D01*
X25574524Y1721905D01*
X25526905Y1579048D01*
X24955476Y1007619D01*
X25574524Y1007619D01*
X12604762Y912381D02*
X12509524Y960000D01*
X12414286Y1055238D01*
X12271429Y1198095D01*
X12176190Y1245714D01*
X12080952Y1245714D01*
X12128571Y1007619D02*
X12033333Y1055238D01*
X11938095Y1150476D01*
X11890476Y1340952D01*
X11890476Y1674286D01*
X11938095Y1864762D01*
X12033333Y1960000D01*
X12128571Y2007619D01*
X12319048Y2007619D01*
X12414286Y1960000D01*
X12509524Y1864762D01*
X12557143Y1674286D01*
X12557143Y1340952D01*
X12509524Y1150476D01*
X12414286Y1055238D01*
X12319048Y1007619D01*
X12128571Y1007619D01*
X12890476Y2007619D02*
X13509524Y2007619D01*
X13176190Y1626667D01*
X13319048Y1626667D01*
X13414286Y1579048D01*
X13461905Y1531429D01*
X13509524Y1436190D01*
X13509524Y1198095D01*
X13461905Y1102857D01*
X13414286Y1055238D01*
X13319048Y1007619D01*
X13033333Y1007619D01*
X12938095Y1055238D01*
X12890476Y1102857D01*
X11263334Y24947619D02*
X10930000Y25423810D01*
X10691905Y24947619D02*
X10691905Y25947619D01*
X11072858Y25947619D01*
X11168096Y25900000D01*
X11215715Y25852381D01*
X11263334Y25757143D01*
X11263334Y25614286D01*
X11215715Y25519048D01*
X11168096Y25471429D01*
X11072858Y25423810D01*
X10691905Y25423810D01*
X12215715Y24947619D02*
X11644286Y24947619D01*
X11930000Y24947619D02*
X11930000Y25947619D01*
X11834762Y25804762D01*
X11739524Y25709524D01*
X11644286Y25661905D01*
X15073334Y33329619D02*
X14740000Y33805810D01*
X14501905Y33329619D02*
X14501905Y34329619D01*
X14882858Y34329619D01*
X14978096Y34282000D01*
X15025715Y34234381D01*
X15073334Y34139143D01*
X15073334Y33996286D01*
X15025715Y33901048D01*
X14978096Y33853429D01*
X14882858Y33805810D01*
X14501905Y33805810D01*
X15454286Y34234381D02*
X15501905Y34282000D01*
X15597143Y34329619D01*
X15835239Y34329619D01*
X15930477Y34282000D01*
X15978096Y34234381D01*
X16025715Y34139143D01*
X16025715Y34043905D01*
X15978096Y33901048D01*
X15406667Y33329619D01*
X16025715Y33329619D01*
X3643334Y22832619D02*
X3310000Y23308810D01*
X3071905Y22832619D02*
X3071905Y23832619D01*
X3452858Y23832619D01*
X3548096Y23785000D01*
X3595715Y23737381D01*
X3643334Y23642143D01*
X3643334Y23499286D01*
X3595715Y23404048D01*
X3548096Y23356429D01*
X3452858Y23308810D01*
X3071905Y23308810D01*
X3976667Y23832619D02*
X4595715Y23832619D01*
X4262381Y23451667D01*
X4405239Y23451667D01*
X4500477Y23404048D01*
X4548096Y23356429D01*
X4595715Y23261190D01*
X4595715Y23023095D01*
X4548096Y22927857D01*
X4500477Y22880238D01*
X4405239Y22832619D01*
X4119524Y22832619D01*
X4024286Y22880238D01*
X3976667Y22927857D01*
X11263334Y17327619D02*
X10930000Y17803810D01*
X10691905Y17327619D02*
X10691905Y18327619D01*
X11072858Y18327619D01*
X11168096Y18280000D01*
X11215715Y18232381D01*
X11263334Y18137143D01*
X11263334Y17994286D01*
X11215715Y17899048D01*
X11168096Y17851429D01*
X11072858Y17803810D01*
X10691905Y17803810D01*
X12120477Y17994286D02*
X12120477Y17327619D01*
X11882381Y18375238D02*
X11644286Y17660952D01*
X12263334Y17660952D01*
X54951334Y15803619D02*
X54618000Y16279810D01*
X54379905Y15803619D02*
X54379905Y16803619D01*
X54760858Y16803619D01*
X54856096Y16756000D01*
X54903715Y16708381D01*
X54951334Y16613143D01*
X54951334Y16470286D01*
X54903715Y16375048D01*
X54856096Y16327429D01*
X54760858Y16279810D01*
X54379905Y16279810D01*
X55856096Y16803619D02*
X55379905Y16803619D01*
X55332286Y16327429D01*
X55379905Y16375048D01*
X55475143Y16422667D01*
X55713239Y16422667D01*
X55808477Y16375048D01*
X55856096Y16327429D01*
X55903715Y16232190D01*
X55903715Y15994095D01*
X55856096Y15898857D01*
X55808477Y15851238D01*
X55713239Y15803619D01*
X55475143Y15803619D01*
X55379905Y15851238D01*
X55332286Y15898857D01*
X54951334Y12501619D02*
X54618000Y12977810D01*
X54379905Y12501619D02*
X54379905Y13501619D01*
X54760858Y13501619D01*
X54856096Y13454000D01*
X54903715Y13406381D01*
X54951334Y13311143D01*
X54951334Y13168286D01*
X54903715Y13073048D01*
X54856096Y13025429D01*
X54760858Y12977810D01*
X54379905Y12977810D01*
X55808477Y13501619D02*
X55618000Y13501619D01*
X55522762Y13454000D01*
X55475143Y13406381D01*
X55379905Y13263524D01*
X55332286Y13073048D01*
X55332286Y12692095D01*
X55379905Y12596857D01*
X55427524Y12549238D01*
X55522762Y12501619D01*
X55713239Y12501619D01*
X55808477Y12549238D01*
X55856096Y12596857D01*
X55903715Y12692095D01*
X55903715Y12930190D01*
X55856096Y13025429D01*
X55808477Y13073048D01*
X55713239Y13120667D01*
X55522762Y13120667D01*
X55427524Y13073048D01*
X55379905Y13025429D01*
X55332286Y12930190D01*
X36663334Y15367619D02*
X36330000Y15843810D01*
X36091905Y15367619D02*
X36091905Y16367619D01*
X36472858Y16367619D01*
X36568096Y16320000D01*
X36615715Y16272381D01*
X36663334Y16177143D01*
X36663334Y16034286D01*
X36615715Y15939048D01*
X36568096Y15891429D01*
X36472858Y15843810D01*
X36091905Y15843810D01*
X36996667Y16367619D02*
X37663334Y16367619D01*
X37234762Y15367619D01*
X55205334Y5897619D02*
X54872000Y6373810D01*
X54633905Y5897619D02*
X54633905Y6897619D01*
X55014858Y6897619D01*
X55110096Y6850000D01*
X55157715Y6802381D01*
X55205334Y6707143D01*
X55205334Y6564286D01*
X55157715Y6469048D01*
X55110096Y6421429D01*
X55014858Y6373810D01*
X54633905Y6373810D01*
X55776762Y6469048D02*
X55681524Y6516667D01*
X55633905Y6564286D01*
X55586286Y6659524D01*
X55586286Y6707143D01*
X55633905Y6802381D01*
X55681524Y6850000D01*
X55776762Y6897619D01*
X55967239Y6897619D01*
X56062477Y6850000D01*
X56110096Y6802381D01*
X56157715Y6707143D01*
X56157715Y6659524D01*
X56110096Y6564286D01*
X56062477Y6516667D01*
X55967239Y6469048D01*
X55776762Y6469048D01*
X55681524Y6421429D01*
X55633905Y6373810D01*
X55586286Y6278571D01*
X55586286Y6088095D01*
X55633905Y5992857D01*
X55681524Y5945238D01*
X55776762Y5897619D01*
X55967239Y5897619D01*
X56062477Y5945238D01*
X56110096Y5992857D01*
X56157715Y6088095D01*
X56157715Y6278571D01*
X56110096Y6373810D01*
X56062477Y6421429D01*
X55967239Y6469048D01*
X17691386Y25681118D02*
X18263806Y25108698D01*
X18364821Y25075026D01*
X18432164Y25075026D01*
X18533179Y25108698D01*
X18667867Y25243386D01*
X18701539Y25344401D01*
X18701539Y25411744D01*
X18667867Y25512759D01*
X18095447Y26085179D01*
X19509661Y26085179D02*
X19105599Y25681118D01*
X19307630Y25883148D02*
X18600523Y26590255D01*
X18634195Y26421896D01*
X18634195Y26287210D01*
X18600523Y26186194D01*
X48260095Y34329619D02*
X48260095Y33520095D01*
X48307714Y33424857D01*
X48355333Y33377238D01*
X48450571Y33329619D01*
X48641048Y33329619D01*
X48736286Y33377238D01*
X48783905Y33424857D01*
X48831524Y33520095D01*
X48831524Y34329619D01*
X49260095Y34234381D02*
X49307714Y34282000D01*
X49402952Y34329619D01*
X49641048Y34329619D01*
X49736286Y34282000D01*
X49783905Y34234381D01*
X49831524Y34139143D01*
X49831524Y34043905D01*
X49783905Y33901048D01*
X49212476Y33329619D01*
X49831524Y33329619D01*
X64436667Y7957619D02*
X64436667Y7243333D01*
X64389047Y7100476D01*
X64293809Y7005238D01*
X64150952Y6957619D01*
X64055714Y6957619D01*
X65389048Y7957619D02*
X64912857Y7957619D01*
X64865238Y7481429D01*
X64912857Y7529048D01*
X65008095Y7576667D01*
X65246191Y7576667D01*
X65341429Y7529048D01*
X65389048Y7481429D01*
X65436667Y7386190D01*
X65436667Y7148095D01*
X65389048Y7052857D01*
X65341429Y7005238D01*
X65246191Y6957619D01*
X65008095Y6957619D01*
X64912857Y7005238D01*
X64865238Y7052857D01*
X11263334Y33424857D02*
X11215715Y33377238D01*
X11072858Y33329619D01*
X10977620Y33329619D01*
X10834762Y33377238D01*
X10739524Y33472476D01*
X10691905Y33567714D01*
X10644286Y33758190D01*
X10644286Y33901048D01*
X10691905Y34091524D01*
X10739524Y34186762D01*
X10834762Y34282000D01*
X10977620Y34329619D01*
X11072858Y34329619D01*
X11215715Y34282000D01*
X11263334Y34234381D01*
X12215715Y33329619D02*
X11644286Y33329619D01*
X11930000Y33329619D02*
X11930000Y34329619D01*
X11834762Y34186762D01*
X11739524Y34091524D01*
X11644286Y34043905D01*
X29678334Y15362857D02*
X29630715Y15315238D01*
X29487858Y15267619D01*
X29392620Y15267619D01*
X29249762Y15315238D01*
X29154524Y15410476D01*
X29106905Y15505714D01*
X29059286Y15696190D01*
X29059286Y15839048D01*
X29106905Y16029524D01*
X29154524Y16124762D01*
X29249762Y16220000D01*
X29392620Y16267619D01*
X29487858Y16267619D01*
X29630715Y16220000D01*
X29678334Y16172381D01*
X30011667Y16267619D02*
X30678334Y16267619D01*
X30249762Y15267619D01*
M02*
