%TF.GenerationSoftware,KiCad,Pcbnew,4.0.7-e2-6376~58~ubuntu17.04.1*%
%TF.CreationDate,2017-10-02T14:32:41+02:00*%
%TF.ProjectId,motion_led_pcb,6D6F74696F6E5F6C65645F7063622E6B,rev?*%
%TF.FileFunction,Copper,L2,Bot,Signal*%
%FSLAX46Y46*%
G04 Gerber Fmt 4.6, Leading zero omitted, Abs format (unit mm)*
G04 Created by KiCad (PCBNEW 4.0.7-e2-6376~58~ubuntu17.04.1) date Mon Oct  2 14:32:41 2017*
%MOMM*%
%LPD*%
G01*
G04 APERTURE LIST*
%ADD10C,0.100000*%
%ADD11R,1.700000X1.700000*%
%ADD12O,1.700000X1.700000*%
%ADD13R,1.800000X1.800000*%
%ADD14O,1.800000X1.800000*%
%ADD15C,0.600000*%
%ADD16C,0.250000*%
%ADD17C,1.000000*%
%ADD18C,0.254000*%
G04 APERTURE END LIST*
D10*
D11*
X3810000Y12065000D03*
D12*
X3810000Y9525000D03*
X3810000Y6985000D03*
X3810000Y4445000D03*
D11*
X36195000Y31750000D03*
D12*
X33655000Y31750000D03*
X31115000Y31750000D03*
X28575000Y31750000D03*
D11*
X3810000Y32385000D03*
D12*
X3810000Y29845000D03*
X3810000Y27305000D03*
D11*
X64770000Y17780000D03*
D12*
X64770000Y15240000D03*
X64770000Y12700000D03*
X64770000Y10160000D03*
D13*
X39370000Y5080000D03*
D14*
X36830000Y5080000D03*
X34290000Y5080000D03*
D13*
X27305000Y5080000D03*
D14*
X24765000Y5080000D03*
X22225000Y5080000D03*
D13*
X15240000Y5080000D03*
D14*
X12700000Y5080000D03*
X10160000Y5080000D03*
D11*
X3810000Y20955000D03*
D12*
X3810000Y18415000D03*
D11*
X64770000Y5080000D03*
D12*
X64770000Y2540000D03*
D15*
X19558000Y22352000D03*
X19050000Y13208000D03*
X33274000Y11684000D03*
X22352000Y10668000D03*
X30099000Y29210000D03*
X41910000Y19685000D03*
X48895000Y23495000D03*
X17475200Y17272000D03*
X27076400Y28067000D03*
X44932600Y10058400D03*
X55219600Y1879600D03*
X55245000Y8280400D03*
X29210000Y18415000D03*
X19050000Y27305000D03*
X17145000Y24765000D03*
X64135000Y29845000D03*
X47625000Y23495000D03*
X52070000Y19685000D03*
X54864000Y25908000D03*
X61595000Y19685000D03*
X19710400Y26644600D03*
X55270400Y17856200D03*
X25476200Y21209000D03*
X55168800Y12877800D03*
X20802600Y27533600D03*
X19405600Y21513800D03*
X9677400Y26670000D03*
X28244800Y16992600D03*
X22021800Y24003000D03*
X21920200Y22301200D03*
X22631400Y14046200D03*
X26797000Y17297400D03*
X20320000Y10668000D03*
X16713200Y18084800D03*
X12928600Y18110200D03*
X19202400Y15011400D03*
X13462000Y12700000D03*
X35077400Y15621000D03*
X27228800Y15621000D03*
D16*
X20574000Y21336000D02*
X19558000Y22352000D01*
X20574000Y14732000D02*
X20574000Y21336000D01*
X19050000Y13208000D02*
X20574000Y14732000D01*
X31242000Y11684000D02*
X33274000Y11684000D01*
X30226000Y10668000D02*
X31242000Y11684000D01*
X22352000Y10668000D02*
X30226000Y10668000D01*
X33782000Y29210000D02*
X36195000Y31623000D01*
X32867600Y29210000D02*
X33782000Y29210000D01*
X30099000Y29210000D02*
X32867600Y29210000D01*
X36195000Y31623000D02*
X36195000Y31750000D01*
X45085000Y19685000D02*
X41910000Y19685000D01*
X48895000Y23495000D02*
X45085000Y19685000D01*
X19050000Y27305000D02*
X17145000Y25400000D01*
X17145000Y25400000D02*
X17145000Y24765000D01*
D17*
X5664200Y34239200D02*
X3810000Y32385000D01*
X52374800Y34239200D02*
X5664200Y34239200D01*
X54864000Y31750000D02*
X52374800Y34239200D01*
X54864000Y25908000D02*
X54864000Y31750000D01*
X3810000Y32385000D02*
X5080000Y32385000D01*
X5080000Y32385000D02*
X6350000Y31115000D01*
X6350000Y31115000D02*
X6350000Y14605000D01*
X6350000Y14605000D02*
X3810000Y12065000D01*
X62865000Y5080000D02*
X64770000Y5080000D01*
X61595000Y6350000D02*
X62865000Y5080000D01*
X61595000Y19685000D02*
X61595000Y6350000D01*
D16*
X19710400Y26644600D02*
X19786600Y26720800D01*
X19786600Y26720800D02*
X28905200Y26720800D01*
X28905200Y26720800D02*
X37769800Y17856200D01*
X37769800Y17856200D02*
X55270400Y17856200D01*
X25476200Y21209000D02*
X33299400Y21209000D01*
X33299400Y21209000D02*
X37515800Y16992600D01*
X37515800Y16992600D02*
X49606200Y16992600D01*
X49606200Y16992600D02*
X51536600Y15062200D01*
X51536600Y15062200D02*
X51536600Y13589000D01*
X51536600Y13589000D02*
X52247800Y12877800D01*
X52247800Y12877800D02*
X55168800Y12877800D01*
D17*
X36830000Y5080000D02*
X36830000Y5715000D01*
X36830000Y5715000D02*
X33655000Y8890000D01*
X33655000Y8890000D02*
X4445000Y8890000D01*
X4445000Y8890000D02*
X3810000Y9525000D01*
X24765000Y5080000D02*
X24765000Y5715000D01*
X24765000Y5715000D02*
X23495000Y6985000D01*
X23495000Y6985000D02*
X3810000Y6985000D01*
X12700000Y5080000D02*
X12700000Y4445000D01*
X12700000Y4445000D02*
X10795000Y2540000D01*
X10795000Y2540000D02*
X5715000Y2540000D01*
X5715000Y2540000D02*
X3810000Y4445000D01*
D16*
X20802600Y27533600D02*
X23291800Y30022800D01*
X23291800Y30022800D02*
X29387800Y30022800D01*
X29387800Y30022800D02*
X31115000Y31750000D01*
X17576800Y21513800D02*
X19405600Y21513800D01*
X16484600Y22606000D02*
X17576800Y21513800D01*
X16484600Y25349200D02*
X16484600Y22606000D01*
X16179800Y25654000D02*
X16484600Y25349200D01*
X10693400Y25654000D02*
X16179800Y25654000D01*
X9677400Y26670000D02*
X10693400Y25654000D01*
X28244800Y16992600D02*
X22021800Y23215600D01*
X22021800Y23215600D02*
X22021800Y24003000D01*
X21920200Y22301200D02*
X22631400Y21590000D01*
X22631400Y21590000D02*
X22631400Y14046200D01*
X26797000Y17297400D02*
X26797000Y17145000D01*
X26797000Y17145000D02*
X20320000Y10668000D01*
X16713200Y18084800D02*
X16687800Y18110200D01*
X16687800Y18110200D02*
X12928600Y18110200D01*
X19202400Y15011400D02*
X18288000Y14097000D01*
X18288000Y14097000D02*
X14859000Y14097000D01*
X14859000Y14097000D02*
X13462000Y12700000D01*
X35077400Y15621000D02*
X27228800Y15621000D01*
D18*
G36*
X3702308Y33882440D02*
X2960000Y33882440D01*
X2724683Y33838162D01*
X2508559Y33699090D01*
X2363569Y33486890D01*
X2312560Y33235000D01*
X2312560Y31535000D01*
X2356838Y31299683D01*
X2495910Y31083559D01*
X2708110Y30938569D01*
X2775541Y30924914D01*
X2730853Y30895054D01*
X2408946Y30413285D01*
X2295907Y29845000D01*
X2408946Y29276715D01*
X2730853Y28794946D01*
X3071553Y28567298D01*
X2928642Y28500183D01*
X2538355Y28071924D01*
X2368524Y27661890D01*
X2489845Y27432000D01*
X3683000Y27432000D01*
X3683000Y27452000D01*
X3937000Y27452000D01*
X3937000Y27432000D01*
X3957000Y27432000D01*
X3957000Y27178000D01*
X3937000Y27178000D01*
X3937000Y25984181D01*
X4166892Y25863514D01*
X4691358Y26109817D01*
X5081645Y26538076D01*
X5215000Y26860044D01*
X5215000Y22115163D01*
X5124090Y22256441D01*
X4911890Y22401431D01*
X4660000Y22452440D01*
X2960000Y22452440D01*
X2724683Y22408162D01*
X2508559Y22269090D01*
X2363569Y22056890D01*
X2312560Y21805000D01*
X2312560Y20105000D01*
X2356838Y19869683D01*
X2495910Y19653559D01*
X2708110Y19508569D01*
X2775541Y19494914D01*
X2730853Y19465054D01*
X2408946Y18983285D01*
X2295907Y18415000D01*
X2408946Y17846715D01*
X2730853Y17364946D01*
X3212622Y17043039D01*
X3780907Y16930000D01*
X3839093Y16930000D01*
X4407378Y17043039D01*
X4889147Y17364946D01*
X5211054Y17846715D01*
X5215000Y17866553D01*
X5215000Y15075133D01*
X3702308Y13562440D01*
X2960000Y13562440D01*
X2724683Y13518162D01*
X2508559Y13379090D01*
X2363569Y13166890D01*
X2312560Y12915000D01*
X2312560Y11215000D01*
X2356838Y10979683D01*
X2495910Y10763559D01*
X2708110Y10618569D01*
X2775541Y10604914D01*
X2730853Y10575054D01*
X2408946Y10093285D01*
X2295907Y9525000D01*
X2408946Y8956715D01*
X2730853Y8474946D01*
X3060026Y8255000D01*
X2730853Y8035054D01*
X2408946Y7553285D01*
X2295907Y6985000D01*
X2408946Y6416715D01*
X2730853Y5934946D01*
X3060026Y5715000D01*
X2730853Y5495054D01*
X2408946Y5013285D01*
X2295907Y4445000D01*
X2408946Y3876715D01*
X2730853Y3394946D01*
X3212622Y3073039D01*
X3667263Y2982605D01*
X4912434Y1737434D01*
X5280654Y1491397D01*
X5715000Y1405000D01*
X10795000Y1405000D01*
X11229346Y1491397D01*
X11597566Y1737434D01*
X12043242Y2183110D01*
X63328524Y2183110D01*
X63498355Y1773076D01*
X63888642Y1344817D01*
X64413108Y1098514D01*
X64643000Y1219181D01*
X64643000Y2413000D01*
X64897000Y2413000D01*
X64897000Y1219181D01*
X65126892Y1098514D01*
X65651358Y1344817D01*
X66041645Y1773076D01*
X66211476Y2183110D01*
X66090155Y2413000D01*
X64897000Y2413000D01*
X64643000Y2413000D01*
X63449845Y2413000D01*
X63328524Y2183110D01*
X12043242Y2183110D01*
X13502566Y3642434D01*
X13593522Y3778559D01*
X13675272Y3900906D01*
X13738026Y3942837D01*
X13875910Y3728559D01*
X14088110Y3583569D01*
X14340000Y3532560D01*
X16140000Y3532560D01*
X16375317Y3576838D01*
X16591441Y3715910D01*
X16736431Y3928110D01*
X16787440Y4180000D01*
X16787440Y4715260D01*
X20733964Y4715260D01*
X20912760Y4283583D01*
X21317424Y3842034D01*
X21860258Y3588954D01*
X22098000Y3709003D01*
X22098000Y4953000D01*
X20854622Y4953000D01*
X20733964Y4715260D01*
X16787440Y4715260D01*
X16787440Y5850000D01*
X20901818Y5850000D01*
X20733964Y5444740D01*
X20854622Y5207000D01*
X22098000Y5207000D01*
X22098000Y5227000D01*
X22352000Y5227000D01*
X22352000Y5207000D01*
X22372000Y5207000D01*
X22372000Y4953000D01*
X22352000Y4953000D01*
X22352000Y3709003D01*
X22589742Y3588954D01*
X23132576Y3842034D01*
X23490499Y4232582D01*
X23649519Y3994591D01*
X24147509Y3661845D01*
X24734928Y3545000D01*
X24795072Y3545000D01*
X25382491Y3661845D01*
X25803026Y3942837D01*
X25940910Y3728559D01*
X26153110Y3583569D01*
X26405000Y3532560D01*
X28205000Y3532560D01*
X28440317Y3576838D01*
X28656441Y3715910D01*
X28801431Y3928110D01*
X28852440Y4180000D01*
X28852440Y4715260D01*
X32798964Y4715260D01*
X32977760Y4283583D01*
X33382424Y3842034D01*
X33925258Y3588954D01*
X34163000Y3709003D01*
X34163000Y4953000D01*
X32919622Y4953000D01*
X32798964Y4715260D01*
X28852440Y4715260D01*
X28852440Y5444740D01*
X32798964Y5444740D01*
X32919622Y5207000D01*
X34163000Y5207000D01*
X34163000Y6450997D01*
X33925258Y6571046D01*
X33382424Y6317966D01*
X32977760Y5876417D01*
X32798964Y5444740D01*
X28852440Y5444740D01*
X28852440Y5980000D01*
X28808162Y6215317D01*
X28669090Y6431441D01*
X28456890Y6576431D01*
X28205000Y6627440D01*
X26405000Y6627440D01*
X26169683Y6583162D01*
X25953559Y6444090D01*
X25808569Y6231890D01*
X25805281Y6215656D01*
X25740272Y6259094D01*
X25567566Y6517566D01*
X24330132Y7755000D01*
X33184868Y7755000D01*
X34464756Y6475112D01*
X34417000Y6450997D01*
X34417000Y5207000D01*
X34437000Y5207000D01*
X34437000Y4953000D01*
X34417000Y4953000D01*
X34417000Y3709003D01*
X34654742Y3588954D01*
X35197576Y3842034D01*
X35555499Y4232582D01*
X35714519Y3994591D01*
X36212509Y3661845D01*
X36799928Y3545000D01*
X36860072Y3545000D01*
X37447491Y3661845D01*
X37868026Y3942837D01*
X38005910Y3728559D01*
X38218110Y3583569D01*
X38470000Y3532560D01*
X40270000Y3532560D01*
X40505317Y3576838D01*
X40721441Y3715910D01*
X40866431Y3928110D01*
X40917440Y4180000D01*
X40917440Y5980000D01*
X40873162Y6215317D01*
X40734090Y6431441D01*
X40521890Y6576431D01*
X40270000Y6627440D01*
X38470000Y6627440D01*
X38234683Y6583162D01*
X38018559Y6444090D01*
X37873569Y6231890D01*
X37870281Y6215656D01*
X37805272Y6259094D01*
X37632566Y6517566D01*
X34457566Y9692566D01*
X34396810Y9733162D01*
X34089346Y9938603D01*
X33655000Y10025000D01*
X30605360Y10025000D01*
X30763401Y10130599D01*
X31556802Y10924000D01*
X32711537Y10924000D01*
X32743673Y10891808D01*
X33087201Y10749162D01*
X33459167Y10748838D01*
X33802943Y10890883D01*
X34066192Y11153673D01*
X34208838Y11497201D01*
X34209162Y11869167D01*
X34067117Y12212943D01*
X33804327Y12476192D01*
X33460799Y12618838D01*
X33088833Y12619162D01*
X32745057Y12477117D01*
X32711882Y12444000D01*
X31242000Y12444000D01*
X30951161Y12386148D01*
X30704599Y12221401D01*
X29911198Y11428000D01*
X22914463Y11428000D01*
X22882327Y11460192D01*
X22538799Y11602838D01*
X22329822Y11603020D01*
X26293752Y15566950D01*
X26293638Y15435833D01*
X26435683Y15092057D01*
X26698473Y14828808D01*
X27042001Y14686162D01*
X27413967Y14685838D01*
X27757743Y14827883D01*
X27790918Y14861000D01*
X34514937Y14861000D01*
X34547073Y14828808D01*
X34890601Y14686162D01*
X35262567Y14685838D01*
X35606343Y14827883D01*
X35869592Y15090673D01*
X36012238Y15434201D01*
X36012562Y15806167D01*
X35870517Y16149943D01*
X35607727Y16413192D01*
X35264199Y16555838D01*
X34892233Y16556162D01*
X34548457Y16414117D01*
X34515282Y16381000D01*
X28955577Y16381000D01*
X29036992Y16462273D01*
X29179638Y16805801D01*
X29179962Y17177767D01*
X29037917Y17521543D01*
X28775127Y17784792D01*
X28431599Y17927438D01*
X28384723Y17927479D01*
X25928137Y20384065D01*
X26005143Y20415883D01*
X26038318Y20449000D01*
X32984598Y20449000D01*
X36978399Y16455199D01*
X37224961Y16290452D01*
X37515800Y16232600D01*
X49291398Y16232600D01*
X50776600Y14747398D01*
X50776600Y13589000D01*
X50834452Y13298161D01*
X50999199Y13051599D01*
X51710399Y12340399D01*
X51956961Y12175652D01*
X52247800Y12117800D01*
X54606337Y12117800D01*
X54638473Y12085608D01*
X54982001Y11942962D01*
X55353967Y11942638D01*
X55697743Y12084683D01*
X55960992Y12347473D01*
X56103638Y12691001D01*
X56103962Y13062967D01*
X55961917Y13406743D01*
X55699127Y13669992D01*
X55355599Y13812638D01*
X54983633Y13812962D01*
X54639857Y13670917D01*
X54606682Y13637800D01*
X52562602Y13637800D01*
X52296600Y13903802D01*
X52296600Y15062200D01*
X52238748Y15353039D01*
X52074001Y15599601D01*
X50577402Y17096200D01*
X54707937Y17096200D01*
X54740073Y17064008D01*
X55083601Y16921362D01*
X55455567Y16921038D01*
X55799343Y17063083D01*
X56062592Y17325873D01*
X56205238Y17669401D01*
X56205562Y18041367D01*
X56063517Y18385143D01*
X55800727Y18648392D01*
X55457199Y18791038D01*
X55085233Y18791362D01*
X54741457Y18649317D01*
X54708282Y18616200D01*
X38084602Y18616200D01*
X37200969Y19499833D01*
X40974838Y19499833D01*
X41116883Y19156057D01*
X41379673Y18892808D01*
X41723201Y18750162D01*
X42095167Y18749838D01*
X42438943Y18891883D01*
X42472118Y18925000D01*
X45085000Y18925000D01*
X45375839Y18982852D01*
X45622401Y19147599D01*
X46159802Y19685000D01*
X60460000Y19685000D01*
X60460000Y6350000D01*
X60546397Y5915654D01*
X60590266Y5850000D01*
X60792434Y5547434D01*
X62062434Y4277434D01*
X62430654Y4031397D01*
X62865000Y3945000D01*
X63348808Y3945000D01*
X63455910Y3778559D01*
X63668110Y3633569D01*
X63776107Y3611699D01*
X63498355Y3306924D01*
X63328524Y2896890D01*
X63449845Y2667000D01*
X64643000Y2667000D01*
X64643000Y2687000D01*
X64897000Y2687000D01*
X64897000Y2667000D01*
X66090155Y2667000D01*
X66211476Y2896890D01*
X66041645Y3306924D01*
X65765499Y3609937D01*
X65855317Y3626838D01*
X66071441Y3765910D01*
X66216431Y3978110D01*
X66267440Y4230000D01*
X66267440Y5930000D01*
X66223162Y6165317D01*
X66084090Y6381441D01*
X65871890Y6526431D01*
X65620000Y6577440D01*
X63920000Y6577440D01*
X63684683Y6533162D01*
X63468559Y6394090D01*
X63346192Y6215000D01*
X63335132Y6215000D01*
X62730000Y6820132D01*
X62730000Y15240000D01*
X63255907Y15240000D01*
X63368946Y14671715D01*
X63690853Y14189946D01*
X64020026Y13970000D01*
X63690853Y13750054D01*
X63368946Y13268285D01*
X63255907Y12700000D01*
X63368946Y12131715D01*
X63690853Y11649946D01*
X64020026Y11430000D01*
X63690853Y11210054D01*
X63368946Y10728285D01*
X63255907Y10160000D01*
X63368946Y9591715D01*
X63690853Y9109946D01*
X64172622Y8788039D01*
X64740907Y8675000D01*
X64799093Y8675000D01*
X65367378Y8788039D01*
X65849147Y9109946D01*
X66171054Y9591715D01*
X66284093Y10160000D01*
X66171054Y10728285D01*
X65849147Y11210054D01*
X65519974Y11430000D01*
X65849147Y11649946D01*
X66171054Y12131715D01*
X66284093Y12700000D01*
X66171054Y13268285D01*
X65849147Y13750054D01*
X65519974Y13970000D01*
X65849147Y14189946D01*
X66171054Y14671715D01*
X66284093Y15240000D01*
X66171054Y15808285D01*
X65849147Y16290054D01*
X65805223Y16319403D01*
X65979698Y16391673D01*
X66158327Y16570301D01*
X66255000Y16803690D01*
X66255000Y17494250D01*
X66096250Y17653000D01*
X64897000Y17653000D01*
X64897000Y17633000D01*
X64643000Y17633000D01*
X64643000Y17653000D01*
X63443750Y17653000D01*
X63285000Y17494250D01*
X63285000Y16803690D01*
X63381673Y16570301D01*
X63560302Y16391673D01*
X63734777Y16319403D01*
X63690853Y16290054D01*
X63368946Y15808285D01*
X63255907Y15240000D01*
X62730000Y15240000D01*
X62730000Y18756310D01*
X63285000Y18756310D01*
X63285000Y18065750D01*
X63443750Y17907000D01*
X64643000Y17907000D01*
X64643000Y19106250D01*
X64897000Y19106250D01*
X64897000Y17907000D01*
X66096250Y17907000D01*
X66255000Y18065750D01*
X66255000Y18756310D01*
X66158327Y18989699D01*
X65979698Y19168327D01*
X65746309Y19265000D01*
X65055750Y19265000D01*
X64897000Y19106250D01*
X64643000Y19106250D01*
X64484250Y19265000D01*
X63793691Y19265000D01*
X63560302Y19168327D01*
X63381673Y18989699D01*
X63285000Y18756310D01*
X62730000Y18756310D01*
X62730000Y19685000D01*
X62643603Y20119346D01*
X62397566Y20487566D01*
X62029346Y20733603D01*
X61595000Y20820000D01*
X61160654Y20733603D01*
X60792434Y20487566D01*
X60546397Y20119346D01*
X60460000Y19685000D01*
X46159802Y19685000D01*
X49034680Y22559878D01*
X49080167Y22559838D01*
X49423943Y22701883D01*
X49687192Y22964673D01*
X49829838Y23308201D01*
X49830162Y23680167D01*
X49688117Y24023943D01*
X49425327Y24287192D01*
X49081799Y24429838D01*
X48709833Y24430162D01*
X48366057Y24288117D01*
X48102808Y24025327D01*
X47960162Y23681799D01*
X47960121Y23634923D01*
X44770198Y20445000D01*
X42472463Y20445000D01*
X42440327Y20477192D01*
X42096799Y20619838D01*
X41724833Y20620162D01*
X41381057Y20478117D01*
X41117808Y20215327D01*
X40975162Y19871799D01*
X40974838Y19499833D01*
X37200969Y19499833D01*
X29442601Y27258201D01*
X29196039Y27422948D01*
X28905200Y27480800D01*
X21824602Y27480800D01*
X23606602Y29262800D01*
X29164045Y29262800D01*
X29163838Y29024833D01*
X29305883Y28681057D01*
X29568673Y28417808D01*
X29912201Y28275162D01*
X30284167Y28274838D01*
X30627943Y28416883D01*
X30661118Y28450000D01*
X33782000Y28450000D01*
X34072839Y28507852D01*
X34319401Y28672599D01*
X35899362Y30252560D01*
X37045000Y30252560D01*
X37280317Y30296838D01*
X37496441Y30435910D01*
X37641431Y30648110D01*
X37692440Y30900000D01*
X37692440Y32600000D01*
X37648162Y32835317D01*
X37509090Y33051441D01*
X37431875Y33104200D01*
X51904668Y33104200D01*
X53729000Y31279868D01*
X53729000Y25908000D01*
X53815397Y25473654D01*
X54061434Y25105434D01*
X54429654Y24859397D01*
X54864000Y24773000D01*
X55298346Y24859397D01*
X55666566Y25105434D01*
X55912603Y25473654D01*
X55999000Y25908000D01*
X55999000Y31750000D01*
X55912603Y32184346D01*
X55666566Y32552566D01*
X53369132Y34850000D01*
X66986073Y34850000D01*
X67362182Y34775186D01*
X67621749Y34601750D01*
X67795188Y34342180D01*
X67870000Y33966073D01*
X67870000Y1593927D01*
X67795188Y1217820D01*
X67621749Y958250D01*
X67362182Y784814D01*
X66986073Y710000D01*
X1593927Y710000D01*
X1217820Y784812D01*
X958250Y958251D01*
X784814Y1217818D01*
X710000Y1593927D01*
X710000Y26948110D01*
X2368524Y26948110D01*
X2538355Y26538076D01*
X2928642Y26109817D01*
X3453108Y25863514D01*
X3683000Y25984181D01*
X3683000Y27178000D01*
X2489845Y27178000D01*
X2368524Y26948110D01*
X710000Y26948110D01*
X710000Y33966073D01*
X784814Y34342182D01*
X958250Y34601749D01*
X1217820Y34775188D01*
X1593927Y34850000D01*
X4669868Y34850000D01*
X3702308Y33882440D01*
X3702308Y33882440D01*
G37*
X3702308Y33882440D02*
X2960000Y33882440D01*
X2724683Y33838162D01*
X2508559Y33699090D01*
X2363569Y33486890D01*
X2312560Y33235000D01*
X2312560Y31535000D01*
X2356838Y31299683D01*
X2495910Y31083559D01*
X2708110Y30938569D01*
X2775541Y30924914D01*
X2730853Y30895054D01*
X2408946Y30413285D01*
X2295907Y29845000D01*
X2408946Y29276715D01*
X2730853Y28794946D01*
X3071553Y28567298D01*
X2928642Y28500183D01*
X2538355Y28071924D01*
X2368524Y27661890D01*
X2489845Y27432000D01*
X3683000Y27432000D01*
X3683000Y27452000D01*
X3937000Y27452000D01*
X3937000Y27432000D01*
X3957000Y27432000D01*
X3957000Y27178000D01*
X3937000Y27178000D01*
X3937000Y25984181D01*
X4166892Y25863514D01*
X4691358Y26109817D01*
X5081645Y26538076D01*
X5215000Y26860044D01*
X5215000Y22115163D01*
X5124090Y22256441D01*
X4911890Y22401431D01*
X4660000Y22452440D01*
X2960000Y22452440D01*
X2724683Y22408162D01*
X2508559Y22269090D01*
X2363569Y22056890D01*
X2312560Y21805000D01*
X2312560Y20105000D01*
X2356838Y19869683D01*
X2495910Y19653559D01*
X2708110Y19508569D01*
X2775541Y19494914D01*
X2730853Y19465054D01*
X2408946Y18983285D01*
X2295907Y18415000D01*
X2408946Y17846715D01*
X2730853Y17364946D01*
X3212622Y17043039D01*
X3780907Y16930000D01*
X3839093Y16930000D01*
X4407378Y17043039D01*
X4889147Y17364946D01*
X5211054Y17846715D01*
X5215000Y17866553D01*
X5215000Y15075133D01*
X3702308Y13562440D01*
X2960000Y13562440D01*
X2724683Y13518162D01*
X2508559Y13379090D01*
X2363569Y13166890D01*
X2312560Y12915000D01*
X2312560Y11215000D01*
X2356838Y10979683D01*
X2495910Y10763559D01*
X2708110Y10618569D01*
X2775541Y10604914D01*
X2730853Y10575054D01*
X2408946Y10093285D01*
X2295907Y9525000D01*
X2408946Y8956715D01*
X2730853Y8474946D01*
X3060026Y8255000D01*
X2730853Y8035054D01*
X2408946Y7553285D01*
X2295907Y6985000D01*
X2408946Y6416715D01*
X2730853Y5934946D01*
X3060026Y5715000D01*
X2730853Y5495054D01*
X2408946Y5013285D01*
X2295907Y4445000D01*
X2408946Y3876715D01*
X2730853Y3394946D01*
X3212622Y3073039D01*
X3667263Y2982605D01*
X4912434Y1737434D01*
X5280654Y1491397D01*
X5715000Y1405000D01*
X10795000Y1405000D01*
X11229346Y1491397D01*
X11597566Y1737434D01*
X12043242Y2183110D01*
X63328524Y2183110D01*
X63498355Y1773076D01*
X63888642Y1344817D01*
X64413108Y1098514D01*
X64643000Y1219181D01*
X64643000Y2413000D01*
X64897000Y2413000D01*
X64897000Y1219181D01*
X65126892Y1098514D01*
X65651358Y1344817D01*
X66041645Y1773076D01*
X66211476Y2183110D01*
X66090155Y2413000D01*
X64897000Y2413000D01*
X64643000Y2413000D01*
X63449845Y2413000D01*
X63328524Y2183110D01*
X12043242Y2183110D01*
X13502566Y3642434D01*
X13593522Y3778559D01*
X13675272Y3900906D01*
X13738026Y3942837D01*
X13875910Y3728559D01*
X14088110Y3583569D01*
X14340000Y3532560D01*
X16140000Y3532560D01*
X16375317Y3576838D01*
X16591441Y3715910D01*
X16736431Y3928110D01*
X16787440Y4180000D01*
X16787440Y4715260D01*
X20733964Y4715260D01*
X20912760Y4283583D01*
X21317424Y3842034D01*
X21860258Y3588954D01*
X22098000Y3709003D01*
X22098000Y4953000D01*
X20854622Y4953000D01*
X20733964Y4715260D01*
X16787440Y4715260D01*
X16787440Y5850000D01*
X20901818Y5850000D01*
X20733964Y5444740D01*
X20854622Y5207000D01*
X22098000Y5207000D01*
X22098000Y5227000D01*
X22352000Y5227000D01*
X22352000Y5207000D01*
X22372000Y5207000D01*
X22372000Y4953000D01*
X22352000Y4953000D01*
X22352000Y3709003D01*
X22589742Y3588954D01*
X23132576Y3842034D01*
X23490499Y4232582D01*
X23649519Y3994591D01*
X24147509Y3661845D01*
X24734928Y3545000D01*
X24795072Y3545000D01*
X25382491Y3661845D01*
X25803026Y3942837D01*
X25940910Y3728559D01*
X26153110Y3583569D01*
X26405000Y3532560D01*
X28205000Y3532560D01*
X28440317Y3576838D01*
X28656441Y3715910D01*
X28801431Y3928110D01*
X28852440Y4180000D01*
X28852440Y4715260D01*
X32798964Y4715260D01*
X32977760Y4283583D01*
X33382424Y3842034D01*
X33925258Y3588954D01*
X34163000Y3709003D01*
X34163000Y4953000D01*
X32919622Y4953000D01*
X32798964Y4715260D01*
X28852440Y4715260D01*
X28852440Y5444740D01*
X32798964Y5444740D01*
X32919622Y5207000D01*
X34163000Y5207000D01*
X34163000Y6450997D01*
X33925258Y6571046D01*
X33382424Y6317966D01*
X32977760Y5876417D01*
X32798964Y5444740D01*
X28852440Y5444740D01*
X28852440Y5980000D01*
X28808162Y6215317D01*
X28669090Y6431441D01*
X28456890Y6576431D01*
X28205000Y6627440D01*
X26405000Y6627440D01*
X26169683Y6583162D01*
X25953559Y6444090D01*
X25808569Y6231890D01*
X25805281Y6215656D01*
X25740272Y6259094D01*
X25567566Y6517566D01*
X24330132Y7755000D01*
X33184868Y7755000D01*
X34464756Y6475112D01*
X34417000Y6450997D01*
X34417000Y5207000D01*
X34437000Y5207000D01*
X34437000Y4953000D01*
X34417000Y4953000D01*
X34417000Y3709003D01*
X34654742Y3588954D01*
X35197576Y3842034D01*
X35555499Y4232582D01*
X35714519Y3994591D01*
X36212509Y3661845D01*
X36799928Y3545000D01*
X36860072Y3545000D01*
X37447491Y3661845D01*
X37868026Y3942837D01*
X38005910Y3728559D01*
X38218110Y3583569D01*
X38470000Y3532560D01*
X40270000Y3532560D01*
X40505317Y3576838D01*
X40721441Y3715910D01*
X40866431Y3928110D01*
X40917440Y4180000D01*
X40917440Y5980000D01*
X40873162Y6215317D01*
X40734090Y6431441D01*
X40521890Y6576431D01*
X40270000Y6627440D01*
X38470000Y6627440D01*
X38234683Y6583162D01*
X38018559Y6444090D01*
X37873569Y6231890D01*
X37870281Y6215656D01*
X37805272Y6259094D01*
X37632566Y6517566D01*
X34457566Y9692566D01*
X34396810Y9733162D01*
X34089346Y9938603D01*
X33655000Y10025000D01*
X30605360Y10025000D01*
X30763401Y10130599D01*
X31556802Y10924000D01*
X32711537Y10924000D01*
X32743673Y10891808D01*
X33087201Y10749162D01*
X33459167Y10748838D01*
X33802943Y10890883D01*
X34066192Y11153673D01*
X34208838Y11497201D01*
X34209162Y11869167D01*
X34067117Y12212943D01*
X33804327Y12476192D01*
X33460799Y12618838D01*
X33088833Y12619162D01*
X32745057Y12477117D01*
X32711882Y12444000D01*
X31242000Y12444000D01*
X30951161Y12386148D01*
X30704599Y12221401D01*
X29911198Y11428000D01*
X22914463Y11428000D01*
X22882327Y11460192D01*
X22538799Y11602838D01*
X22329822Y11603020D01*
X26293752Y15566950D01*
X26293638Y15435833D01*
X26435683Y15092057D01*
X26698473Y14828808D01*
X27042001Y14686162D01*
X27413967Y14685838D01*
X27757743Y14827883D01*
X27790918Y14861000D01*
X34514937Y14861000D01*
X34547073Y14828808D01*
X34890601Y14686162D01*
X35262567Y14685838D01*
X35606343Y14827883D01*
X35869592Y15090673D01*
X36012238Y15434201D01*
X36012562Y15806167D01*
X35870517Y16149943D01*
X35607727Y16413192D01*
X35264199Y16555838D01*
X34892233Y16556162D01*
X34548457Y16414117D01*
X34515282Y16381000D01*
X28955577Y16381000D01*
X29036992Y16462273D01*
X29179638Y16805801D01*
X29179962Y17177767D01*
X29037917Y17521543D01*
X28775127Y17784792D01*
X28431599Y17927438D01*
X28384723Y17927479D01*
X25928137Y20384065D01*
X26005143Y20415883D01*
X26038318Y20449000D01*
X32984598Y20449000D01*
X36978399Y16455199D01*
X37224961Y16290452D01*
X37515800Y16232600D01*
X49291398Y16232600D01*
X50776600Y14747398D01*
X50776600Y13589000D01*
X50834452Y13298161D01*
X50999199Y13051599D01*
X51710399Y12340399D01*
X51956961Y12175652D01*
X52247800Y12117800D01*
X54606337Y12117800D01*
X54638473Y12085608D01*
X54982001Y11942962D01*
X55353967Y11942638D01*
X55697743Y12084683D01*
X55960992Y12347473D01*
X56103638Y12691001D01*
X56103962Y13062967D01*
X55961917Y13406743D01*
X55699127Y13669992D01*
X55355599Y13812638D01*
X54983633Y13812962D01*
X54639857Y13670917D01*
X54606682Y13637800D01*
X52562602Y13637800D01*
X52296600Y13903802D01*
X52296600Y15062200D01*
X52238748Y15353039D01*
X52074001Y15599601D01*
X50577402Y17096200D01*
X54707937Y17096200D01*
X54740073Y17064008D01*
X55083601Y16921362D01*
X55455567Y16921038D01*
X55799343Y17063083D01*
X56062592Y17325873D01*
X56205238Y17669401D01*
X56205562Y18041367D01*
X56063517Y18385143D01*
X55800727Y18648392D01*
X55457199Y18791038D01*
X55085233Y18791362D01*
X54741457Y18649317D01*
X54708282Y18616200D01*
X38084602Y18616200D01*
X37200969Y19499833D01*
X40974838Y19499833D01*
X41116883Y19156057D01*
X41379673Y18892808D01*
X41723201Y18750162D01*
X42095167Y18749838D01*
X42438943Y18891883D01*
X42472118Y18925000D01*
X45085000Y18925000D01*
X45375839Y18982852D01*
X45622401Y19147599D01*
X46159802Y19685000D01*
X60460000Y19685000D01*
X60460000Y6350000D01*
X60546397Y5915654D01*
X60590266Y5850000D01*
X60792434Y5547434D01*
X62062434Y4277434D01*
X62430654Y4031397D01*
X62865000Y3945000D01*
X63348808Y3945000D01*
X63455910Y3778559D01*
X63668110Y3633569D01*
X63776107Y3611699D01*
X63498355Y3306924D01*
X63328524Y2896890D01*
X63449845Y2667000D01*
X64643000Y2667000D01*
X64643000Y2687000D01*
X64897000Y2687000D01*
X64897000Y2667000D01*
X66090155Y2667000D01*
X66211476Y2896890D01*
X66041645Y3306924D01*
X65765499Y3609937D01*
X65855317Y3626838D01*
X66071441Y3765910D01*
X66216431Y3978110D01*
X66267440Y4230000D01*
X66267440Y5930000D01*
X66223162Y6165317D01*
X66084090Y6381441D01*
X65871890Y6526431D01*
X65620000Y6577440D01*
X63920000Y6577440D01*
X63684683Y6533162D01*
X63468559Y6394090D01*
X63346192Y6215000D01*
X63335132Y6215000D01*
X62730000Y6820132D01*
X62730000Y15240000D01*
X63255907Y15240000D01*
X63368946Y14671715D01*
X63690853Y14189946D01*
X64020026Y13970000D01*
X63690853Y13750054D01*
X63368946Y13268285D01*
X63255907Y12700000D01*
X63368946Y12131715D01*
X63690853Y11649946D01*
X64020026Y11430000D01*
X63690853Y11210054D01*
X63368946Y10728285D01*
X63255907Y10160000D01*
X63368946Y9591715D01*
X63690853Y9109946D01*
X64172622Y8788039D01*
X64740907Y8675000D01*
X64799093Y8675000D01*
X65367378Y8788039D01*
X65849147Y9109946D01*
X66171054Y9591715D01*
X66284093Y10160000D01*
X66171054Y10728285D01*
X65849147Y11210054D01*
X65519974Y11430000D01*
X65849147Y11649946D01*
X66171054Y12131715D01*
X66284093Y12700000D01*
X66171054Y13268285D01*
X65849147Y13750054D01*
X65519974Y13970000D01*
X65849147Y14189946D01*
X66171054Y14671715D01*
X66284093Y15240000D01*
X66171054Y15808285D01*
X65849147Y16290054D01*
X65805223Y16319403D01*
X65979698Y16391673D01*
X66158327Y16570301D01*
X66255000Y16803690D01*
X66255000Y17494250D01*
X66096250Y17653000D01*
X64897000Y17653000D01*
X64897000Y17633000D01*
X64643000Y17633000D01*
X64643000Y17653000D01*
X63443750Y17653000D01*
X63285000Y17494250D01*
X63285000Y16803690D01*
X63381673Y16570301D01*
X63560302Y16391673D01*
X63734777Y16319403D01*
X63690853Y16290054D01*
X63368946Y15808285D01*
X63255907Y15240000D01*
X62730000Y15240000D01*
X62730000Y18756310D01*
X63285000Y18756310D01*
X63285000Y18065750D01*
X63443750Y17907000D01*
X64643000Y17907000D01*
X64643000Y19106250D01*
X64897000Y19106250D01*
X64897000Y17907000D01*
X66096250Y17907000D01*
X66255000Y18065750D01*
X66255000Y18756310D01*
X66158327Y18989699D01*
X65979698Y19168327D01*
X65746309Y19265000D01*
X65055750Y19265000D01*
X64897000Y19106250D01*
X64643000Y19106250D01*
X64484250Y19265000D01*
X63793691Y19265000D01*
X63560302Y19168327D01*
X63381673Y18989699D01*
X63285000Y18756310D01*
X62730000Y18756310D01*
X62730000Y19685000D01*
X62643603Y20119346D01*
X62397566Y20487566D01*
X62029346Y20733603D01*
X61595000Y20820000D01*
X61160654Y20733603D01*
X60792434Y20487566D01*
X60546397Y20119346D01*
X60460000Y19685000D01*
X46159802Y19685000D01*
X49034680Y22559878D01*
X49080167Y22559838D01*
X49423943Y22701883D01*
X49687192Y22964673D01*
X49829838Y23308201D01*
X49830162Y23680167D01*
X49688117Y24023943D01*
X49425327Y24287192D01*
X49081799Y24429838D01*
X48709833Y24430162D01*
X48366057Y24288117D01*
X48102808Y24025327D01*
X47960162Y23681799D01*
X47960121Y23634923D01*
X44770198Y20445000D01*
X42472463Y20445000D01*
X42440327Y20477192D01*
X42096799Y20619838D01*
X41724833Y20620162D01*
X41381057Y20478117D01*
X41117808Y20215327D01*
X40975162Y19871799D01*
X40974838Y19499833D01*
X37200969Y19499833D01*
X29442601Y27258201D01*
X29196039Y27422948D01*
X28905200Y27480800D01*
X21824602Y27480800D01*
X23606602Y29262800D01*
X29164045Y29262800D01*
X29163838Y29024833D01*
X29305883Y28681057D01*
X29568673Y28417808D01*
X29912201Y28275162D01*
X30284167Y28274838D01*
X30627943Y28416883D01*
X30661118Y28450000D01*
X33782000Y28450000D01*
X34072839Y28507852D01*
X34319401Y28672599D01*
X35899362Y30252560D01*
X37045000Y30252560D01*
X37280317Y30296838D01*
X37496441Y30435910D01*
X37641431Y30648110D01*
X37692440Y30900000D01*
X37692440Y32600000D01*
X37648162Y32835317D01*
X37509090Y33051441D01*
X37431875Y33104200D01*
X51904668Y33104200D01*
X53729000Y31279868D01*
X53729000Y25908000D01*
X53815397Y25473654D01*
X54061434Y25105434D01*
X54429654Y24859397D01*
X54864000Y24773000D01*
X55298346Y24859397D01*
X55666566Y25105434D01*
X55912603Y25473654D01*
X55999000Y25908000D01*
X55999000Y31750000D01*
X55912603Y32184346D01*
X55666566Y32552566D01*
X53369132Y34850000D01*
X66986073Y34850000D01*
X67362182Y34775186D01*
X67621749Y34601750D01*
X67795188Y34342180D01*
X67870000Y33966073D01*
X67870000Y1593927D01*
X67795188Y1217820D01*
X67621749Y958250D01*
X67362182Y784814D01*
X66986073Y710000D01*
X1593927Y710000D01*
X1217820Y784812D01*
X958250Y958251D01*
X784814Y1217818D01*
X710000Y1593927D01*
X710000Y26948110D01*
X2368524Y26948110D01*
X2538355Y26538076D01*
X2928642Y26109817D01*
X3453108Y25863514D01*
X3683000Y25984181D01*
X3683000Y27178000D01*
X2489845Y27178000D01*
X2368524Y26948110D01*
X710000Y26948110D01*
X710000Y33966073D01*
X784814Y34342182D01*
X958250Y34601749D01*
X1217820Y34775188D01*
X1593927Y34850000D01*
X4669868Y34850000D01*
X3702308Y33882440D01*
G36*
X8668964Y5444740D02*
X8789622Y5207000D01*
X10033000Y5207000D01*
X10033000Y5227000D01*
X10287000Y5227000D01*
X10287000Y5207000D01*
X10307000Y5207000D01*
X10307000Y4953000D01*
X10287000Y4953000D01*
X10287000Y4933000D01*
X10033000Y4933000D01*
X10033000Y4953000D01*
X8789622Y4953000D01*
X8668964Y4715260D01*
X8847760Y4283583D01*
X9252424Y3842034D01*
X9610697Y3675000D01*
X6185132Y3675000D01*
X5301488Y4558644D01*
X5211054Y5013285D01*
X4889147Y5495054D01*
X4559974Y5715000D01*
X4762016Y5850000D01*
X8836818Y5850000D01*
X8668964Y5444740D01*
X8668964Y5444740D01*
G37*
X8668964Y5444740D02*
X8789622Y5207000D01*
X10033000Y5207000D01*
X10033000Y5227000D01*
X10287000Y5227000D01*
X10287000Y5207000D01*
X10307000Y5207000D01*
X10307000Y4953000D01*
X10287000Y4953000D01*
X10287000Y4933000D01*
X10033000Y4933000D01*
X10033000Y4953000D01*
X8789622Y4953000D01*
X8668964Y4715260D01*
X8847760Y4283583D01*
X9252424Y3842034D01*
X9610697Y3675000D01*
X6185132Y3675000D01*
X5301488Y4558644D01*
X5211054Y5013285D01*
X4889147Y5495054D01*
X4559974Y5715000D01*
X4762016Y5850000D01*
X8836818Y5850000D01*
X8668964Y5444740D01*
G36*
X27808076Y33021645D02*
X27379817Y32631358D01*
X27133514Y32106892D01*
X27254181Y31877000D01*
X28448000Y31877000D01*
X28448000Y31897000D01*
X28702000Y31897000D01*
X28702000Y31877000D01*
X28722000Y31877000D01*
X28722000Y31623000D01*
X28702000Y31623000D01*
X28702000Y31603000D01*
X28448000Y31603000D01*
X28448000Y31623000D01*
X27254181Y31623000D01*
X27133514Y31393108D01*
X27379817Y30868642D01*
X27474011Y30782800D01*
X23291800Y30782800D01*
X23000960Y30724948D01*
X22754399Y30560201D01*
X20662920Y28468722D01*
X20617433Y28468762D01*
X20273657Y28326717D01*
X20010408Y28063927D01*
X19867762Y27720399D01*
X19867639Y27579464D01*
X19525233Y27579762D01*
X19181457Y27437717D01*
X18918208Y27174927D01*
X18775562Y26831399D01*
X18775238Y26459433D01*
X18917283Y26115657D01*
X19180073Y25852408D01*
X19523601Y25709762D01*
X19895567Y25709438D01*
X20239343Y25851483D01*
X20348851Y25960800D01*
X28590398Y25960800D01*
X32582198Y21969000D01*
X26038663Y21969000D01*
X26006527Y22001192D01*
X25662999Y22143838D01*
X25291033Y22144162D01*
X24947257Y22002117D01*
X24684008Y21739327D01*
X24651401Y21660801D01*
X22821485Y23490717D01*
X22956638Y23816201D01*
X22956962Y24188167D01*
X22814917Y24531943D01*
X22552127Y24795192D01*
X22208599Y24937838D01*
X21836633Y24938162D01*
X21492857Y24796117D01*
X21229608Y24533327D01*
X21086962Y24189799D01*
X21086638Y23817833D01*
X21228683Y23474057D01*
X21261800Y23440882D01*
X21261800Y23215600D01*
X21303375Y23006589D01*
X21128008Y22831527D01*
X20985362Y22487999D01*
X20985038Y22116033D01*
X21066907Y21917895D01*
X20493122Y22491680D01*
X20493162Y22537167D01*
X20351117Y22880943D01*
X20088327Y23144192D01*
X19744799Y23286838D01*
X19372833Y23287162D01*
X19029057Y23145117D01*
X18765808Y22882327D01*
X18623162Y22538799D01*
X18622931Y22273800D01*
X17891602Y22273800D01*
X17244600Y22920802D01*
X17244600Y25349200D01*
X17186748Y25640039D01*
X17186748Y25640040D01*
X17022001Y25886601D01*
X16717201Y26191401D01*
X16470639Y26356148D01*
X16179800Y26414000D01*
X11008202Y26414000D01*
X10612522Y26809680D01*
X10612562Y26855167D01*
X10470517Y27198943D01*
X10207727Y27462192D01*
X9864199Y27604838D01*
X9492233Y27605162D01*
X9148457Y27463117D01*
X8885208Y27200327D01*
X8742562Y26856799D01*
X8742238Y26484833D01*
X8884283Y26141057D01*
X9147073Y25877808D01*
X9490601Y25735162D01*
X9537477Y25735121D01*
X10155999Y25116599D01*
X10402561Y24951852D01*
X10693400Y24894000D01*
X15724600Y24894000D01*
X15724600Y22606000D01*
X15782452Y22315161D01*
X15947199Y22068599D01*
X17039399Y20976399D01*
X17285961Y20811652D01*
X17576800Y20753800D01*
X18843137Y20753800D01*
X18875273Y20721608D01*
X19218801Y20578962D01*
X19590767Y20578638D01*
X19814000Y20670876D01*
X19814000Y15722177D01*
X19732727Y15803592D01*
X19389199Y15946238D01*
X19017233Y15946562D01*
X18673457Y15804517D01*
X18410208Y15541727D01*
X18267562Y15198199D01*
X18267521Y15151323D01*
X17973198Y14857000D01*
X14859000Y14857000D01*
X14568160Y14799148D01*
X14321599Y14634401D01*
X13322320Y13635122D01*
X13276833Y13635162D01*
X12933057Y13493117D01*
X12669808Y13230327D01*
X12527162Y12886799D01*
X12526838Y12514833D01*
X12668883Y12171057D01*
X12931673Y11907808D01*
X13275201Y11765162D01*
X13647167Y11764838D01*
X13990943Y11906883D01*
X14254192Y12169673D01*
X14396838Y12513201D01*
X14396879Y12560077D01*
X15173802Y13337000D01*
X18115112Y13337000D01*
X18114838Y13022833D01*
X18256883Y12679057D01*
X18519673Y12415808D01*
X18863201Y12273162D01*
X19235167Y12272838D01*
X19578943Y12414883D01*
X19842192Y12677673D01*
X19984838Y13021201D01*
X19984879Y13068077D01*
X21111401Y14194599D01*
X21276148Y14441160D01*
X21303074Y14576527D01*
X21334000Y14732000D01*
X21334000Y21336000D01*
X21277119Y21621959D01*
X21389873Y21509008D01*
X21733401Y21366362D01*
X21780277Y21366321D01*
X21871400Y21275198D01*
X21871400Y14608663D01*
X21839208Y14576527D01*
X21696562Y14232999D01*
X21696238Y13861033D01*
X21838283Y13517257D01*
X21966257Y13389059D01*
X20180320Y11603122D01*
X20134833Y11603162D01*
X19791057Y11461117D01*
X19527808Y11198327D01*
X19385162Y10854799D01*
X19384838Y10482833D01*
X19526883Y10139057D01*
X19640741Y10025000D01*
X5224637Y10025000D01*
X5211054Y10093285D01*
X4889147Y10575054D01*
X4847548Y10602850D01*
X4895317Y10611838D01*
X5111441Y10750910D01*
X5256431Y10963110D01*
X5307440Y11215000D01*
X5307440Y11957308D01*
X7152566Y13802433D01*
X7398603Y14170654D01*
X7408261Y14219208D01*
X7485000Y14605000D01*
X7485000Y17925033D01*
X11993438Y17925033D01*
X12135483Y17581257D01*
X12398273Y17318008D01*
X12741801Y17175362D01*
X13113767Y17175038D01*
X13457543Y17317083D01*
X13490718Y17350200D01*
X16125381Y17350200D01*
X16182873Y17292608D01*
X16526401Y17149962D01*
X16898367Y17149638D01*
X17242143Y17291683D01*
X17505392Y17554473D01*
X17648038Y17898001D01*
X17648362Y18269967D01*
X17506317Y18613743D01*
X17243527Y18876992D01*
X16899999Y19019638D01*
X16528033Y19019962D01*
X16184257Y18877917D01*
X16176527Y18870200D01*
X13491063Y18870200D01*
X13458927Y18902392D01*
X13115399Y19045038D01*
X12743433Y19045362D01*
X12399657Y18903317D01*
X12136408Y18640527D01*
X11993762Y18296999D01*
X11993438Y17925033D01*
X7485000Y17925033D01*
X7485000Y31115000D01*
X7398603Y31549346D01*
X7152566Y31917566D01*
X6050132Y33020000D01*
X6134332Y33104200D01*
X28007394Y33104200D01*
X27808076Y33021645D01*
X27808076Y33021645D01*
G37*
X27808076Y33021645D02*
X27379817Y32631358D01*
X27133514Y32106892D01*
X27254181Y31877000D01*
X28448000Y31877000D01*
X28448000Y31897000D01*
X28702000Y31897000D01*
X28702000Y31877000D01*
X28722000Y31877000D01*
X28722000Y31623000D01*
X28702000Y31623000D01*
X28702000Y31603000D01*
X28448000Y31603000D01*
X28448000Y31623000D01*
X27254181Y31623000D01*
X27133514Y31393108D01*
X27379817Y30868642D01*
X27474011Y30782800D01*
X23291800Y30782800D01*
X23000960Y30724948D01*
X22754399Y30560201D01*
X20662920Y28468722D01*
X20617433Y28468762D01*
X20273657Y28326717D01*
X20010408Y28063927D01*
X19867762Y27720399D01*
X19867639Y27579464D01*
X19525233Y27579762D01*
X19181457Y27437717D01*
X18918208Y27174927D01*
X18775562Y26831399D01*
X18775238Y26459433D01*
X18917283Y26115657D01*
X19180073Y25852408D01*
X19523601Y25709762D01*
X19895567Y25709438D01*
X20239343Y25851483D01*
X20348851Y25960800D01*
X28590398Y25960800D01*
X32582198Y21969000D01*
X26038663Y21969000D01*
X26006527Y22001192D01*
X25662999Y22143838D01*
X25291033Y22144162D01*
X24947257Y22002117D01*
X24684008Y21739327D01*
X24651401Y21660801D01*
X22821485Y23490717D01*
X22956638Y23816201D01*
X22956962Y24188167D01*
X22814917Y24531943D01*
X22552127Y24795192D01*
X22208599Y24937838D01*
X21836633Y24938162D01*
X21492857Y24796117D01*
X21229608Y24533327D01*
X21086962Y24189799D01*
X21086638Y23817833D01*
X21228683Y23474057D01*
X21261800Y23440882D01*
X21261800Y23215600D01*
X21303375Y23006589D01*
X21128008Y22831527D01*
X20985362Y22487999D01*
X20985038Y22116033D01*
X21066907Y21917895D01*
X20493122Y22491680D01*
X20493162Y22537167D01*
X20351117Y22880943D01*
X20088327Y23144192D01*
X19744799Y23286838D01*
X19372833Y23287162D01*
X19029057Y23145117D01*
X18765808Y22882327D01*
X18623162Y22538799D01*
X18622931Y22273800D01*
X17891602Y22273800D01*
X17244600Y22920802D01*
X17244600Y25349200D01*
X17186748Y25640039D01*
X17186748Y25640040D01*
X17022001Y25886601D01*
X16717201Y26191401D01*
X16470639Y26356148D01*
X16179800Y26414000D01*
X11008202Y26414000D01*
X10612522Y26809680D01*
X10612562Y26855167D01*
X10470517Y27198943D01*
X10207727Y27462192D01*
X9864199Y27604838D01*
X9492233Y27605162D01*
X9148457Y27463117D01*
X8885208Y27200327D01*
X8742562Y26856799D01*
X8742238Y26484833D01*
X8884283Y26141057D01*
X9147073Y25877808D01*
X9490601Y25735162D01*
X9537477Y25735121D01*
X10155999Y25116599D01*
X10402561Y24951852D01*
X10693400Y24894000D01*
X15724600Y24894000D01*
X15724600Y22606000D01*
X15782452Y22315161D01*
X15947199Y22068599D01*
X17039399Y20976399D01*
X17285961Y20811652D01*
X17576800Y20753800D01*
X18843137Y20753800D01*
X18875273Y20721608D01*
X19218801Y20578962D01*
X19590767Y20578638D01*
X19814000Y20670876D01*
X19814000Y15722177D01*
X19732727Y15803592D01*
X19389199Y15946238D01*
X19017233Y15946562D01*
X18673457Y15804517D01*
X18410208Y15541727D01*
X18267562Y15198199D01*
X18267521Y15151323D01*
X17973198Y14857000D01*
X14859000Y14857000D01*
X14568160Y14799148D01*
X14321599Y14634401D01*
X13322320Y13635122D01*
X13276833Y13635162D01*
X12933057Y13493117D01*
X12669808Y13230327D01*
X12527162Y12886799D01*
X12526838Y12514833D01*
X12668883Y12171057D01*
X12931673Y11907808D01*
X13275201Y11765162D01*
X13647167Y11764838D01*
X13990943Y11906883D01*
X14254192Y12169673D01*
X14396838Y12513201D01*
X14396879Y12560077D01*
X15173802Y13337000D01*
X18115112Y13337000D01*
X18114838Y13022833D01*
X18256883Y12679057D01*
X18519673Y12415808D01*
X18863201Y12273162D01*
X19235167Y12272838D01*
X19578943Y12414883D01*
X19842192Y12677673D01*
X19984838Y13021201D01*
X19984879Y13068077D01*
X21111401Y14194599D01*
X21276148Y14441160D01*
X21303074Y14576527D01*
X21334000Y14732000D01*
X21334000Y21336000D01*
X21277119Y21621959D01*
X21389873Y21509008D01*
X21733401Y21366362D01*
X21780277Y21366321D01*
X21871400Y21275198D01*
X21871400Y14608663D01*
X21839208Y14576527D01*
X21696562Y14232999D01*
X21696238Y13861033D01*
X21838283Y13517257D01*
X21966257Y13389059D01*
X20180320Y11603122D01*
X20134833Y11603162D01*
X19791057Y11461117D01*
X19527808Y11198327D01*
X19385162Y10854799D01*
X19384838Y10482833D01*
X19526883Y10139057D01*
X19640741Y10025000D01*
X5224637Y10025000D01*
X5211054Y10093285D01*
X4889147Y10575054D01*
X4847548Y10602850D01*
X4895317Y10611838D01*
X5111441Y10750910D01*
X5256431Y10963110D01*
X5307440Y11215000D01*
X5307440Y11957308D01*
X7152566Y13802433D01*
X7398603Y14170654D01*
X7408261Y14219208D01*
X7485000Y14605000D01*
X7485000Y17925033D01*
X11993438Y17925033D01*
X12135483Y17581257D01*
X12398273Y17318008D01*
X12741801Y17175362D01*
X13113767Y17175038D01*
X13457543Y17317083D01*
X13490718Y17350200D01*
X16125381Y17350200D01*
X16182873Y17292608D01*
X16526401Y17149962D01*
X16898367Y17149638D01*
X17242143Y17291683D01*
X17505392Y17554473D01*
X17648038Y17898001D01*
X17648362Y18269967D01*
X17506317Y18613743D01*
X17243527Y18876992D01*
X16899999Y19019638D01*
X16528033Y19019962D01*
X16184257Y18877917D01*
X16176527Y18870200D01*
X13491063Y18870200D01*
X13458927Y18902392D01*
X13115399Y19045038D01*
X12743433Y19045362D01*
X12399657Y18903317D01*
X12136408Y18640527D01*
X11993762Y18296999D01*
X11993438Y17925033D01*
X7485000Y17925033D01*
X7485000Y31115000D01*
X7398603Y31549346D01*
X7152566Y31917566D01*
X6050132Y33020000D01*
X6134332Y33104200D01*
X28007394Y33104200D01*
X27808076Y33021645D01*
M02*
